<svg xmlns="http://www.w3.org/2000/svg" viewBox="0 0 230.58 258.33"><defs><style>.a{fill:#2855a0;}</style></defs><title>KTH_invert</title><path class="a" d="M422,414c2.48-2.81,5.14-5.8,7-7.65a11.34,11.34,0,0,1,7.45-3.63s-4.32-2.12-8.88,2.43c-1.23,1.23-4,4.32-6.78,7.47l-3-3.3c1-1.13,2-2.16,2.8-3a11.34,11.34,0,0,1,7.45-3.63s-4.33-2.12-8.88,2.43c-.58.58-1.5,1.58-2.61,2.8-1.1-1.22-2-2.22-2.61-2.8-4.56-4.55-8.88-2.43-8.88-2.43a11.35,11.35,0,0,1,7.45,3.63c.81.81,1.77,1.84,2.8,3l-3,3.3c-2.81-3.15-5.56-6.24-6.79-7.47-4.56-4.55-8.88-2.43-8.88-2.43a11.34,11.34,0,0,1,7.45,3.63c1.85,1.85,4.5,4.83,7,7.65-2.34,2.62-4.57,5.09-5.85,6.37a11.28,11.28,0,0,1-6.6,3.28s3.82,2.24,9-3.09c1-1,2.69-2.95,4.64-5.16,1.06,1.21,2.06,2.34,2.9,3.28-.63.67-1.18,1.26-1.62,1.69a11.28,11.28,0,0,1-6.6,3.28s3.82,2.24,9-3.09l.46-.49.46.49c5.21,5.33,9,3.09,9,3.09a11.27,11.27,0,0,1-6.6-3.28c-.43-.43-1-1-1.62-1.7.84-.94,1.84-2.07,2.9-3.27,1.95,2.22,3.68,4.18,4.64,5.16,5.21,5.33,9,3.09,9,3.09a11.28,11.28,0,0,1-6.6-3.28C426.61,419.1,424.37,416.63,422,414Zm-5.41,3.28c-.92-1-1.92-2.12-3-3.28,1-1.11,2-2.24,3-3.32,1,1.08,2,2.21,3,3.32C418.55,415.16,417.54,416.28,416.63,417.29Z" transform="translate(-301.34 -165.79)"/><path class="a" d="M320.92,256.59a4.26,4.26,0,0,0,4.29,2.91,6.2,6.2,0,0,0,1.83-.29c.07.12.16.25.28.41a4.67,4.67,0,0,0,1.1,1.07.77.77,0,0,0,.87-1.27,3.1,3.1,0,0,1-.73-.72l-.11-.15a5.07,5.07,0,0,0,1.89-1.92,4,4,0,0,0,.29-3.1,1.82,1.82,0,0,0-1.56-1.34.75.75,0,0,0-.15,0,7.66,7.66,0,0,0-.19-.75c-.75-2.38-2.9-4.29-4.54-4.15a.9.9,0,0,0-1.53.48,2.78,2.78,0,0,0-1,1.16,6.65,6.65,0,0,0-.31,4.84,7.66,7.66,0,0,0,.27.73.73.73,0,0,0-.13.06A1.84,1.84,0,0,0,320.92,256.59Zm8.32-2.21a2.47,2.47,0,0,1-.27,1.55,3.94,3.94,0,0,1-2.36,1.81,4.68,4.68,0,0,1-1.4.22,2.8,2.8,0,0,1-2.68-1.48,5.53,5.53,0,0,0,1.32.15,7.84,7.84,0,0,0,2.3-.36A7,7,0,0,0,329.24,254.38ZM323,249.69a1.1,1.1,0,0,1,.51-.57.82.82,0,0,0,.35-.21.81.81,0,0,0,.41,0c.62-.19,2.38,1.11,3,3.06a5.7,5.7,0,0,1,.26,1.93,6.12,6.12,0,0,1-1.82.91,6.27,6.27,0,0,1-1.84.29h-.18a5.63,5.63,0,0,1-.9-1.72A5.17,5.17,0,0,1,323,249.69Z" transform="translate(-301.34 -165.79)"/><path class="a" d="M338.74,269.36a1.83,1.83,0,0,0,1.73-1.12.72.72,0,0,0,0-.15l.6,0h.17a6.66,6.66,0,0,0,4.48-1.84,2.78,2.78,0,0,0,.77-1.36.92.92,0,0,0,.47-.79.94.94,0,0,0-.5-.81c-.39-1.61-2.86-3-5.39-3a7.66,7.66,0,0,0-.77.06.76.76,0,0,0,0-.16,1.84,1.84,0,0,0-1.76-1h0a4,4,0,0,0-3.16,1.63,5.21,5.21,0,0,0-.91,2l-.17-.05a3.2,3.2,0,0,1-.92-.47.77.77,0,0,0-.92,1.24,4.75,4.75,0,0,0,1.37.7l.48.13c.07,2.87,1.9,5,4.34,5Zm2.38-7.48c2-.07,3.85,1.22,3.86,1.84a.92.92,0,0,1,0,.82,1.11,1.11,0,0,1-.37.66,5.17,5.17,0,0,1-3.4,1.37,5.69,5.69,0,0,1-1.92-.28,6.06,6.06,0,0,1-.38-2,6.16,6.16,0,0,1,.28-2A5.6,5.6,0,0,1,341.12,261.88Zm-5.28,2.46a4.08,4.08,0,0,1,.76-2.58,2.52,2.52,0,0,1,1.59-1,7.1,7.1,0,0,0-.8,3.53,6.9,6.9,0,0,0,1,3.49C336.91,267.63,335.87,266.23,335.83,264.34Z" transform="translate(-301.34 -165.79)"/><path class="a" d="M330.4,306.71a2.78,2.78,0,0,0,0-1.56.92.92,0,0,0,0-.92,1,1,0,0,0-.83-.45c-1.14-1.2-4-1.19-6.16.09-.22.13-.44.28-.64.43a.76.76,0,0,0-.1-.13,1.73,1.73,0,0,0-1-.33,2,2,0,0,0-1,.3,4,4,0,0,0-1.93,3,5.23,5.23,0,0,0,.22,2.22l-.17,0a3.17,3.17,0,0,1-1,.05.77.77,0,1,0-.18,1.53,4.58,4.58,0,0,0,.53,0,4.8,4.8,0,0,0,1-.11l.48-.12a5.11,5.11,0,0,0,4.26,2.67,3.94,3.94,0,0,0,2.07-.58,1.84,1.84,0,0,0,.94-1.83.77.77,0,0,0-.06-.13,7.41,7.41,0,0,0,.68-.36A6.66,6.66,0,0,0,330.4,306.71Zm-6.19-1.51c1.76-1.05,3.95-.85,4.26-.33a.82.82,0,0,0,.3.31.83.83,0,0,0,.13.4,1.11,1.11,0,0,1,0,.76,5.18,5.18,0,0,1-2.28,2.88,5.66,5.66,0,0,1-1.8.71,6.08,6.08,0,0,1-1.33-1.56,6.15,6.15,0,0,1-.76-1.9A5.71,5.71,0,0,1,324.21,305.2ZM320.84,310a4.09,4.09,0,0,1-.63-2.62,2.51,2.51,0,0,1,.89-1.64,7.1,7.1,0,0,0,1.06,3.47,7,7,0,0,0,2.57,2.55C323.42,312.28,321.78,311.52,320.84,310Z" transform="translate(-301.34 -165.79)"/><path class="a" d="M303.44,308.33a7.44,7.44,0,0,0,.59.5.76.76,0,0,0-.08.12,1.84,1.84,0,0,0,.53,2,4,4,0,0,0,2.76,1.1h0a5.43,5.43,0,0,0,3.86-1.81l.44.22a4.71,4.71,0,0,0,1.48.4h.08a.77.77,0,0,0,.07-1.54,3.12,3.12,0,0,1-1-.27L312,309a5.07,5.07,0,0,0,.68-2.61,4,4,0,0,0-1.27-2.83,1.89,1.89,0,0,0-1.32-.55,1.66,1.66,0,0,0-.7.15.77.77,0,0,0-.12.1,7.77,7.77,0,0,0-.54-.56c-1.81-1.7-4.59-2.31-6-1.39a.9.9,0,0,0-1.1,1.17,2.77,2.77,0,0,0-.34,1.52A6.64,6.64,0,0,0,303.44,308.33Zm7.72-1.92a4.33,4.33,0,0,1-3.93,4.09h0a2.44,2.44,0,0,1-1.42-.44,7.44,7.44,0,0,0,4.81-5.12A2.46,2.46,0,0,1,311.17,306.41ZM303,303.18a.83.83,0,0,0,.2-.36.76.76,0,0,0,.34-.23c.44-.46,2.62-.2,4.12,1.2a5.74,5.74,0,0,1,1.18,1.55,6.13,6.13,0,0,1-1.14,1.69,6,6,0,0,1-1.65,1.24,5.62,5.62,0,0,1-1.6-1.07,5.16,5.16,0,0,1-1.62-3.29A1.1,1.1,0,0,1,303,303.18Z" transform="translate(-301.34 -165.79)"/><path class="a" d="M337,350a2.79,2.79,0,0,0-.77-1.36.91.91,0,0,0-.43-.8.94.94,0,0,0-1,0c-1.57-.5-4.09.9-5.34,3.06-.13.23-.25.46-.35.69a.76.76,0,0,0-.15-.06h-.21a1.86,1.86,0,0,0-1.6,1,4.36,4.36,0,0,0,1,5.37l-.14.12a3.14,3.14,0,0,1-.88.54.77.77,0,0,0,.29,1.49.76.76,0,0,0,.29-.06,4.72,4.72,0,0,0,1.3-.8c.15-.13.26-.23.36-.34a5.86,5.86,0,0,0,2.89.81,4.08,4.08,0,0,0,3.65-2,1.84,1.84,0,0,0-.06-2.06.78.78,0,0,0-.12-.09,7.51,7.51,0,0,0,.42-.65A6.65,6.65,0,0,0,337,350Zm-6.15,1.67c1-1.77,3-2.65,3.57-2.35a.83.83,0,0,0,.41.13.84.84,0,0,0,.3.29,1.11,1.11,0,0,1,.37.66,5.17,5.17,0,0,1-.6,3.62,5.7,5.7,0,0,1-1.21,1.47,6,6,0,0,1-1.95-.7,6.16,6.16,0,0,1-1.58-1.29A5.75,5.75,0,0,1,330.86,351.66Zm-.64,5.79c-1.41-.82-2.43-2.36-1.83-3.85a7.46,7.46,0,0,0,6.09,3.51C333.6,358.22,331.79,358.36,330.21,357.45Z" transform="translate(-301.34 -165.79)"/><path class="a" d="M324.15,360.79a.77.77,0,0,0-1-.39,3,3,0,0,1-1,.25H322a5.2,5.2,0,0,0-.44-2.19,4,4,0,0,0-2.72-2.28,1.92,1.92,0,0,0-2,.63.73.73,0,0,0-.06.15,7.53,7.53,0,0,0-.74-.23c-2.41-.6-5.14.23-5.9,1.7a.9.9,0,0,0-.39,1.55,2.77,2.77,0,0,0,.44,1.5,6.65,6.65,0,0,0,4,2.79,7.33,7.33,0,0,0,.76.14.72.72,0,0,0,0,.15,1.83,1.83,0,0,0,1.43,1.48,4,4,0,0,0,1,.13h0c2.05,0,3.83-1.6,4.43-4h0l.48,0a4.62,4.62,0,0,0,1.49-.38A.77.77,0,0,0,324.15,360.79Zm-12.63-.08a1.11,1.11,0,0,1-.22-.72.84.84,0,0,0,0-.42.78.78,0,0,0,.19-.37c.16-.62,2.19-1.46,4.17-1a5.7,5.7,0,0,1,1.79.81,6.12,6.12,0,0,1-.17,2,6.25,6.25,0,0,1-.81,1.88,5.66,5.66,0,0,1-1.94-.15A5.17,5.17,0,0,1,311.52,360.72Zm8.76,1.1c-.42,1.7-1.61,2.84-2.94,2.84h-.26a7.44,7.44,0,0,0,1.71-6.82,2.52,2.52,0,0,1,1.33,1.31A4.08,4.08,0,0,1,320.28,361.82Z" transform="translate(-301.34 -165.79)"/><path class="a" d="M361.63,394.87h.06c2.85,0,5-1.84,5-4.27a1.83,1.83,0,0,0-1.06-1.76.86.86,0,0,0-.14,0,7.6,7.6,0,0,0,.05-.77,6.66,6.66,0,0,0-1.68-4.55,2.78,2.78,0,0,0-1.33-.81.9.9,0,0,0-1.59,0c-1.62.33-3.13,2.78-3.17,5.28a7.49,7.49,0,0,0,0,.78.73.73,0,0,0-.16,0,1.82,1.82,0,0,0-1.11,1.73,4,4,0,0,0,1.51,3.21,5.21,5.21,0,0,0,2,1l-.06.17a3.09,3.09,0,0,1-.5.9.77.77,0,1,0,1.2,1,4.65,4.65,0,0,0,.75-1.35C361.55,395.14,361.59,395,361.63,394.87Zm-.3-10.71h0a.7.7,0,0,0,.42-.09.81.81,0,0,0,.41.11,1.1,1.1,0,0,1,.64.4A5.17,5.17,0,0,1,364,388a5.64,5.64,0,0,1-.37,1.91,6.34,6.34,0,0,1-2,.31h0a6.14,6.14,0,0,1-2-.35,5.62,5.62,0,0,1-.32-1.93C359.39,385.91,360.71,384.16,361.33,384.16Zm-3.19,6.7a7.15,7.15,0,0,0,3.6.93,6.92,6.92,0,0,0,3.43-.84c-.24,1.56-1.87,2.38-3.47,2.38h-.08a4.09,4.09,0,0,1-2.55-.85A2.51,2.51,0,0,1,358.14,390.86Z" transform="translate(-301.34 -165.79)"/><path class="a" d="M357.13,399.94a3.12,3.12,0,0,1-.75.71l-.15.1a4.51,4.51,0,0,0-3.87-2.5,4.1,4.1,0,0,0-1.07.14,1.82,1.82,0,0,0-1.4,1.5.72.72,0,0,0,0,.16,7.68,7.68,0,0,0-.76.16c-2.4.66-4.38,2.72-4.31,4.38a.9.9,0,0,0,.42,1.54,2.78,2.78,0,0,0,1.13,1.09,6.18,6.18,0,0,0,3,.73,6.9,6.9,0,0,0,1.81-.24,7.47,7.47,0,0,0,.73-.24.75.75,0,0,0,.05.13,1.79,1.79,0,0,0,1.41.67,2.13,2.13,0,0,0,.56-.08,4,4,0,0,0,2.45-1.89,5.5,5.5,0,0,0,.41-4.12c.13-.07.25-.15.42-.26a4.68,4.68,0,0,0,1.11-1.06.77.77,0,1,0-1.23-.93Zm-6.32,6.29a5.17,5.17,0,0,1-3.65-.34,1.13,1.13,0,0,1-.55-.52.83.83,0,0,0-.2-.37.79.79,0,0,0,0-.41c-.17-.62,1.2-2.34,3.17-2.88a5.75,5.75,0,0,1,1.94-.19,6.28,6.28,0,0,1,1.06,3.88A5.57,5.57,0,0,1,350.8,406.24Zm4.27-.69a2.45,2.45,0,0,1-1.16,1,7.06,7.06,0,0,0-.07-3.62,7.17,7.17,0,0,0-1.78-3.16c1.44-.18,2.78,1,3.26,2.75A4,4,0,0,1,355.08,405.55Z" transform="translate(-301.34 -165.79)"/><path class="a" d="M403.74,415.6c.52,0,1,0,1.12-.4a.43.43,0,0,0,0-.17.43.43,0,0,0,0-.09c0-.36,0-.75-5.07-1.69,0-1.87-.06-5.63-2.33-7.09a2.63,2.63,0,0,0-1.41-.45,3,3,0,0,0-2.43,1.8l-.26.4c-.22-.18-.33-.62-.52-2l-.13-.87c-.21-1.43-.65-4.41-3.69-5.27a4,4,0,0,0-1.09-.16c-2.19,0-2.8,2.06-3.17,3.29-.13.44-.35,1.18-.58,1.31-.39-.32-.38-2.31-.37-3.17v-.62c0-4.05-1.91-6.38-5.18-6.38a7.41,7.41,0,0,0-1,.07,3.11,3.11,0,0,0-2.25,1.09c-1,1.23-.78,3-.59,4.6a9.52,9.52,0,0,1,.12,1.69,1.19,1.19,0,0,1-.33.05c-.54,0-1.12-.59-1.79-1.82a6.09,6.09,0,0,0-5.28-3.43,6.73,6.73,0,0,0-5.5,3.3,5.94,5.94,0,0,0,5.12,9.6l.61,0,.63,0c1.55,0,2.12.42,2.44,1.11a9.54,9.54,0,0,1-1.44.79c-1.43.69-3,1.46-3.45,3a3.33,3.33,0,0,0,.69,2.81,6.67,6.67,0,0,0,5.39,2.92,7.35,7.35,0,0,0,4.91-2.07l.59-.55c.82-.77,1.94-1.83,2.58-1.83a.62.62,0,0,1,.31.09,4,4,0,0,1-.38,1.2,4.24,4.24,0,0,0-.36,3.42,3.58,3.58,0,0,0,2.29,1.81,6.32,6.32,0,0,0,2,.35,6.46,6.46,0,0,0,4.78-2.48l.12-.13c.25-.26.48-.52.69-.76.72-.82,1.12-1.25,1.54-1.25h0c0,.14.06.33.08.48.14.92.43,3.16,3.15,2.88,2.19-.23,3.91-2.17,5.12-5.74A36.91,36.91,0,0,0,403.74,415.6Zm-9.6,3a1.31,1.31,0,0,1-.39,0,2.81,2.81,0,0,1-.22-.9c-.12-.78-.31-2.08-1.62-2.36a3.44,3.44,0,0,0-.76-.09c-1.48,0-2.35,1-3.27,2-.2.22-.41.46-.65.71l-.13.15a4.24,4.24,0,0,1-3.07,1.73,4,4,0,0,1-1.29-.23,1.68,1.68,0,0,1-.93-.57c-.14-.3.16-1,.39-1.58.42-1,1.13-2.76-.37-3.9a2.8,2.8,0,0,0-1.71-.59c-1.57,0-2.89,1.25-4.17,2.46l-.57.53a5.06,5.06,0,0,1-3.34,1.46,4.48,4.48,0,0,1-3.52-2c-.15-.21-.39-.6-.32-.85.13-.51,1.39-1.11,2.22-1.51,1.43-.68,3.39-1.62,2.69-3.49a4.54,4.54,0,0,0-4.68-2.8l-.78,0a4.05,4.05,0,0,1-4.08-1.86,4,4,0,0,1,.44-4.12,4.48,4.48,0,0,1,3.57-2.27,3.79,3.79,0,0,1,3.25,2.24c.71,1.29,1.87,3,3.82,3a3.66,3.66,0,0,0,1.4-.29c1.53-.63,1.31-2.44,1.11-4-.12-1-.29-2.39.09-2.86,0-.05.17-.2.71-.25a5.41,5.41,0,0,1,.74-.05c.78,0,2.85,0,2.87,4.08v.6c0,1.75,0,3.74,1,4.81a2.42,2.42,0,0,0,1.9.67c1.7-.13,2.19-1.76,2.54-2.95.52-1.75.73-1.75,1.41-1.56,1.48.42,1.8,1.84,2,3.38l.13.86c.24,1.75.5,3.56,2.59,4a1.79,1.79,0,0,0,.37,0h0c1.08,0,1.65-.91,2.07-1.58l.46-.72a.6.6,0,0,1,.18.09c.49.32,1.27,1.36,1.26,4.74l-1.8-.29c-8.56-1.5-19.38-5.78-22.94-7.18-1.11-.44-1.11-.44-1.22-.44a.39.39,0,0,0-.29.13h0a.4.4,0,0,0-.07.1.38.38,0,0,0,0,.12.38.38,0,0,0,0,.17c.25.72,14.25,7.39,24.14,9.14l1.84.29C396.1,417.8,394.95,418.55,394.14,418.64Z" transform="translate(-301.34 -165.79)"/><path class="a" d="M334.33,256.24l.15.22,0,.13h.36c.17,0,.35,0,1.45-1.2a11.76,11.76,0,0,0,5.2,1.66,4.17,4.17,0,0,0,2.09-.51,2.41,2.41,0,0,0,1.21-1.47,3.31,3.31,0,0,0-.65-2.51l-.22-.38a4.41,4.41,0,0,1,1.8.42l1,.32a8.83,8.83,0,0,0,2.81.57,4.38,4.38,0,0,0,3.4-1.49,3.06,3.06,0,0,0,1-2.19,4.43,4.43,0,0,0-1.77-2.93,5.24,5.24,0,0,1-.87-1s.07,0,.19,0a8.58,8.58,0,0,1,2.84,1.09l.43.21c4,1.92,7.2.82,8.31-2.64a3.18,3.18,0,0,0,0-2.53c-.67-1.41-2.29-2-3.73-2.46a8.85,8.85,0,0,1-1.49-.6c.07-.48.37-1.09,2.41-1.1a6,6,0,0,0,5.29-2.88,6.54,6.54,0,0,0-.36-6.5,5.92,5.92,0,0,0-11,.73c-.86,1.88-1.49,2.26-2.22,2.27a10.48,10.48,0,0,1-.06-1.62c0-1.51,0-3.23-1-4.28a2.81,2.81,0,0,0-2.06-.8,4.79,4.79,0,0,0-.83.08A7,7,0,0,0,343.1,228a6.69,6.69,0,0,0-.49,5.47c.08.29.17.6.27.91.48,1.57.83,2.89.25,3.15a3.9,3.9,0,0,1-.9-.87,4.07,4.07,0,0,0-3-1.85,3.68,3.68,0,0,0-2.52,1.2c-2.7,2.72-1.57,5.7-1.09,7l.06.16c.11.29.21.55.31.8.48,1.22.59,1.62.42,2l-.43-.14a4.91,4.91,0,0,0-1.57-.33,2.49,2.49,0,0,0-2.38,1.79c-.82,2.06.17,4.49,2.92,7.24C334.13,255.79,334.25,256.07,334.33,256.24Zm-.12-8.2a.78.78,0,0,1,.23-.33,3.38,3.38,0,0,1,.83.21,4.29,4.29,0,0,0,1.36.29,1.82,1.82,0,0,0,1.46-.68c1.24-1.55.65-3,.08-4.49-.09-.24-.19-.49-.29-.76l-.07-.18c-.55-1.44-1-3,.54-4.49.52-.49.81-.54.9-.54.32,0,.82.58,1.22,1a3.69,3.69,0,0,0,2.63,1.67,2.29,2.29,0,0,0,.93-.2c2.54-1.06,1.65-4,1.06-5.94-.09-.29-.18-.58-.26-.88a4.47,4.47,0,0,1,.26-3.64,4.77,4.77,0,0,1,3.27-2.05,2.37,2.37,0,0,1,.4,0c.31,0,.39.08.42.11.37.37.36,1.73.35,2.63,0,1.58,0,3.75,1.91,3.93,2.66.27,3.92-1.69,4.8-3.62a3.62,3.62,0,0,1,6.82-.53,4.3,4.3,0,0,1,.36,4.22,3.72,3.72,0,0,1-3.31,1.7c-3.69,0-4.59,1.89-4.7,3.47s1.66,2.26,3.06,2.74c.9.31,2.14.74,2.39,1.27,0,.06.12.25-.07.78-.59,1.83-1.66,2-2.42,2a6.55,6.55,0,0,1-2.68-.73l-.39-.2a9.54,9.54,0,0,0-3.89-1.34A2.45,2.45,0,0,0,349.1,245c-.7,1.55.57,2.76,1.41,3.56.42.4,1,1,1,1.31a1.06,1.06,0,0,1-.36.57,2.13,2.13,0,0,1-1.7.75,6.79,6.79,0,0,1-2.07-.45l-1-.32a7.71,7.71,0,0,0-2.4-.56,2.66,2.66,0,0,0-2.16,1.05c-.84,1-.16,2.16.24,2.84a4.47,4.47,0,0,1,.38.73l-.1.07a1.9,1.9,0,0,1-.93.2,9,9,0,0,1-3.63-1.13c.82-1,1.89-2.25,3.27-3.95,5.14-6.29,13.33-13.4,16.94-16.29l.09-.07c1.41-1,1.41-1,1.42-1.21v-.15l-.21-.27h-.19c-.15,0-.23,0-1.59,1.08-3.12,2.21-12.59,8.89-18.06,15.57-1.44,1.77-2.49,3.13-3.26,4.18C333.94,250,334,248.65,334.21,248Z" transform="translate(-301.34 -165.79)"/><path class="a" d="M346.45,396.63h0c2.26,0,4.41-1.69,5.52-2.7a4.12,4.12,0,0,0,1.75.87.5.5,0,0,0,.45-.24l0,0a.38.38,0,0,0,.11-.16c.07-.21.1-.36-1.21-1.67.82-1.33,3-5,1.58-7.54a2.28,2.28,0,0,0-2.05-1.33,4.05,4.05,0,0,0-1.87.61l-.33.17c-.07-.26.05-.7.48-1.83l.32-.87c.46-1.21,1.53-4.05-.68-6.21a3,3,0,0,0-2.21-1.12,4.47,4.47,0,0,0-2.93,1.64c-.31.3-.83.81-1,.81-.24-.4.83-2.32,1.18-3l.23-.42c1.12-2.13,1.39-4,.81-5.55a5,5,0,0,0-3.07-2.87,3.7,3.7,0,0,0-1.41-.3c-2.22,0-3.1,2.23-3.74,3.85a8.88,8.88,0,0,1-.67,1.47c-.46-.1-1-.44-1.08-2.35a6.13,6.13,0,0,0-1.54-4.66c-1.75-1.83-4.82-2.13-7.6-.7a6.06,6.06,0,0,0-3.51,5.33,6.49,6.49,0,0,0,3.82,5.69c2,.88,2.26,1.54,2.21,2.23a11.57,11.57,0,0,1-1.61,0c-.42,0-.85,0-1.26,0a4.17,4.17,0,0,0-3.26,1.09,3.2,3.2,0,0,0-.64,2.64c.54,3.69,3,6,6.3,6a8.2,8.2,0,0,0,2.06-.27l.91-.23a11,11,0,0,1,2.43-.46c.6,0,.66.17.73.33a3.83,3.83,0,0,1-.9.85,4.26,4.26,0,0,0-2,2.75,3.67,3.67,0,0,0,1,2.75,5.46,5.46,0,0,0,4.15,1.88,8.58,8.58,0,0,0,2.77-.54l.22-.07.84-.29a5.94,5.94,0,0,1,1.59-.43.56.56,0,0,1,.34.1c0,.14-.12.33-.17.47-.32.82-1.17,3,1.34,4A4.2,4.2,0,0,0,346.45,396.63Zm-3-7.22a7.2,7.2,0,0,0-2.36.57l-.78.27-.24.08a6.5,6.5,0,0,1-2,.42,3.15,3.15,0,0,1-2.4-1.09,1.66,1.66,0,0,1-.49-1c0-.34.63-.81,1.1-1.18.9-.72,2.27-1.8,1.61-3.5a2.82,2.82,0,0,0-2.89-1.82,12.48,12.48,0,0,0-3,.54l-.89.22a5.94,5.94,0,0,1-1.5.2c-2.21,0-3.63-1.42-4-4a1.14,1.14,0,0,1,.08-.8c.1-.11.42-.3,1.52-.3.38,0,.77,0,1.15,0s.78,0,1.14,0c1.74,0,2.7-.61,2.85-1.76.45-2.78-1.64-4.1-3.46-4.91a4.2,4.2,0,0,1-2.51-3.6,3.75,3.75,0,0,1,2.25-3.28c1.87-1,3.81-.86,4.86.24a4,4,0,0,1,.9,3c0,2.85,1.16,4.43,3.36,4.72h.18c1.53,0,2.15-1.58,2.69-3,.42-1.06.94-2.38,1.58-2.38a1.51,1.51,0,0,1,.54.13,2.79,2.79,0,0,1,1.77,1.54,4.73,4.73,0,0,1-.68,3.64l-.21.39c-.85,1.53-1.82,3.26-1.38,4.73a2.41,2.41,0,0,0,1.23,1.46,2.15,2.15,0,0,0,1,.25,4,4,0,0,0,2.63-1.5c.41-.39,1-1,1.32-1,.08,0,.25.09.54.41,1.09,1.06.71,2.4.18,3.79l-.32.87c-.59,1.56-1.2,3.17.27,4.6a1.74,1.74,0,0,0,1.2.47h0a3.55,3.55,0,0,0,1.63-.54l.7-.37a.76.76,0,0,1,.13.19c.23.39.54,1.62-1.28,4.74-.92-.87-2.11-2-3.68-3.41-4.39-3.9-9.75-10-15.93-18.25-.69-.92-.69-.92-.9-.92l-.14,0a.4.4,0,0,0-.25.3c-.14.75,8.38,13.76,15.8,20.37,1.48,1.36,2.75,2.46,3.81,3.33a6.28,6.28,0,0,1-3.64,1.82,1.84,1.84,0,0,1-.65-.11,1.47,1.47,0,0,1-.3-.16,3,3,0,0,1,.26-.9c.28-.73.76-2-.19-2.83A3,3,0,0,0,343.43,389.41Z" transform="translate(-301.34 -165.79)"/><path class="a" d="M312.63,346l1,.18c1.22.21,1.62.33,1.81.63l-.34.3c-.66.55-2.41,2-.8,4.14A5.1,5.1,0,0,0,318.6,353a14,14,0,0,0,3.17-.42c.83,1.76,1.11,1.78,1.32,1.78a.44.44,0,0,0,.35-.17l.16-.09c.1-.14.24-.36-.26-2.14,1.52-.86,4.87-2.93,4.94-5.7a2.41,2.41,0,0,0-.63-1.8,3.32,3.32,0,0,0-2.49-.76h-.43c.05-.26.37-.58,1.35-1.4l.67-.56c1.09-.91,3.37-2.8,2.54-5.81a2.84,2.84,0,0,0-2.85-2.32,7.82,7.82,0,0,0-2,.34,5.84,5.84,0,0,1-1.22.24c-.09,0-.13,0-.14,0,.08-.48,1.74-1.49,2.45-1.91l.51-.31c2-1.27,3.2-2.74,3.45-4.36a5,5,0,0,0-1.37-4.08,3,3,0,0,0-2.45-1.35c-1.41,0-2.66,1-3.77,1.9a10.12,10.12,0,0,1-1.31,1c-.38-.29-.69-.77.38-2.63a5.91,5.91,0,0,0,.34-5.93,6.68,6.68,0,0,0-5.81-3.19h-.28a6,6,0,0,0-5.49,3,6.45,6.45,0,0,0,.73,6.7c1.19,1.69,1,2.5.68,3.06a9.83,9.83,0,0,1-1.39-.8,7.07,7.07,0,0,0-3.52-1.45,3,3,0,0,0-2.81,2.17,6.92,6.92,0,0,0,.15,5.62,7,7,0,0,0,4.44,3.43l.77.21c1.68.45,3,.86,2.93,1.48a4,4,0,0,1-1.18.29,4.18,4.18,0,0,0-3.06,1.46,3.53,3.53,0,0,0-.35,2.86c.84,3.75,3.95,4.36,5.27,4.62Zm-3.18-5.16c-.16-.74,0-1,0-1.05.18-.26.95-.38,1.51-.47,1.08-.17,2.9-.47,3.09-2.33.23-2.66-2.56-3.42-4.6-4l-.74-.21a4.72,4.72,0,0,1-3-2.26,4.63,4.63,0,0,1-.06-3.71c.3-.7.55-.7.66-.7a6,6,0,0,1,2.27,1.09,5.72,5.72,0,0,0,2.8,1.2,2,2,0,0,0,1.57-.78c1.86-2.58.07-5.13-.51-6a4.13,4.13,0,0,1-.58-4.3,3.68,3.68,0,0,1,3.44-1.81h.2a4.42,4.42,0,0,1,3.85,2,3.63,3.63,0,0,1-.31,3.66c-.56,1-2.27,3.95.42,5.78a1.87,1.87,0,0,0,1.11.36h0a5,5,0,0,0,2.85-1.5c.73-.58,1.72-1.39,2.31-1.39.09,0,.29,0,.64.48a2.91,2.91,0,0,1,.89,2.28c-.14.91-1,1.86-2.39,2.74l-.49.3c-1.51.92-3.23,2-3.52,3.45a2.39,2.39,0,0,0,2.42,2.8,7.25,7.25,0,0,0,1.81-.32,6.15,6.15,0,0,1,1.37-.26c.26,0,.44,0,.61.62.4,1.44-.62,2.43-1.79,3.41l-.66.55c-1.33,1.1-2.7,2.24-2,4.24.44,1.24,1.76,1.26,2.55,1.27a4.53,4.53,0,0,1,.82.06.93.93,0,0,1,0,.13c0,.57-.49,1.75-3.33,3.47-.39-1.18-.91-2.68-1.61-4.61-2.65-7.6-4.15-18.1-4.8-22.58-.35-2.42-.35-2.42-.72-2.42l-.32.17c-.37.52.43,15.58,3.87,25.49.72,2,1.31,3.51,1.78,4.69a11.13,11.13,0,0,1-2.24.26,3,3,0,0,1-2.47-.85,1,1,0,0,1-.18-.32c0-.14.43-.47.64-.64.59-.5,1.59-1.34,1.15-2.58-.62-1.86-2.19-2.14-3.71-2.4l-.92-.17-.19,0C311.41,343.38,309.91,342.92,309.44,340.82Z" transform="translate(-301.34 -165.79)"/><path class="a" d="M310.58,291.49l.13.11.73.59c1,.81,1.3,1.1,1.31,1.47l-.46.1c-.85.16-3.09.59-2.75,3.2.27,2.14,2.26,3.75,5.89,4.83-.06,1.41.14,1.67.24,1.79a.56.56,0,0,0,.42.18l.12,0c.26,0,.43,0,.83-1.73,1.66,0,5.63-.15,7.13-2.57a2.4,2.4,0,0,0,.35-1.88,3.28,3.28,0,0,0-1.79-1.87l-.35-.21c.17-.2.6-.32,1.79-.55l.91-.18c1.29-.24,4.32-.81,5-3.85s-2-3.74-3.26-4.07a5.39,5.39,0,0,1-1.23-.41v0c.39-.42,2.2-.49,3.18-.53l.47,0c2.35-.14,4.05-.86,5.07-2.14a5.14,5.14,0,0,0,.9-4.2,3.15,3.15,0,0,0-3.45-2.8,13.4,13.4,0,0,0-2.26.27,9.87,9.87,0,0,1-1.48.19H328c-.16-.46-.17-1.19,1.5-2.13a5.91,5.91,0,0,0,3.26-5,6.64,6.64,0,0,0-3.49-5.61,6,6,0,0,0-7.61.74,6.78,6.78,0,0,0-1.61,5.24c.17,2.06-.11,2.72-.79,3.08a10.36,10.36,0,0,1-.84-1.38c-.81-1.49-1.82-3.35-3.69-3.35a3.41,3.41,0,0,0-2.14.87,6.79,6.79,0,0,0-2.75,4.94,6.89,6.89,0,0,0,2.26,5.19l.67.66c1.17,1.13,2.11,2.11,1.67,2.62a4.56,4.56,0,0,1-1.16-.33,6.3,6.3,0,0,0-2.12-.5c-1,0-2.29.45-2.93,2.63C307.11,288.57,309.54,290.62,310.58,291.49Zm-.18-6c.28-1,.57-1,.71-1a4.7,4.7,0,0,1,1.33.36,5.81,5.81,0,0,0,2,.47h0a2.26,2.26,0,0,0,1.87-.91c1.73-2.16-.47-4.29-1.92-5.7l-.65-.64a4.64,4.64,0,0,1-1.58-3.44,4.56,4.56,0,0,1,1.9-3.25,1.21,1.21,0,0,1,.68-.35c.49,0,1.22,1.34,1.66,2.14.71,1.31,1.45,2.66,2.8,2.66h0a1.82,1.82,0,0,0,.74-.15c2.79-1.1,2.56-4,2.44-5.51a4.51,4.51,0,0,1,1-3.48,3.68,3.68,0,0,1,4.7-.33A4.38,4.38,0,0,1,330.4,270a3.62,3.62,0,0,1-2.09,3c-3.28,1.86-2.91,4.11-2.37,5.33a2.16,2.16,0,0,0,2.14,1.13,11.26,11.26,0,0,0,1.88-.23,11.5,11.5,0,0,1,1.86-.23c.93,0,1.07.27,1.16.85a3,3,0,0,1-.42,2.39,4.62,4.62,0,0,1-3.38,1.27l-.44,0c-1.76.07-3.76.14-4.8,1.27a2.43,2.43,0,0,0-.62,1.82c.14,1.7,1.84,2.13,3,2.42,1.78.46,1.74.63,1.58,1.3-.34,1.45-1.71,1.83-3.2,2.1l-.93.18c-1.65.32-3.36.65-3.75,2.67-.24,1.31.9,2,1.59,2.37a4.56,4.56,0,0,1,.67.44l-.05.1c-.31.51-1.34,1.33-4.65,1.45.26-1.27.58-2.93,1-5.12,1.36-7.82,5.22-17.63,6.87-21.81.94-2.38.94-2.38.69-2.62a.4.4,0,0,0-.24-.08c-.93,0-7.66,14.54-9.34,24.12-.43,2.26-.69,4-.86,5.25-3.11-1-3.73-2.14-3.81-2.77a.89.89,0,0,1,0-.37,2.78,2.78,0,0,1,.88-.26c.76-.15,2-.39,2.28-1.69.38-2-.89-3-2.11-4l-.68-.56-.14-.12C310.9,288.73,309.8,287.6,310.4,285.52Z" transform="translate(-301.34 -165.79)"/><path class="a" d="M504.79,258.57l-.1.14a3.12,3.12,0,0,1-.73.72.77.77,0,0,0,.87,1.27,4.66,4.66,0,0,0,1.1-1.08c.12-.16.21-.29.28-.41a6.2,6.2,0,0,0,1.83.29,4.26,4.26,0,0,0,4.29-2.91,1.84,1.84,0,0,0-.51-2,.78.78,0,0,0-.13-.06,7.39,7.39,0,0,0,.27-.73,6.65,6.65,0,0,0-.31-4.84,2.78,2.78,0,0,0-1-1.16.91.91,0,0,0-.6-.69.94.94,0,0,0-.93.21c-1.64-.13-3.79,1.77-4.54,4.15a7.63,7.63,0,0,0-.19.75.7.7,0,0,0-.15,0,1.82,1.82,0,0,0-1.56,1.34,4,4,0,0,0,.53,3.51A5.22,5.22,0,0,0,504.79,258.57Zm1.21-6.62c.62-2,2.4-3.25,3-3.07a.82.82,0,0,0,.42,0,.86.86,0,0,0,.36.22,1.11,1.11,0,0,1,.5.56,5.17,5.17,0,0,1,.21,3.66,5.61,5.61,0,0,1-.9,1.72h-.18a6.26,6.26,0,0,1-1.83-.29,6.13,6.13,0,0,1-1.82-.92A5.7,5.7,0,0,1,506,251.94Zm-2,2.43a7.09,7.09,0,0,0,3.09,1.89,7.84,7.84,0,0,0,2.29.36,5.54,5.54,0,0,0,1.32-.15A2.8,2.8,0,0,1,508,258a4.69,4.69,0,0,1-1.4-.22,4.07,4.07,0,0,1-2.2-1.54A2.52,2.52,0,0,1,504,254.37Z" transform="translate(-301.34 -165.79)"/><path class="a" d="M499,264.41l.48-.13a4.76,4.76,0,0,0,1.37-.69.77.77,0,1,0-.91-1.24,3.21,3.21,0,0,1-.92.47l-.18.05a4.39,4.39,0,0,0-4.12-3.67,1.81,1.81,0,0,0-1.7,1,.71.71,0,0,0,0,.16,7.72,7.72,0,0,0-.78-.06c-2.51,0-5,1.36-5.38,3a.9.9,0,0,0,0,1.6,2.79,2.79,0,0,0,.77,1.37,6.66,6.66,0,0,0,4.48,1.84h.17l.6,0a.75.75,0,0,0,0,.15,1.83,1.83,0,0,0,1.72,1.12h.11C497.06,269.36,498.88,267.28,499,264.41ZM492,266.57a5.17,5.17,0,0,1-3.4-1.37,1.13,1.13,0,0,1-.37-.65.82.82,0,0,0-.09-.41.79.79,0,0,0,.1-.4c0-.64,1.83-1.9,3.86-1.86a5.6,5.6,0,0,1,1.92.39,6.17,6.17,0,0,1,.28,2,6.06,6.06,0,0,1-.38,2A5.66,5.66,0,0,1,492,266.57Zm2.89,1.23a7,7,0,0,0,1-3.49,7.08,7.08,0,0,0-.8-3.53c1.42.25,2.39,1.68,2.34,3.57S496.34,267.62,494.92,267.8Z" transform="translate(-301.34 -165.79)"/><path class="a" d="M507.39,312.87a3.94,3.94,0,0,0,2.07.59,5.12,5.12,0,0,0,4.26-2.67l.48.12a4.75,4.75,0,0,0,1,.11,4.58,4.58,0,0,0,.53,0,.77.77,0,1,0-.18-1.53,3.17,3.17,0,0,1-1-.05l-.18,0a5.21,5.21,0,0,0,.22-2.22,4,4,0,0,0-1.93-3,2,2,0,0,0-1-.3,1.73,1.73,0,0,0-1,.33.73.73,0,0,0-.1.13,7.73,7.73,0,0,0-.64-.44c-2.13-1.28-5-1.29-6.14-.09a.9.9,0,0,0-.83,1.37,2.78,2.78,0,0,0,0,1.57,6.66,6.66,0,0,0,3,3.83c.22.13.45.25.68.36a.72.72,0,0,0-.06.13A1.84,1.84,0,0,0,507.39,312.87Zm5.65-5.53a4.1,4.1,0,0,1-.63,2.62c-.94,1.56-2.58,2.32-3.89,1.76a7,7,0,0,0,2.57-2.55,7.09,7.09,0,0,0,1.06-3.47A2.52,2.52,0,0,1,513,307.34Zm-8.68-1a1.12,1.12,0,0,1,0-.75.82.82,0,0,0,.13-.4.76.76,0,0,0,.29-.3c.33-.54,2.52-.75,4.28.3a5.72,5.72,0,0,1,1.48,1.27,6.26,6.26,0,0,1-2.09,3.46,5.66,5.66,0,0,1-1.8-.71A5.18,5.18,0,0,1,504.35,306.34Z" transform="translate(-301.34 -165.79)"/><path class="a" d="M524,303.22a.71.71,0,0,0-.12-.1,1.65,1.65,0,0,0-.7-.15,1.88,1.88,0,0,0-1.31.55,4,4,0,0,0-1.28,2.84,5.08,5.08,0,0,0,.68,2.61l-.16.07a3.13,3.13,0,0,1-1,.27.77.77,0,0,0,.08,1.54h.08a4.67,4.67,0,0,0,1.48-.4l.45-.22A5.44,5.44,0,0,0,526,312a4,4,0,0,0,2.76-1.1,1.84,1.84,0,0,0,.53-2,.75.75,0,0,0-.08-.12,7.47,7.47,0,0,0,.59-.5,6.66,6.66,0,0,0,2.11-4.37,2.78,2.78,0,0,0-.34-1.52.92.92,0,0,0-.18-.9.94.94,0,0,0-.91-.27c-1.37-.93-4.17-.32-6,1.39A7.67,7.67,0,0,0,524,303.22Zm-.7,5.92a3.94,3.94,0,0,1-1.17-2.74,2.46,2.46,0,0,1,.53-1.47,7.44,7.44,0,0,0,4.82,5.12C526.26,310.87,524.5,310.47,523.25,309.14Zm6.39-6.58a.82.82,0,0,0,.36.25.86.86,0,0,0,.21.37,1.1,1.1,0,0,1,.16.74,5.16,5.16,0,0,1-1.62,3.29,5.57,5.57,0,0,1-1.61,1.07,6.24,6.24,0,0,1-2.77-2.94,5.73,5.73,0,0,1,1.18-1.55C527,302.39,529.22,302.13,529.64,302.57Z" transform="translate(-301.34 -165.79)"/><path class="a" d="M506,352.48a1.86,1.86,0,0,0-1.6-1h-.21a.74.74,0,0,0-.15.06c-.11-.23-.22-.46-.35-.69-1.25-2.15-3.73-3.53-5.33-3.06a.92.92,0,0,0-.93,0,.93.93,0,0,0-.45.82,2.77,2.77,0,0,0-.77,1.36,6.65,6.65,0,0,0,.75,4.79,7.67,7.67,0,0,0,.42.65.78.78,0,0,0-.12.09,1.83,1.83,0,0,0-.06,2.05,4.08,4.08,0,0,0,3.66,2,5.85,5.85,0,0,0,2.89-.81c.1.1.21.21.36.34a4.72,4.72,0,0,0,1.3.81.76.76,0,0,0,.29.06.77.77,0,0,0,.29-1.49,3.17,3.17,0,0,1-.88-.54l-.14-.12A4.36,4.36,0,0,0,506,352.48Zm-8.31-2.09a1.12,1.12,0,0,1,.37-.66.82.82,0,0,0,.3-.28.77.77,0,0,0,.4-.12c.54-.31,2.57.56,3.59,2.33a5.72,5.72,0,0,1,.68,1.83,6.17,6.17,0,0,1-1.57,1.29,6,6,0,0,1-2,.7,5.66,5.66,0,0,1-1.21-1.47A5.17,5.17,0,0,1,497.74,350.39Zm5.3,7.06a4.33,4.33,0,0,1-2.14.62,2.58,2.58,0,0,1-2.11-1,7.45,7.45,0,0,0,6.09-3.51C505.47,355.09,504.45,356.63,503,357.45Z" transform="translate(-301.34 -165.79)"/><path class="a" d="M523.11,358.46c-.74-1.47-3.48-2.31-5.91-1.71a7.46,7.46,0,0,0-.74.23.79.79,0,0,0-.06-.15,1.91,1.91,0,0,0-2-.63,4,4,0,0,0-2.72,2.28,5.2,5.2,0,0,0-.44,2.19h-.18a3,3,0,0,1-1-.25.77.77,0,0,0-.63,1.41,4.62,4.62,0,0,0,1.49.38l.49,0h0c.61,2.38,2.38,4,4.43,4a4,4,0,0,0,1-.13,1.84,1.84,0,0,0,1.44-1.48.74.74,0,0,0,0-.15,7.53,7.53,0,0,0,.76-.14,6.66,6.66,0,0,0,4-2.79,2.78,2.78,0,0,0,.45-1.5.91.91,0,0,0,.28-.87A.94.94,0,0,0,523.11,358.46ZM513,361.81a4.07,4.07,0,0,1,.17-2.68,2.52,2.52,0,0,1,1.33-1.31,7.44,7.44,0,0,0,1.71,6.82C514.72,364.8,513.42,363.62,513,361.81Zm8.76-1.09a5.18,5.18,0,0,1-3,2.08,5.64,5.64,0,0,1-1.93.15,6.29,6.29,0,0,1-1-3.9,5.7,5.7,0,0,1,1.79-.81c2-.49,4,.34,4.17.94a.81.81,0,0,0,.19.38.83.83,0,0,0,0,.42A1.12,1.12,0,0,1,521.73,360.72Z" transform="translate(-301.34 -165.79)"/><path class="a" d="M473.23,394.82l-.06-.17a4.36,4.36,0,0,0,3.51-4.19,1.82,1.82,0,0,0-1.11-1.73.73.73,0,0,0-.16,0,7.62,7.62,0,0,0,0-.78c0-2.49-1.54-4.92-3.16-5.27a1,1,0,0,0-.78-.48,1,1,0,0,0-.81.49,2.77,2.77,0,0,0-1.34.81,6.66,6.66,0,0,0-1.68,4.55c0,.26,0,.52.05.77a.68.68,0,0,0-.14,0,1.83,1.83,0,0,0-1.06,1.76c0,2.44,2.2,4.28,5,4.28h.06c0,.14.08.28.15.47a4.67,4.67,0,0,0,.75,1.34.77.77,0,0,0,1.2-1A3.13,3.13,0,0,1,473.23,394.82Zm-2.77-10.25a1.12,1.12,0,0,1,.64-.4.83.83,0,0,0,.41-.1.79.79,0,0,0,.37.09h0c.64,0,2,1.75,2,3.79a5.65,5.65,0,0,1-.32,1.93,6.45,6.45,0,0,1-2.06.36,6.09,6.09,0,0,1-1.94-.3,5.62,5.62,0,0,1-.37-1.92A5.17,5.17,0,0,1,470.45,384.57Zm-2.37,6.38a7.09,7.09,0,0,0,3.52.84h0a7,7,0,0,0,3.5-.93c-.2,1.43-1.59,2.44-3.48,2.47h-.07C470,393.32,468.33,392.51,468.08,390.95Z" transform="translate(-301.34 -165.79)"/><path class="a" d="M484.09,400.22a7.35,7.35,0,0,0-.76-.16.73.73,0,0,0,0-.16,1.82,1.82,0,0,0-1.39-1.5,4.09,4.09,0,0,0-1.07-.15,4.52,4.52,0,0,0-3.87,2.5l-.14-.1a3.14,3.14,0,0,1-.75-.71.77.77,0,1,0-1.23.93,4.71,4.71,0,0,0,1.12,1.06l.42.26a5.5,5.5,0,0,0,.41,4.12,4,4,0,0,0,2.45,1.89,2.13,2.13,0,0,0,.56.08,1.79,1.79,0,0,0,1.41-.67.78.78,0,0,0,.05-.13,7.39,7.39,0,0,0,.73.24,6.92,6.92,0,0,0,1.81.24,6.18,6.18,0,0,0,3-.73,2.78,2.78,0,0,0,1.12-1.09.93.93,0,0,0,.68-.64.94.94,0,0,0-.25-.9C488.49,403,486.5,400.88,484.09,400.22Zm-4.75,6.38a2.45,2.45,0,0,1-1.16-1,4,4,0,0,1-.25-3,3.35,3.35,0,0,1,3-2.77l.3,0a7.17,7.17,0,0,0-1.78,3.16A7,7,0,0,0,479.34,406.6Zm7.51-1.6a.83.83,0,0,0-.2.37,1.12,1.12,0,0,1-.55.53,5.18,5.18,0,0,1-3.65.34,5.61,5.61,0,0,1-1.76-.84,6.11,6.11,0,0,1,.21-2,6.29,6.29,0,0,1,.84-1.86,5.75,5.75,0,0,1,1.94.19c2,.54,3.34,2.26,3.18,2.86A.82.82,0,0,0,486.85,405Z" transform="translate(-301.34 -165.79)"/><path class="a" d="M465.71,396.3a6.09,6.09,0,0,0-5.28,3.44c-.66,1.22-1.25,1.81-1.78,1.81a1.17,1.17,0,0,1-.33-.05,9.62,9.62,0,0,1,.12-1.69c.2-1.58.42-3.37-.59-4.6a3.05,3.05,0,0,0-2.19-1.09c-3.9-.53-6.22,1.83-6.24,6.3V401c0,.85,0,2.85-.43,3.17a4.25,4.25,0,0,1-.53-1.31c-.37-1.23-1-3.29-3.17-3.29a4,4,0,0,0-1.09.16c-3,.87-3.48,3.84-3.69,5.28l-.13.87c-.19,1.37-.3,1.81-.52,2l-.26-.4a3,3,0,0,0-2.43-1.8,2.64,2.64,0,0,0-1.42.45c-2.27,1.46-2.37,5.22-2.33,7.09-5.12.94-5.09,1.34-5.07,1.69a.52.52,0,0,0,0,.09.44.44,0,0,0,0,.17c.12.37.6.4,1.12.4a36.94,36.94,0,0,0,4.24-.4c1.21,3.57,2.92,5.51,5.11,5.74l.43,0c2.29,0,2.59-2,2.72-2.9,0-.14.05-.33.08-.48h0c.42,0,.82.43,1.54,1.25.21.24.44.5.68.75l.12.13a6.46,6.46,0,0,0,4.78,2.48,6.32,6.32,0,0,0,2-.36,3.58,3.58,0,0,0,2.29-1.81,4.24,4.24,0,0,0-.36-3.42,4.79,4.79,0,0,1-.39-1.16.5.5,0,0,1,.32-.12c.65,0,1.77,1.06,2.58,1.83l.59.55a7.35,7.35,0,0,0,4.91,2.07,6.7,6.7,0,0,0,5.42-3,3.3,3.3,0,0,0,.66-2.77c-.41-1.55-2-2.33-3.46-3a9.52,9.52,0,0,1-1.44-.79c.32-.69.89-1.11,2.43-1.11l.62,0a6,6,0,0,0,5.74-9.58A6.73,6.73,0,0,0,465.71,396.3Zm4,8.7a3.91,3.91,0,0,1-3.63,1.88l-.46,0-.77,0a4.54,4.54,0,0,0-4.69,2.81c-.69,1.87,1.26,2.81,2.69,3.49.83.4,2.08,1,2.21,1.51.07.25-.17.64-.29.81a4.51,4.51,0,0,1-3.55,2,5.06,5.06,0,0,1-3.34-1.46l-.56-.53c-1.28-1.21-2.6-2.46-4.17-2.46a2.81,2.81,0,0,0-1.72.59c-1.49,1.14-.78,2.86-.36,3.89.24.57.53,1.29.39,1.58a1.68,1.68,0,0,1-.93.57,4,4,0,0,1-1.29.23,4.24,4.24,0,0,1-3.07-1.73L446,418c-.23-.24-.44-.48-.64-.71-.92-1-1.79-2-3.28-2a3.4,3.4,0,0,0-.75.08c-1.32.28-1.52,1.58-1.64,2.36a2.92,2.92,0,0,1-.22.9,1,1,0,0,1-.4,0c-.81-.08-2-.83-3-3.77l1.85-.29c9.89-1.74,23.89-8.41,24.13-9.14a.38.38,0,0,0,0-.17.36.36,0,0,0,0-.12.37.37,0,0,0-.07-.1.39.39,0,0,0-.29-.13c-.11,0-.11,0-1.22.44-3.56,1.41-14.38,5.68-22.93,7.18l-1.81.29c0-3.37.77-4.42,1.26-4.73l.13-.08a4.17,4.17,0,0,1,.51.71c.47.74,1.11,1.83,2.46,1.53,2.08-.47,2.33-2.28,2.58-4l.13-.85c.23-1.54.55-3,2-3.38.69-.19.89-.19,1.41,1.56.36,1.19.84,2.81,2.54,2.94a2.3,2.3,0,0,0,1.91-.67c1.06-1.07,1.05-3.05,1-4.8v-.6c0-4.07,2.09-4.07,2.86-4.07a5.91,5.91,0,0,1,.8.06c.48,0,.61.19.65.25.38.47.21,1.85.09,2.86-.2,1.6-.42,3.42,1.11,4a3.66,3.66,0,0,0,1.4.29c1.95,0,3.11-1.72,3.81-3a3.8,3.8,0,0,1,3.25-2.24,4.48,4.48,0,0,1,3.57,2.26A4,4,0,0,1,469.71,405Z" transform="translate(-301.34 -165.79)"/><path class="a" d="M506.12,375.75c-.42,0-.85,0-1.26,0a11.26,11.26,0,0,1-1.61,0c-.06-.67.21-1.33,2.27-2.26a6.46,6.46,0,0,0,3.76-5.66,6.06,6.06,0,0,0-3.51-5.33c-2.78-1.43-5.85-1.13-7.6.7a6.07,6.07,0,0,0-1.54,4.59c0,2-.67,2.35-1.08,2.43a8.73,8.73,0,0,1-.68-1.48c-.64-1.62-1.51-3.85-3.74-3.85a3.64,3.64,0,0,0-1.39.29,5,5,0,0,0-3.09,2.88c-.58,1.55-.31,3.42.82,5.57l.22.39c.34.61,1.36,2.44,1.13,3a6,6,0,0,1-1-.83,4.46,4.46,0,0,0-2.93-1.64,2.9,2.9,0,0,0-2.16,1.07c-2.26,2.21-1.19,5.05-.73,6.27l.32.87c.43,1.13.55,1.57.48,1.82l-.34-.17a4.06,4.06,0,0,0-1.87-.61,2.26,2.26,0,0,0-2,1.3c-1.48,2.53.74,6.23,1.56,7.56-1.32,1.31-1.28,1.45-1.21,1.67a.41.41,0,0,0,.14.2.45.45,0,0,0,.1.13.76.76,0,0,0,.35.11,4.12,4.12,0,0,0,1.75-.87c1.12,1,3.26,2.7,5.52,2.7a4.21,4.21,0,0,0,1.54-.29c2.48-1,1.63-3.22,1.31-4-.06-.14-.13-.33-.17-.47a.57.57,0,0,1,.34-.1,5.93,5.93,0,0,1,1.58.43l.85.29.21.07a8.57,8.57,0,0,0,2.77.54,5.49,5.49,0,0,0,4.19-1.93,3.62,3.62,0,0,0,1-2.7,4.27,4.27,0,0,0-2-2.75c-.32-.25-.84-.67-.88-.87s.12-.32.72-.32a11,11,0,0,1,2.44.46l.89.23a8.29,8.29,0,0,0,2.08.28c3.35,0,5.77-2.29,6.31-6a3.19,3.19,0,0,0-.64-2.63A4.17,4.17,0,0,0,506.12,375.75Zm1.6,3.4c-.46,3.13-2.46,4.59-5.53,3.79l-.86-.22a12.44,12.44,0,0,0-3-.54,2.82,2.82,0,0,0-2.88,1.8c-.66,1.71.7,2.79,1.61,3.51.47.38,1.06.85,1.1,1.18a1.59,1.59,0,0,1-.45.94,3.19,3.19,0,0,1-2.44,1.13,6.51,6.51,0,0,1-2-.42l-.23-.08-.79-.27a7.17,7.17,0,0,0-2.36-.57,3,3,0,0,0-2.11.88c-1,.9-.5,2.12-.21,2.85a3.46,3.46,0,0,1,.27.88.8.8,0,0,1-.28.17c-1.06.41-2.53-.18-4.32-1.7,1.06-.87,2.33-2,3.81-3.33,7.43-6.62,15.95-19.62,15.81-20.37a.4.4,0,0,0-.25-.3l-.14,0c-.21,0-.21,0-.89.92-6.18,8.21-11.54,14.36-15.94,18.26-1.57,1.44-2.76,2.54-3.68,3.41-1.82-3.12-1.51-4.35-1.27-4.77l.07-.13a4,4,0,0,1,.74.34,3.55,3.55,0,0,0,1.63.54,1.76,1.76,0,0,0,1.22-.49c1.45-1.4.84-3,.25-4.57l-.33-.87c-.53-1.39-.91-2.73.23-3.85.24-.26.41-.35.49-.35.3,0,.91.59,1.32,1a4,4,0,0,0,2.63,1.5,2.16,2.16,0,0,0,1-.25,2.4,2.4,0,0,0,1.23-1.46c.44-1.47-.53-3.2-1.38-4.73l-.2-.36a4.76,4.76,0,0,1-.69-3.67,2.81,2.81,0,0,1,1.79-1.54,1.44,1.44,0,0,1,.52-.13c.64,0,1.16,1.32,1.58,2.38.55,1.39,1.17,3,2.69,3h.22c2.15-.28,3.26-1.87,3.31-4.79a3.89,3.89,0,0,1,.91-3c1.05-1.1,3-1.21,4.86-.24a3.74,3.74,0,0,1,2.25,3.28,4.17,4.17,0,0,1-2.45,3.57c-1.88.84-4,2.16-3.53,4.89.15,1.19,1.11,1.8,2.86,1.8.35,0,.74,0,1.14,0s.77,0,1.15,0c1.09,0,1.42.19,1.52.3A1.12,1.12,0,0,1,507.72,379.15Z" transform="translate(-301.34 -165.79)"/><path class="a" d="M527,323.8a7.07,7.07,0,0,0-3.52,1.45,10.07,10.07,0,0,1-1.39.8c-.35-.58-.49-1.4.69-3.07a6.45,6.45,0,0,0,.72-6.69,6,6,0,0,0-5.49-3h-.28a6.68,6.68,0,0,0-5.8,3.19,5.9,5.9,0,0,0,.34,5.92c1,1.82.78,2.33.39,2.63a9.27,9.27,0,0,1-1.32-1c-1.1-.89-2.36-1.9-3.76-1.9a2.93,2.93,0,0,0-2.4,1.29,5.09,5.09,0,0,0-1.42,4.14c.25,1.62,1.41,3.09,3.46,4.36l.5.31c.71.43,2.37,1.43,2.44,1.94H510a5.85,5.85,0,0,1-1.22-.24,7.81,7.81,0,0,0-2-.34,2.84,2.84,0,0,0-2.85,2.32c-.83,3,1.45,4.9,2.54,5.81l.66.55c1,.82,1.31,1.14,1.36,1.4h-.43a3.32,3.32,0,0,0-2.49.76,2.42,2.42,0,0,0-.63,1.8c.07,2.76,3.42,4.83,4.94,5.69-.5,1.78-.36,2-.26,2.14l.36.19,0,0,.11.08c.21,0,.49,0,1.32-1.78a14.06,14.06,0,0,0,3.17.42,5.1,5.1,0,0,0,4.31-1.77c1.61-2.11-.14-3.58-.8-4.14l-.34-.3c.19-.3.58-.41,1.81-.63l1-.18.18,0c1.33-.26,4.43-.87,5.27-4.63a3.53,3.53,0,0,0-.35-2.86,4.18,4.18,0,0,0-3.06-1.46,6.43,6.43,0,0,1-1.15-.24c-.06-.67,1.22-1.08,2.9-1.53l.77-.21a6.55,6.55,0,0,0,4.57-9.11A3,3,0,0,0,527,323.8Zm-16.6,30,.06-.07s0,0,0,.05Zm17.19-23.28a4.72,4.72,0,0,1-3,2.26l-.74.2c-2,.55-4.83,1.31-4.6,4,.19,1.84,2,2.13,3.09,2.31.56.09,1.33.22,1.51.47,0,.06.16.32,0,1.05-.47,2.1-2,2.56-3.46,2.86l-.2,0-.92.17c-1.52.26-3.09.54-3.71,2.38-.44,1.26.55,2.1,1.14,2.6a3,3,0,0,1,.63.63.81.81,0,0,1-.18.33,3,3,0,0,1-2.47.85,11.13,11.13,0,0,1-2.24-.26c.48-1.18,1.06-2.7,1.78-4.69,3.44-9.9,4.24-25,3.87-25.48l-.32-.17c-.37,0-.37,0-.72,2.41-.64,4.48-2.14,15-4.79,22.58-.71,1.94-1.23,3.44-1.62,4.62-2.84-1.72-3.32-2.9-3.33-3.47a1,1,0,0,1,0-.13,4.52,4.52,0,0,1,.82-.06c.79,0,2.11,0,2.56-1.29.66-2-.71-3.12-2-4.22L508,340c-1.17-1-2.19-2-1.79-3.41.17-.62.36-.62.61-.62a6.15,6.15,0,0,1,1.37.26,7.27,7.27,0,0,0,1.82.32,2.39,2.39,0,0,0,2.42-2.8c-.29-1.5-2-2.54-3.52-3.45l-.48-.29c-1.42-.88-2.25-1.83-2.39-2.74a3,3,0,0,1,.94-2.34c.31-.41.51-.41.59-.41.59,0,1.59.8,2.31,1.39,1,.81,1.87,1.5,2.85,1.5a1.83,1.83,0,0,0,1.08-.34c2.72-1.86,1-4.83.45-5.82a3.62,3.62,0,0,1-.31-3.64,4.42,4.42,0,0,1,3.85-2h.2a3.68,3.68,0,0,1,3.44,1.81,4.13,4.13,0,0,1-.58,4.29c-.59.84-2.38,3.39-.49,6a1.92,1.92,0,0,0,1.54.75,5.72,5.72,0,0,0,2.8-1.2,6,6,0,0,1,2.27-1.09c.11,0,.36,0,.64.64A4.67,4.67,0,0,1,527.56,330.53Z" transform="translate(-301.34 -165.79)"/><path class="a" d="M511.63,265.2a6,6,0,0,0-7.61-.74,6.64,6.64,0,0,0-3.49,5.61,5.91,5.91,0,0,0,3.27,5c1.71,1,1.65,1.7,1.5,2.13h-.13a9.88,9.88,0,0,1-1.48-.19,13.39,13.39,0,0,0-2.26-.27,3.15,3.15,0,0,0-3.45,2.8,5.14,5.14,0,0,0,.9,4.21c1,1.28,2.73,2,5.09,2.14l.45,0c1,0,2.79.11,3.18.53v0a5.34,5.34,0,0,1-1.22.41c-1.29.33-4,1-3.26,4.07s3.74,3.61,5,3.85l.91.18c1.19.23,1.62.35,1.79.55l-.35.21a3.28,3.28,0,0,0-1.79,1.87,2.42,2.42,0,0,0,.36,1.89c1.49,2.41,5.46,2.55,7.12,2.56.41,1.72.57,1.73.84,1.73l.13,0a.72.72,0,0,0,.41-.19c.1-.12.3-.37.24-1.79,3.63-1.07,5.62-2.69,5.89-4.82.34-2.61-1.9-3-2.75-3.2l-.46-.1c0-.36.31-.66,1.32-1.47l.73-.6.13-.11c1-.87,3.47-2.92,2.4-6.62-.64-2.16-1.95-2.62-2.93-2.62a6.3,6.3,0,0,0-2.12.5,3.28,3.28,0,0,1-1.22.29c-.38-.47.56-1.45,1.73-2.58l.66-.64a6.91,6.91,0,0,0,2.28-5.21,6.79,6.79,0,0,0-2.75-4.94,3.41,3.41,0,0,0-2.14-.86c-1.87,0-2.88,1.86-3.69,3.35a10.25,10.25,0,0,1-.84,1.38c-.68-.34-1-1-.79-3.08A6.78,6.78,0,0,0,511.63,265.2Zm1.69,10.53a1.9,1.9,0,0,0,.79.17c1.35,0,2.09-1.35,2.8-2.66.44-.8,1.17-2.14,1.66-2.14a1.21,1.21,0,0,1,.68.35,4.56,4.56,0,0,1,1.9,3.25,4.65,4.65,0,0,1-1.6,3.46l-.63.62c-1.46,1.41-3.65,3.54-1.95,5.66a2.28,2.28,0,0,0,1.89.94,5.81,5.81,0,0,0,2-.47,4.72,4.72,0,0,1,1.33-.36c.14,0,.43,0,.71,1,.6,2.08-.49,3.22-1.67,4.2l-.14.12-.68.56c-1.23,1-2.5,2-2.12,4,.24,1.31,1.52,1.55,2.28,1.7a2.91,2.91,0,0,1,.88.25.8.8,0,0,1,0,.38c-.08.62-.7,1.77-3.81,2.77-.17-1.29-.43-3-.86-5.24-1.67-9.58-8.41-24.12-9.34-24.12a.4.4,0,0,0-.28.11c-.22.22-.22.22.72,2.6,1.65,4.19,5.51,14,6.87,21.82.41,2.19.73,3.85,1,5.12-3.31-.11-4.33-.94-4.64-1.44l-.06-.12a4.63,4.63,0,0,1,.67-.44c.69-.4,1.83-1.06,1.59-2.37-.38-2-2.09-2.35-3.75-2.67l-.93-.18c-1.49-.28-2.86-.65-3.2-2.11-.16-.66-.2-.84,1.58-1.29,1.12-.29,2.82-.72,3-2.46a2.41,2.41,0,0,0-.62-1.78c-1-1.13-3-1.21-4.8-1.27l-.42,0a4.64,4.64,0,0,1-3.4-1.27,3,3,0,0,1-.42-2.39c.09-.58.24-.85,1.16-.85a11.5,11.5,0,0,1,1.86.23,11.26,11.26,0,0,0,1.88.23,2.17,2.17,0,0,0,2.16-1.18c.51-1.18.88-3.43-2.4-5.28a3.62,3.62,0,0,1-2.09-3,4.38,4.38,0,0,1,2.38-3.59,3.67,3.67,0,0,1,4.7.33,4.51,4.51,0,0,1,1,3.48C510.81,271.79,510.58,274.65,513.33,275.74Z" transform="translate(-301.34 -165.79)"/><path class="a" d="M468.16,228.44a6.53,6.53,0,0,0-.36,6.49,6.06,6.06,0,0,0,5.32,2.88c2,0,2.32.63,2.38,1.1a8.85,8.85,0,0,1-1.49.61c-1.43.49-3.06,1.06-3.73,2.46a3.14,3.14,0,0,0,0,2.49c1.14,3.53,4.25,4.62,8.34,2.67l.41-.21a8.57,8.57,0,0,1,2.84-1.09c.12,0,.16,0,.19,0a5.22,5.22,0,0,1-.87,1,4.43,4.43,0,0,0-1.77,2.93,3,3,0,0,0,.94,2.16,4.41,4.41,0,0,0,3.43,1.52,8.82,8.82,0,0,0,2.81-.57l1-.32a4.2,4.2,0,0,1,1.8-.42l-.22.38a3.32,3.32,0,0,0-.65,2.51,2.42,2.42,0,0,0,1.22,1.48,4.16,4.16,0,0,0,2.07.5,11.76,11.76,0,0,0,5.2-1.66c1.09,1.19,1.28,1.21,1.44,1.21a.39.39,0,0,0,.31-.12l.12,0,.1-.22c.08-.17.2-.44-.64-1.81,2.75-2.75,3.74-5.19,2.93-7.24a2.5,2.5,0,0,0-2.39-1.8,4.92,4.92,0,0,0-1.57.33l-.43.14c-.17-.35-.06-.75.42-2,.1-.25.2-.52.31-.8l.06-.16a6,6,0,0,0-1.12-7,3.64,3.64,0,0,0-2.49-1.17,4.07,4.07,0,0,0-3,1.85c-.27.31-.71.82-.91.85-.56-.23-.21-1.55.27-3.13.09-.31.19-.61.26-.88a6.7,6.7,0,0,0-.48-5.49,7.06,7.06,0,0,0-4.87-3.15,3.19,3.19,0,0,0-2.86.72c-1,1.06-1,2.77-1,4.28a10.53,10.53,0,0,1-.06,1.62c-.73,0-1.36-.39-2.21-2.24a5.92,5.92,0,0,0-11-.76Zm2,1.14a3.92,3.92,0,0,1,3.32-2.17,4,4,0,0,1,3.51,2.73c.82,1.79,2,3.61,4.33,3.61l.45,0c2-.18,1.93-2.35,1.92-3.93,0-.9,0-2.26.35-2.63,0,0,.11-.11.42-.11a2.28,2.28,0,0,1,.36,0,4.8,4.8,0,0,1,3.31,2.06,4.48,4.48,0,0,1,.25,3.66c-.08.28-.16.56-.25.86-.59,1.94-1.48,4.88,1,5.93a2.33,2.33,0,0,0,1,.21,3.69,3.69,0,0,0,2.63-1.67c.4-.46.9-1,1.22-1,.1,0,.38.05.88.52,1.52,1.53,1.11,3.07.57,4.51l-.07.18c-.1.27-.2.52-.29.76-.57,1.44-1.16,2.94.09,4.5a1.81,1.81,0,0,0,1.45.67,4.28,4.28,0,0,0,1.36-.29,3.28,3.28,0,0,1,.88-.21.82.82,0,0,1,.19.33c.24.61.26,2-2.1,4.45-.77-1.05-1.82-2.41-3.26-4.18-5.48-6.68-14.94-13.37-18.06-15.57-1.36-1.08-1.44-1.08-1.59-1.08h-.17l-.24.24,0,.18c0,.22,0,.22,1.42,1.21l.1.07c3.62,2.89,11.8,10,16.94,16.29,1.38,1.7,2.45,3,3.27,3.95a9,9,0,0,1-3.63,1.13,1.89,1.89,0,0,1-.92-.19l-.11-.07a4.47,4.47,0,0,1,.38-.73c.4-.68,1.08-1.82.25-2.83a2.67,2.67,0,0,0-2.18-1.07,7.71,7.71,0,0,0-2.39.56l-1,.32a6.79,6.79,0,0,1-2.07.45,2.16,2.16,0,0,1-1.73-.78,1,1,0,0,1-.33-.54c0-.31.63-.91,1-1.31.84-.8,2.11-2,1.39-3.58a2.44,2.44,0,0,0-2.31-1.42,9.53,9.53,0,0,0-3.88,1.34l-.37.19a6.59,6.59,0,0,1-2.7.74c-.76,0-1.83-.21-2.43-2.08-.18-.48-.09-.68-.06-.74.25-.53,1.49-1,2.39-1.27,1.4-.48,3.15-1.09,3.06-2.76s-1-3.44-4.67-3.45a3.74,3.74,0,0,1-3.34-1.7A4.3,4.3,0,0,1,470.18,229.58Z" transform="translate(-301.34 -165.79)"/><path class="a" d="M360.67,340.65l5.2-13.66h-2.94l-2.73,7.09c-.39,1.05-.79,2.28-1.13,3.52h0c-.34-1.26-.71-2.47-1.13-3.57l-2.65-7h-3.13l5.23,13.66Z" transform="translate(-301.34 -165.79)"/><polygon class="a" points="76.2 172.6 71 172.6 71 168.92 75.97 168.92 75.97 166.76 71 166.76 71 163.43 76.2 163.43 76.2 161.19 68.16 161.19 68.16 174.86 76.2 174.86 76.2 172.6"/><polygon class="a" points="86.37 174.86 86.37 163.61 90.16 163.61 90.16 161.19 79.75 161.19 79.75 163.61 83.53 163.61 83.53 174.86 86.37 174.86"/><polygon class="a" points="102.27 163.43 102.27 161.19 94.23 161.19 94.23 174.86 102.27 174.86 102.27 172.6 97.07 172.6 97.07 168.92 102.03 168.92 102.03 166.76 97.07 166.76 97.07 163.43 102.27 163.43"/><path class="a" d="M417.35,334.26l-4.6-7.28H409v13.66h2.76l0-7.15c0-1.26,0-2.1-.08-2.86h0a21.15,21.15,0,0,0,1.39,2.6l4.7,7.41h3.78V327h-2.76l0,6q0,2.64.08,3.94h0A26.13,26.13,0,0,0,417.35,334.26Z" transform="translate(-301.34 -165.79)"/><path class="a" d="M430,338.54a8.37,8.37,0,0,1-3-.53l-.11,2.55a13.08,13.08,0,0,0,2.81.34c3.5,0,5.91-1.82,5.91-4.6,0-4.28-6.09-3.26-6.09-5.6,0-1,.76-1.71,2.5-1.71a9.54,9.54,0,0,1,2.6.4l.11-2.42a16.94,16.94,0,0,0-2.6-.24c-3.6,0-5.6,1.71-5.6,4.28,0,4.44,6,3.18,6,5.6C432.49,338,431.25,338.54,430,338.54Z" transform="translate(-301.34 -165.79)"/><polygon class="a" points="139.19 161.19 139.19 174.86 142.03 174.86 142.03 168.45 147.1 174.86 150.86 174.86 144.97 167.76 150.57 161.19 147.07 161.19 142.03 167.29 142.03 161.19 139.19 161.19"/><path class="a" d="M458.28,338H464l1,2.65h3.16L463,327h-3.34l-5.18,13.66h2.84Zm2.15-5.91a20.69,20.69,0,0,0,.69-2.13h0c.19.63.45,1.45.71,2.16l1.42,3.84H459Z" transform="translate(-301.34 -165.79)"/><path class="a" d="M476.67,326.91c-1.6,0-3.31.05-4.47.08v13.66H475v-4.5c.34,0,.87.05,1.21.05,3.47,0,5.86-1.89,5.86-4.89C482.11,328.56,480.14,326.91,476.67,326.91Zm-.42,7a5.76,5.76,0,0,1-1.21-.11v-4.62c.37,0,.87,0,1.39,0,1.76,0,2.65,1,2.65,2.31C479.09,333.11,478,333.95,476.25,333.95Z" transform="translate(-301.34 -165.79)"/><path class="a" d="M360.71,363.68a6.89,6.89,0,0,0,7.17-7.2c0-4.62-2.76-6.93-6.73-6.93a6.91,6.91,0,0,0-7.09,7.2C354.07,360.84,356.27,363.68,360.71,363.68ZM361,352c2.34,0,3.86,1.6,3.86,4.65s-1.79,4.52-4,4.52c-2.68,0-3.78-2-3.78-4.65C357.09,353.59,358.9,352,361,352Z" transform="translate(-301.34 -165.79)"/><path class="a" d="M377.9,363.63a11,11,0,0,0,3.68-.6l-.24-2.52a6.76,6.76,0,0,1-2.86.63c-2.71,0-4.28-1.55-4.28-4.5,0-2.71,1.45-4.65,4.12-4.65a9.31,9.31,0,0,1,2.89.47l.26-2.5a11.45,11.45,0,0,0-2.94-.37c-5.12,0-7.36,3.44-7.36,7.3C371.17,361.05,373.43,363.63,377.9,363.63Z" transform="translate(-301.34 -165.79)"/><polygon class="a" points="96.82 197.66 96.82 183.99 93.98 183.99 93.98 189.43 87.54 189.43 87.54 183.99 84.71 183.99 84.71 197.66 87.54 197.66 87.54 191.88 93.98 191.88 93.98 197.66 96.82 197.66"/><polygon class="a" points="111.81 191.24 116.88 197.66 120.64 197.66 114.75 190.56 120.35 183.99 116.86 183.99 111.81 190.09 111.81 183.99 108.97 183.99 108.97 197.66 111.81 197.66 111.81 191.24"/><path class="a" d="M430.52,363.68a6.89,6.89,0,0,0,7.17-7.2c0-4.62-2.76-6.93-6.73-6.93a6.91,6.91,0,0,0-7.1,7.2C423.87,360.84,426.08,363.68,430.52,363.68Zm.26-11.67c2.34,0,3.86,1.6,3.86,4.65s-1.79,4.52-4,4.52c-2.68,0-3.78-2-3.78-4.65C426.89,353.59,428.7,352,430.78,352Z" transform="translate(-301.34 -165.79)"/><path class="a" d="M446,356l4.7,7.41h3.78V349.78h-2.76l0,6q0,2.64.08,3.94h0a26.08,26.08,0,0,0-1.5-2.68l-4.6-7.28h-3.79v13.67h2.76l0-7.15c0-1.26,0-2.1-.08-2.86h0A21,21,0,0,0,446,356Z" transform="translate(-301.34 -165.79)"/><path class="a" d="M462.75,361.34a8.37,8.37,0,0,1-3-.53l-.11,2.55a13.08,13.08,0,0,0,2.81.34c3.5,0,5.91-1.82,5.91-4.6,0-4.28-6.09-3.26-6.09-5.6,0-1,.76-1.71,2.5-1.71a9.52,9.52,0,0,1,2.6.4l.11-2.42a17.08,17.08,0,0,0-2.6-.24c-3.6,0-5.6,1.71-5.6,4.28,0,4.44,6,3.18,6,5.6C465.27,360.77,464,361.34,462.75,361.34Z" transform="translate(-301.34 -165.79)"/><polygon class="a" points="176.38 197.66 176.38 186.41 180.17 186.41 180.17 183.99 169.76 183.99 169.76 186.41 173.54 186.41 173.54 197.66 176.38 197.66"/><path class="a" d="M371.8,311.06l-.34,0c-7.17-.89-7.21-2.31-7.39-8.27V292.39l12,13c4.57,5,7.09,7.77,13.74,7.77a34.56,34.56,0,0,0,4.19-.29l.33,0,0-1.6-.38,0c-4-.17-6.18-2.44-10.52-6.95l-1.91-2-11.68-13,4.7-4.81,1-1.05c4-4.15,8.43-8.86,14.4-9.49l.35,0v-1.6H374.5V274l.35,0c1.57.17,2.41.53,2.65,1.15.45,1.16-.94,3.52-4.24,7.23l-9.18,9.79v-9.85c.17-6,.21-7.41,5.83-8.29l.33-.05v-1.59H351V274l.33,0c6.65.89,6.69,2.31,6.87,8.27v20.44c-.17,6-.21,7.4-6.87,8.29l-.33,0v1.59H371.8Z" transform="translate(-301.34 -165.79)"/><path class="a" d="M424.32,311.06l-.34,0c-7.51-.9-7.79-2.6-7.79-9.67V274.9h3.1c6.86,0,9.66,2.13,11.53,8.76l.1.35,1.49-.32-.74-11.36H394.8l-.72,11.36,1.49.32.1-.35c1.87-6.63,4.67-8.76,11.54-8.76h3.1v26.45c0,7.07-.29,8.77-7.79,9.67l-.34,0v1.6h22.15Z" transform="translate(-301.34 -165.79)"/><path class="a" d="M483.53,274l.33,0v-1.6H463V274l.33,0c7.4,1.07,7.4,2,7.4,8.27v8h-21v-8c0-6.24,0-7.2,7.4-8.27l.33,0v-1.59H436.69V274l.34,0c6.65.89,6.69,2.31,6.87,8.27v20.44c-.17,6-.21,7.4-6.87,8.29l-.34,0v1.59H457.5v-1.59l-.33,0c-7.4-1.07-7.4-2-7.4-8.27v-9.2h21v9.2c0,6.24,0,7.2-7.4,8.27l-.33,0v1.59h20.81v-1.59l-.33,0c-6.65-.89-6.69-2.31-6.87-8.27V282.31C476.84,276.33,476.87,274.91,483.53,274Z" transform="translate(-301.34 -165.79)"/><path class="a" d="M368.46,219.65a4.46,4.46,0,0,0,.31,4.41,4.35,4.35,0,0,0,4.18,1.91c1.78,2.25,4.75,4.93,7.17,4.24a95.3,95.3,0,0,1,36.5-7.12h0a95.33,95.33,0,0,1,36.51,7.12c2.43.69,5.4-2,7.17-4.24a4.35,4.35,0,0,0,4.18-1.91,4.46,4.46,0,0,0,.31-4.41,22.07,22.07,0,0,1,3.22-3.88,4.55,4.55,0,0,0-3.09-7.89,4.8,4.8,0,0,0-.59,0c0-.13-.08-.26-.11-.38a3.8,3.8,0,1,0-3.65-6.65l-.33-.38a3.11,3.11,0,0,0,1-2.25,3.14,3.14,0,0,0-5.71-1.79l-.55-.36a2.85,2.85,0,1,0-5-2.65l-.9-.38a2.54,2.54,0,0,0,.37-1.31,2.59,2.59,0,0,0-5.15-.4l-.58-.18a3.62,3.62,0,0,0-3.47-2.64,3.45,3.45,0,0,0-1.05.17l-.4-.32c0-.06,0-.11,0-.17a3.06,3.06,0,0,0-3.06-3.05,3,3,0,0,0-1.77.58l-.36-.14s0,0,0-.07a2.75,2.75,0,0,0-5.16-1.34l-.65-.12s0-.07,0-.1a2.51,2.51,0,0,0-5-.52l-.74-.05a5.94,5.94,0,0,0-2.72-7.59,7,7,0,0,0-1.71-.56v-4.54h2.55a2.31,2.31,0,0,0,0-2.13h-2.55V166a1.82,1.82,0,0,0-1.07-.26h0a1.82,1.82,0,0,0-1.07.26v2.55H413a2.31,2.31,0,0,0,0,2.13h2.54v4.54a7,7,0,0,0-1.7.56,5.94,5.94,0,0,0-2.71,7.59l-.74.05a2.51,2.51,0,0,0-5,.52s0,.07,0,.1l-.65.12a2.75,2.75,0,0,0-5.16,1.34s0,0,0,.07l-.36.14a3,3,0,0,0-1.77-.58,3.06,3.06,0,0,0-3.06,3.05c0,.06,0,.11,0,.17l-.4.32a3.45,3.45,0,0,0-1.05-.17,3.61,3.61,0,0,0-3.47,2.64l-.58.18a2.59,2.59,0,0,0-5.15.4,2.54,2.54,0,0,0,.37,1.31l-.91.38a2.85,2.85,0,1,0-5,2.65l-.55.36a3.14,3.14,0,1,0-4.75,4l-.33.38a3.8,3.8,0,1,0-3.65,6.65c0,.13-.08.26-.11.38a4.8,4.8,0,0,0-.59,0,4.55,4.55,0,0,0-3.09,7.89A22.09,22.09,0,0,1,368.46,219.65Zm3.94,4.74a2.8,2.8,0,1,1,2.8-2.8A2.8,2.8,0,0,1,372.4,224.39Zm44.22-9.16a2.78,2.78,0,1,1,2.79-2.78A2.78,2.78,0,0,1,416.62,215.23Zm0-21.67a2.76,2.76,0,1,1-2.76,2.76A2.77,2.77,0,0,1,416.62,193.57Zm-2.15-3.06a2.16,2.16,0,1,1,2.15,2.15A2.15,2.15,0,0,1,414.47,190.5Zm2.14,9.66a3.42,3.42,0,0,1,2.58,5.68,4.25,4.25,0,0,0-5.14,0,3.42,3.42,0,0,1,2.57-5.68Zm44.24,24.23a2.8,2.8,0,1,1,2.8-2.8A2.8,2.8,0,0,1,460.85,224.39Zm4.08-15a3,3,0,0,1,3,3,4.25,4.25,0,0,1-2,3,4.28,4.28,0,0,0-3.28-1.53l-.34,0a3,3,0,0,1-.41-1.48A3,3,0,0,1,464.93,209.43Zm-2.43-7.53a2.27,2.27,0,1,1-2.28,2.27A2.27,2.27,0,0,1,462.5,201.9Zm-4.44-5.24a1.6,1.6,0,1,1-1.59,1.6A1.6,1.6,0,0,1,458.06,196.66Zm-5.42-3.56a1.32,1.32,0,1,1-1.31,1.31A1.32,1.32,0,0,1,452.65,193.1Zm-5.81-2.39a1,1,0,1,1-1,1A1,1,0,0,1,446.84,190.71Zm-3.42,3.15c8.77,2.8,13.32,7,15.4,11.27,1.69,3.88,1.4,4.79,1.54,7.26a6.61,6.61,0,0,0,.44,1.95,4.12,4.12,0,0,0-2.27,2.74l-.25-.17a4.23,4.23,0,0,0-2.7-1,4.3,4.3,0,1,0,1.7,8.25,4.4,4.4,0,0,0,.7.76,4.35,4.35,0,0,1-5.45,2.07,6.91,6.91,0,0,1-4.14-4.54,6.9,6.9,0,0,1-5.93,1.62A4.36,4.36,0,0,1,439,219c0-.22.25-1.08.35-1.39a4.22,4.22,0,1,0,5-4.94,4.18,4.18,0,0,0-.78,0l.15-.42a4.2,4.2,0,0,0,0-1.48,4.89,4.89,0,0,0,1.15-9,4.06,4.06,0,0,0-1.65-7.58C443.29,194.1,443.36,194,443.42,193.86Zm-3.08,13.42a4.14,4.14,0,0,0-1-.07,3.35,3.35,0,1,1,3.87,2.1A4.2,4.2,0,0,0,440.35,207.28Zm5-9a2.55,2.55,0,1,1-2.54-2.55A2.55,2.55,0,0,1,445.38,198.26Zm-5.14-8.18a2.07,2.07,0,1,1-2.07,2.07A2.08,2.08,0,0,1,440.24,190.08Zm-1.36,21.75a2.78,2.78,0,1,1-2.78,2.78A2.78,2.78,0,0,1,438.88,211.83Zm-3.14-25.12a1.51,1.51,0,1,1-1.51,1.51A1.51,1.51,0,0,1,435.74,186.71Zm-4.89-2.39a1.22,1.22,0,1,1-1.21,1.22A1.22,1.22,0,0,1,430.86,184.32ZM425.31,183a1,1,0,1,1-1,1A1,1,0,0,1,425.31,183Zm11,24,.62,1.08a4.21,4.21,0,0,0-1.55,2.52s0,.23,0,.44a4,4,0,0,0-.71-.28,4.23,4.23,0,1,0,2.72,6.44c0,.33-.16,1.2-.2,1.42a4.36,4.36,0,0,1-5.12,3.44,6.63,6.63,0,0,1-4.74-3.71,6.67,6.67,0,0,1-5.36,2.76,4.37,4.37,0,0,1-4.37-4.36c0-.23,0-1.11.07-1.44a4.23,4.23,0,1,0,3.92-5.8,4.57,4.57,0,0,0-.77.15l.07-.45a4.31,4.31,0,0,0-.18-1.21l1.51-1s-.27-14.31-2.83-20.7l.25-.14C440.57,187.38,438.77,201.91,436.31,207ZM421,180.71c0,.09,0,.18,0,.27a4.26,4.26,0,0,1-.7,2.33l-1.42,0a2.29,2.29,0,0,0-1.14-2.58Zm-3.32-3.93a4.45,4.45,0,0,1,2.87,2.3h-2.87Zm-1.06,5a1,1,0,1,1-1,1A1,1,0,0,1,416.62,181.77Zm0,2.86a1.45,1.45,0,1,1-1.45,1.45A1.46,1.46,0,0,1,416.62,184.62Zm-1.06-7.85v2.3H412.7A4.45,4.45,0,0,1,415.56,176.78Zm-3.3,3.93h3.23a2.3,2.3,0,0,0-1.13,2.58l-1.41,0a4.26,4.26,0,0,1-.7-2.33C412.24,180.89,412.25,180.8,412.26,180.71ZM408,183a1,1,0,1,1-1,1A1,1,0,0,1,408,183Zm-5.55,1.31a1.22,1.22,0,1,1-1.22,1.22A1.21,1.21,0,0,1,402.4,184.32Zm-4.89,2.39a1.51,1.51,0,1,1-1.51,1.51A1.51,1.51,0,0,1,397.52,186.71Zm16.08-.51.25.14C411.3,192.74,411,207,411,207l1.51,1a4.31,4.31,0,0,0-.17,1.21l.07.45a4.58,4.58,0,0,0-.77-.15,4.23,4.23,0,1,0,3.91,5.8c0,.33.07,1.21.07,1.44a4.36,4.36,0,0,1-4.36,4.36,6.67,6.67,0,0,1-5.36-2.76,6.63,6.63,0,0,1-4.74,3.71,4.36,4.36,0,0,1-5.12-3.44c0-.22-.17-1.09-.2-1.42a4.22,4.22,0,1,0,2.72-6.44,4,4,0,0,0-.71.28c0-.21,0-.44,0-.44a4.21,4.21,0,0,0-1.55-2.52L397,207C394.49,201.91,392.69,187.38,413.6,186.2Zm-16.44,28.41a2.78,2.78,0,1,1-2.78-2.78A2.78,2.78,0,0,1,397.16,214.61Zm-7.08-5.31a3.37,3.37,0,1,1,3.87-2.1,4.13,4.13,0,0,0-1,.07A4.2,4.2,0,0,0,390.08,209.3ZM393,190.08a2.07,2.07,0,1,1-2.08,2.07A2.07,2.07,0,0,1,393,190.08Zm-2.59,5.63a2.55,2.55,0,1,1-2.55,2.55A2.55,2.55,0,0,1,390.42,195.72Zm-4-5a1,1,0,1,1-1,1A1,1,0,0,1,386.42,190.71Zm-5.81,2.39a1.32,1.32,0,1,1-1.32,1.31A1.32,1.32,0,0,1,380.61,193.1Zm9.22.76c.07.12.13.24.21.35a4.06,4.06,0,0,0-1.65,7.58,4.89,4.89,0,0,0,1.15,9,4.22,4.22,0,0,0,0,1.48l.15.42a4.18,4.18,0,0,0-.78,0,4.23,4.23,0,1,0,5,4.94c.1.32.3,1.17.35,1.39a4.36,4.36,0,0,1-3.44,5.11,6.9,6.9,0,0,1-5.93-1.62,6.91,6.91,0,0,1-4.14,4.54,4.36,4.36,0,0,1-5.45-2.07,4.45,4.45,0,0,0,.7-.76,4.3,4.3,0,1,0,1.7-8.25,4.23,4.23,0,0,0-2.7,1l-.25.17a4.11,4.11,0,0,0-2.27-2.74,6.64,6.64,0,0,0,.44-1.95c.14-2.47-.15-3.38,1.54-7.26C376.52,200.9,381.06,196.66,389.84,193.86Zm-14.64,2.8a1.6,1.6,0,1,1-1.6,1.6A1.6,1.6,0,0,1,375.2,196.66Zm-6.7,7.5a2.27,2.27,0,1,1,2.27,2.27A2.27,2.27,0,0,1,368.49,204.17Zm-.17,5.26a3,3,0,0,1,3,3,3,3,0,0,1-.41,1.48l-.34,0a4.28,4.28,0,0,0-3.28,1.53,4.25,4.25,0,0,1-2-3A3,3,0,0,1,368.33,209.43Z" transform="translate(-301.34 -165.79)"/><path class="a" d="M447.58,242a1,1,0,0,0,.34-1.91,88.79,88.79,0,0,0-31-5.51h-.69a88.75,88.75,0,0,0-30.94,5.51,1,1,0,0,0,.68,1.85,86.78,86.78,0,0,1,30.26-5.39H417a86.78,86.78,0,0,1,30.27,5.39A1,1,0,0,0,447.58,242Z" transform="translate(-301.34 -165.79)"/><path class="a" d="M453.53,236.23l-1.43-3.84-.22-.58-1.85.3A92.72,92.72,0,0,0,418.37,226l-1.75-1-1.74,1a92.71,92.71,0,0,0-31.66,6.13l-1.85-.3-.22.58-1.44,3.84,4.13,2.29,1.33-1.58a89,89,0,0,1,29.34-5.64l2.1,1.2,2.12-1.2a89,89,0,0,1,29.34,5.64l1.33,1.58Zm-70,.36-1.9-1.06.76-2,3.29.54Zm17.4-4.94-3.31.68a1.68,1.68,0,1,1-.68-3.3l3.32-.68a1.69,1.69,0,1,1,.68,3.3Zm15.73-.93-3.46-2,3.47-2,3.48,2Zm21,.3a1.68,1.68,0,0,1-2,1.31l-3.31-.68a1.69,1.69,0,1,1,.68-3.3l3.32.68A1.68,1.68,0,0,1,437.66,231Zm10,3,3.28-.54.76,2-1.9,1.06Z" transform="translate(-301.34 -165.79)"/></svg>