<svg xmlns="http://www.w3.org/2000/svg" viewBox="0 0 250.85 81.1"><defs><style>.a{fill:#231f20;}.b{fill:#82bc00;}</style></defs><title>SLL_logo</title><path class="a" d="M211.57,58.35,212,45.18l-.77-.06a29.91,29.91,0,0,1-1.33,4.82A13.21,13.21,0,0,1,208,53.21a9.89,9.89,0,0,1-4.29,3.13,18,18,0,0,1-6.44,1,13.55,13.55,0,0,1-5.88-1.08,7.08,7.08,0,0,1-3.34-3.39,10.37,10.37,0,0,1-.87-3.41q-.23-2.09-.23-6.36V24.58a23.24,23.24,0,0,1,.39-5,5.29,5.29,0,0,1,3.47-3.89,11,11,0,0,1,2.89-.48V14.5H173.21v.74a10,10,0,0,1,2.84.45,5.67,5.67,0,0,1,2,1.22,5.32,5.32,0,0,1,1.49,2.65,22.9,22.9,0,0,1,.4,5V48.26a23.4,23.4,0,0,1-.37,4.87,5.45,5.45,0,0,1-1.37,2.62,6.64,6.64,0,0,1-5,1.83v.77Z" transform="translate(-15.45 -6.66)"/><path class="a" d="M228.4,47.94a15.39,15.39,0,0,1-1,6.23,6,6,0,0,1-2.1,2.62,5.06,5.06,0,0,1-3,1,3.71,3.71,0,0,1-3-1.38,5.23,5.23,0,0,1-1.17-3.5,6.69,6.69,0,0,1,1.51-4.34A8.56,8.56,0,0,1,221.35,47a33.74,33.74,0,0,1,3.24-1.9,21.38,21.38,0,0,0,3.81-2.54Zm9.3,8.71a2.92,2.92,0,0,1-1.56.35,2.56,2.56,0,0,1-2.63-2.28,21.41,21.41,0,0,1-.26-4.11V38.72a14.15,14.15,0,0,0-.26-3.25,5.11,5.11,0,0,0-2.61-3.08,14.32,14.32,0,0,0-3.6-1.32,17.91,17.91,0,0,0-4.15-.51,18.41,18.41,0,0,0-3.62.37,14,14,0,0,0-3.1.95q-2.32,1.12-2.32,2.76a2.43,2.43,0,0,0,.74,1.81,2.51,2.51,0,0,0,1.83.72,2.32,2.32,0,0,0,2.31-1.51l.8-1.86a4.11,4.11,0,0,1,3.89-2.54,4.83,4.83,0,0,1,2.1.48A4.62,4.62,0,0,1,226.92,33q1.41,1.73,1.41,5.49a7.87,7.87,0,0,1-.39,2.76A3.87,3.87,0,0,1,226.53,43a8.59,8.59,0,0,1-2.23,1.16q-1.33.48-4.13,1.19a21.29,21.29,0,0,0-3.63,1.2,7.59,7.59,0,0,0-2.22,1.59,6.24,6.24,0,0,0-1.7,4.47,5.63,5.63,0,0,0,2.08,4.59,8.59,8.59,0,0,0,5.61,1.7,9.87,9.87,0,0,0,4.86-1.16,21.38,21.38,0,0,0,3.25-2.54,8.51,8.51,0,0,0,2.06,2.57,6.19,6.19,0,0,0,3.8,1.12q4.15,0,5.3-3.37l-.55-.32a5.58,5.58,0,0,1-1.33,1.41" transform="translate(-15.45 -6.66)"/><path class="a" d="M246,35.6a6.81,6.81,0,0,1,2.37-3,5.83,5.83,0,0,1,3.46-1.14,6.12,6.12,0,0,1,3,.82,8.88,8.88,0,0,1,2.69,2.39,13.51,13.51,0,0,1,2.37,4.6A19.45,19.45,0,0,1,260.7,45a16.42,16.42,0,0,1-2.54,9.47,7.57,7.57,0,0,1-6.45,3.72,6.17,6.17,0,0,1-3.31-.9,5.64,5.64,0,0,1-2.19-2.47,15.73,15.73,0,0,1-1-4.2,48.31,48.31,0,0,1-.38-6.32q0-6,1.15-8.73m-1.15-22.39L235,14.56v.77a4.44,4.44,0,0,1,3.84,1.56Q240,18.45,240,22V59.73h1.29q1.25-2.67,2.89-2.67a3.68,3.68,0,0,1,1.32.29l1.8.74a14.17,14.17,0,0,0,5.17.83,13.39,13.39,0,0,0,9.54-3.5q4.3-4,4.3-11T261.8,33.67a12.64,12.64,0,0,0-8.5-3.11,10.77,10.77,0,0,0-5.9,1.57,11.9,11.9,0,0,0-2.57,2.47Z" transform="translate(-15.45 -6.66)"/><path class="a" d="M16.19,58.22a2.12,2.12,0,0,1,2.12-1.54,2.72,2.72,0,0,1,.87.13q.39.13,2.38,1a20,20,0,0,0,8,1.64,14.84,14.84,0,0,0,7.87-2,12.58,12.58,0,0,0,5-5.79A13.82,13.82,0,0,0,43.59,46,12.23,12.23,0,0,0,41,38.2a20.38,20.38,0,0,0-7.54-5.47L28.9,30.54Q22,27.26,22,21.89a7.78,7.78,0,0,1,.5-2.7,7.47,7.47,0,0,1,1.36-2.35,7.07,7.07,0,0,1,5.68-2.44A7.94,7.94,0,0,1,33.9,15.6a11.56,11.56,0,0,1,3.46,3.71,17.53,17.53,0,0,1,1.49,3q.63,1.62,1.49,4.68h.74l-.22-12.76h-.74q-.39,1.64-1.51,1.64a3.57,3.57,0,0,1-1-.18q-.58-.18-2.19-.82A23.77,23.77,0,0,0,32,13.68a12.12,12.12,0,0,0-2.79-.3,11.48,11.48,0,0,0-8.06,3.15,12.37,12.37,0,0,0-3,4.24A12.76,12.76,0,0,0,17,25.9a10.5,10.5,0,0,0,2.76,7.36,13.56,13.56,0,0,0,2.62,2.15A51,51,0,0,0,27.08,38a49.22,49.22,0,0,1,5.16,2.92,10.91,10.91,0,0,1,2.62,2.41,9.82,9.82,0,0,1,1.43,2.92,11.18,11.18,0,0,1,.53,3.34,8.61,8.61,0,0,1-2.41,6.27,8.16,8.16,0,0,1-6.1,2.47q-5.3,0-8.8-5.39a28.79,28.79,0,0,1-3.21-8l-.74,0-.1,13.27Z" transform="translate(-15.45 -6.66)"/><path class="a" d="M65.69,55.62a7,7,0,0,1-5.1,2,8.67,8.67,0,0,1-6.48-2.89,13.1,13.1,0,0,1-2.79-4.56,15.75,15.75,0,0,1-1-5.59,19.39,19.39,0,0,1,1.12-6.36,14.34,14.34,0,0,1,1.71-3.52,8.81,8.81,0,0,1,2.39-2.33A6.2,6.2,0,0,1,59,31.27a4,4,0,0,1,2.44.74,2.72,2.72,0,0,1,.78.9A13.53,13.53,0,0,1,63,34.83q1,3.05,3.08,3.05a2.2,2.2,0,0,0,1.64-.69,2.36,2.36,0,0,0,.67-1.72,3.64,3.64,0,0,0-1.61-2.83,11.46,11.46,0,0,0-7.29-2.09,16,16,0,0,0-6.22,1.19,12.84,12.84,0,0,0-4.8,3.44,14.42,14.42,0,0,0-2.73,4.72,16.37,16.37,0,0,0-1,5.59,13.35,13.35,0,0,0,3.6,9.57Q52,58.93,58.49,58.93a11.55,11.55,0,0,0,6.36-1.51,8.94,8.94,0,0,0,3.44-4.91l-.64-.23a10.14,10.14,0,0,1-2,3.34" transform="translate(-15.45 -6.66)"/><path class="a" d="M68.45,32.39a5.78,5.78,0,0,1,2.22.5A3.4,3.4,0,0,1,72,34.18a5,5,0,0,1,.71,2.16A44.65,44.65,0,0,1,72.85,41v7.9q0,2.81-.15,4.3a6.92,6.92,0,0,1-.5,2.22A3.31,3.31,0,0,1,70.86,57a8.35,8.35,0,0,1-2.76.72v.68H82.3v-.68A6.62,6.62,0,0,1,79,56.36a3.32,3.32,0,0,1-1-1.68,14.14,14.14,0,0,1-.26-3.19l0-2.43V30.56l-9.25,1.16Z" transform="translate(-15.45 -6.66)"/><path class="a" d="M75.12,25.34a3,3,0,1,0-3-3,3,3,0,0,0,3,3" transform="translate(-15.45 -6.66)"/><path class="b" d="M160.72,11.32S165,7.05,164.94,7a18.6,18.6,0,0,0-18.4,6.8c-5.38,6.94-6,16.67-6.14,19,0,0-2.61,0-2.61,0l-3.51,3.71h5.66s-3.15,32.43-3.4,34.19S134.93,88,121.21,83.35c0,0-4.15,3.75-4.11,3.76,6.57,2.34,22.7-.78,24.58-24.26,1.37-17.12,2.69-26.37,2.69-26.37s8.57,0,8.55,0a15.21,15.21,0,0,0-2.35,8.64c0,8.55,6.34,13.86,14.27,13.9,9.52,0,10.9-6.57,11.15-7.68a5.89,5.89,0,0,0-.6-.24c-.74,1.92-2.16,5.64-8.36,5.73-7.7.11-11.93-8.81-10.62-16,0-.06,18.9,0,18.9,0-.2-11-10.86-10.57-12.68-10.25a3,3,0,0,0,0,.72c7.09-1,7.82,6.69,7.82,8.19,0,0-13.88.15-13.87.08.22-1.63,1.1-4.91,2.81-6.45.41-.37-14.65-.2-14.65-.2s.56-6,.75-7.35c.64-4.48,1.1-19.17,15.23-14.21" transform="translate(-15.45 -6.66)"/><path class="b" d="M121.6,58.35,122,45.18l-.77-.06a29.71,29.71,0,0,1-1.33,4.82,13.2,13.2,0,0,1-1.85,3.28,9.89,9.89,0,0,1-4.29,3.13,18,18,0,0,1-6.44,1,13.55,13.55,0,0,1-5.88-1.08,7.08,7.08,0,0,1-3.34-3.39,10.34,10.34,0,0,1-.87-3.41Q97,47.39,97,43.12V24.58a23.32,23.32,0,0,1,.39-5,5.29,5.29,0,0,1,3.47-3.89,11,11,0,0,1,2.89-.48V14.5H83.24v.74a10,10,0,0,1,2.84.45,5.66,5.66,0,0,1,2,1.22,5.3,5.3,0,0,1,1.49,2.65,22.86,22.86,0,0,1,.4,5V48.26a23.4,23.4,0,0,1-.37,4.87,5.46,5.46,0,0,1-1.37,2.62,6.64,6.64,0,0,1-5,1.83v.77Z" transform="translate(-15.45 -6.66)"/><path class="b" d="M123.13,32.39a5.78,5.78,0,0,1,2.22.5,3.4,3.4,0,0,1,1.32,1.29,5,5,0,0,1,.71,2.16,44.66,44.66,0,0,1,.16,4.62v7.9q0,2.81-.14,4.3a7,7,0,0,1-.5,2.22A3.3,3.3,0,0,1,125.54,57a8.35,8.35,0,0,1-2.76.72v.68H137v-.68a6.62,6.62,0,0,1-3.31-1.31,3.32,3.32,0,0,1-1-1.68,14.14,14.14,0,0,1-.26-3.19l0-2.43V30.56l-9.25,1.16Z" transform="translate(-15.45 -6.66)"/><path class="b" d="M129.94,25.34a3,3,0,1,0-3-3,3,3,0,0,0,3,3" transform="translate(-15.45 -6.66)"/></svg>