<svg xmlns="http://www.w3.org/2000/svg" viewBox="0 0 346.14 330.73"><defs><style>.a{fill:#00447c;}</style></defs><title>SU_logo</title><path class="a" d="M142.39,533h-5.16c-.07,6.74-.14,13.42-.14,24.7,0,6,.41,9.36,2.41,11.83s5.43,3.44,10.39,3.44,8.53-1.17,10.73-4.06c2-2.62,2.06-6.74,2.13-13.28l.14-22.63h-6v-4.33h16.65V533h-5.3l-.14,26.08c0,5.5-.62,9.49-3.78,13.35-2.75,3.37-7.84,5.23-14.65,5.23-8.39,0-13-2.13-15.82-6-2.27-3.1-2.68-6.47-2.68-14.52,0-7.84.07-16.79.14-24.15h-5.57v-4.33h16.65Z" transform="translate(-125.74 -264.19)"/><path class="a" d="M201.33,572.49h4.54c0-5.5.28-11.28.28-17,0-3.44-.14-10.32-8-10.32-5,0-10.53,3-10.53,12.66l-.14,14.65h5.16v4.33H177.18v-4.33h4.54l.28-26.83h-5.71v-4.33h11.35a38.71,38.71,0,0,1-.21,4.27l-.55,3.58H187c1.51-5.37,7.22-8.67,12.59-8.67,9.77,0,12.18,6.6,12.18,13.35,0,6.05-.27,13.14-.27,18.65h5.23v4.33H201.33Z" transform="translate(-125.74 -264.19)"/><path class="a" d="M227,545.66h-6.47v-4.33h12.11l-.28,31.17H238v4.33H221.08v-4.33h5.64Zm2.13-22.29a4.27,4.27,0,1,1-4.27,4.27A4.29,4.29,0,0,1,229.13,523.37Z" transform="translate(-125.74 -264.19)"/><path class="a" d="M238.19,541.33h14.58v4.33h-4.27l8.19,22.77a21.93,21.93,0,0,1,.76,3h.14a21.78,21.78,0,0,1,.76-3l8.39-22.77h-4.61v-4.33H276.3v4.33h-3.92l-12.25,31.17h-5.64l-12.32-31.17h-4Z" transform="translate(-125.74 -264.19)"/><path class="a" d="M284.31,559.56c.21,7.29,3.37,13.42,13.48,13.42a24.21,24.21,0,0,0,10.66-2.68l-.21,4.88a32.44,32.44,0,0,1-11.7,2.48c-11.21,0-18.16-6.12-18.16-18.51,0-10.46,5.64-18.64,16.44-18.64,14,0,15.34,12.73,15.34,19.06Zm20-4.33c0-5.57-3.51-10.39-9.43-10.39s-10.18,4.54-10.52,10.39Z" transform="translate(-125.74 -264.19)"/><path class="a" d="M321,545.66H315v-4.33h11.7v1.93c0,2.06-.41,6.26-.76,9.15h.21c1.38-5.23,3.23-11.7,12-11.7a14.41,14.41,0,0,1,3.58.55l-.55,5.09a12.67,12.67,0,0,0-3.85-.55c-7.29,0-10.53,7.16-10.66,13.42l-.28,13.28h6v4.33H315.75v-4.33h5Z" transform="translate(-125.74 -264.19)"/><path class="a" d="M370.15,551.17h-5.09l-.28-5c-1.31-1.1-4.61-1.31-6.26-1.31-3.58,0-8.19,1.17-8.19,5.44,0,3.85,3.44,5,8.67,5.92,9,1.51,12.8,4.27,12.8,10.11,0,6.33-4.27,11.35-14.52,11.35-3.85,0-10-1-12.18-2.13l-.27-9.08h5.09l.27,5.3a21.51,21.51,0,0,0,8,1.58c3.72,0,8.19-1.58,8.19-5.92,0-3.51-3.65-4.75-7.5-5.57-9.49-2.06-14.24-3.72-14.24-10.66,0-5.71,3.79-10.66,14-10.66a36.79,36.79,0,0,1,11.21,2.13Z" transform="translate(-125.74 -264.19)"/><path class="a" d="M383.19,545.66h-6.47v-4.33h12.11l-.28,31.17h5.64v4.33H377.28v-4.33h5.64Zm2.13-22.29a4.27,4.27,0,1,1-4.27,4.27A4.29,4.29,0,0,1,385.33,523.37Z" transform="translate(-125.74 -264.19)"/><path class="a" d="M396.74,541.33h5.71l.27-8.67,5.64-.34-.27,9h11.15v4.33H408c-.14,5.92-.27,11.9-.27,17.82,0,5.09,0,9.5,5.44,9.5a19.22,19.22,0,0,0,7-1.44L420,576a20.22,20.22,0,0,1-8,1.65c-9.91,0-9.91-7.09-9.91-11.63,0-4.33.21-15.21.28-20.37h-5.64Z" transform="translate(-125.74 -264.19)"/><path class="a" d="M422.1,541.33h15v4.33h-4.47l8.46,22.08a29.81,29.81,0,0,1,1,3.72h.14a29.94,29.94,0,0,1,1-3.72l7.91-22.08h-5v-4.33h14.17v4.33h-3.92l-10.87,29.93c-5,14-9.08,19.33-18,19.33a13.51,13.51,0,0,1-4.2-.62v-4.68a15.18,15.18,0,0,0,4,.62c4.06,0,8.26-2.48,10.94-8.94l1.17-2.89-13-32.75h-4.2Z" transform="translate(-125.74 -264.19)"/><path class="a" d="M127.27,504.62h5.66v6.56c2.21,1.31,6.42,1.79,9.46,1.79,6.9,0,11.46-3.18,11.46-9,0-12.91-26.52-5.25-26.52-22.58,0-5.87,3.45-13.74,17.88-13.74,3.52,0,9.94.9,13,2.28v9.74h-5.38v-6a27.09,27.09,0,0,0-8.08-1.31c-5.18,0-11,2-11,8.36,0,12.29,26.52,4.63,26.52,22.44,0,10.63-9.12,14.5-18.44,14.5-7.94,0-11.81-1.86-14.5-2.42Z" transform="translate(-125.74 -264.19)"/><path class="a" d="M164.57,481.21h5.73l.28-8.7,5.66-.34-.28,9h11.19v4.35H175.89c-.14,5.94-.28,11.95-.28,17.88,0,5.11,0,9.53,5.45,9.53a19.27,19.27,0,0,0,7-1.45l-.21,4.49a20.3,20.3,0,0,1-8,1.66c-9.94,0-9.94-7.11-9.94-11.67,0-4.35.21-15.26.28-20.44h-5.66Z" transform="translate(-125.74 -264.19)"/><path class="a" d="M208.4,480.38c10.84,0,17.26,7.46,17.26,17.68,0,11.33-6.42,19.61-17.26,19.61s-17.26-7.46-17.26-17.67C191.14,488.67,197.56,480.38,208.4,480.38Zm0,32.59c7.6,0,11.33-6.21,11.33-13.95S216,485.08,208.4,485.08s-11.32,6.21-11.32,13.95S200.81,513,208.4,513Z" transform="translate(-125.74 -264.19)"/><path class="a" d="M260.11,515.94a35.9,35.9,0,0,1-10.29,1.73c-14.09,0-18.58-9.32-18.58-18.64,0-13.6,9.87-18.64,17.82-18.64a34.18,34.18,0,0,1,11.53,1.79v9.32h-5.11v-5.59a21.62,21.62,0,0,0-5.94-.83c-10.29,0-12.36,8.15-12.36,13.95,0,1.93.28,13.95,13.53,13.95,3.52,0,6.35-1,9.67-2Z" transform="translate(-125.74 -264.19)"/><path class="a" d="M270.48,468.09h-6.91v-4.35h12.57L276,496.89l13.6-11.19v-.14h-5v-4.35h15.47v4.35h-3.66l-14.78,12,16.09,14.92h3.87v4.35H286.16v-4.35h4.28v-.14L276,498.61l-.14,13.88h4.7v4.35H265.1v-4.35h5.11Z" transform="translate(-125.74 -264.19)"/><path class="a" d="M310.74,468.09h-6.91v-4.35H316.4l-.07,18.71a52.61,52.61,0,0,1-.69,6.63h.14c1.52-5.39,7.25-8.7,12.64-8.7,9.81,0,12.22,6.63,12.22,13.39,0,6.08-.28,13.19-.28,18.71h5.25v4.35H330.14v-4.35h4.56c0-5.53.27-11.33.27-17.06,0-3.45-.14-10.36-8.08-10.36-5,0-10.57,3-10.57,12.7l-.21,14.71h5.25v4.35h-16v-4.35h5.11Z" transform="translate(-125.74 -264.19)"/><path class="a" d="M366.64,480.38c10.84,0,17.26,7.46,17.26,17.68,0,11.33-6.42,19.61-17.26,19.61s-17.26-7.46-17.26-17.67C349.38,488.67,355.8,480.38,366.64,480.38Zm0,32.59c7.6,0,11.32-6.21,11.32-13.95s-3.73-13.95-11.32-13.95-11.32,6.21-11.32,13.95S359,513,366.64,513Z" transform="translate(-125.74 -264.19)"/><path class="a" d="M393.1,468.09H386.2v-4.35h12.57l-.28,48.75h5.66v4.35H387.72v-4.35h5.11Z" transform="translate(-125.74 -264.19)"/><path class="a" d="M409.18,512.49h4.56l.27-26.93h-5.73v-4.35h11.39a38.69,38.69,0,0,1-.21,4.28l-.55,3.59h.14c1.52-5.39,7.25-8.7,12.64-8.7,6.49,0,9.87,3.73,10.77,8.35h.14c.69-1.52,2.9-8.35,12.08-8.35,9.8,0,12.22,6.63,12.22,13.39,0,6.08-.28,13.19-.28,18.71h5.25v4.35H456.41v-4.35H461c.07-5.8.27-11.53.27-17.26,0-5.18-1.11-10.15-7.73-10.15-4.63,0-10.15,3-10.22,12.7l-.14,14.71h5.11v4.35H432.73v-4.35h4.55c.07-5.8.28-11.53.28-17.26,0-5.18-1.1-10.15-7.73-10.15-4.63,0-10.15,3-10.22,12.7l-.14,14.71h5.18v4.35H409.18Z" transform="translate(-125.74 -264.19)"/><path class="a" d="M278.27,282.38c.15.16.07.27-.08.4s-1.82,2.48-2,2.76-.13-.14-.07-.33a4,4,0,0,0-1.11-4.27,2.8,2.8,0,0,0-4,.6c-1,1.43-1,2.73,0,6.47,1,3.9.6,5.33-.82,7a5.43,5.43,0,0,1-7.08.48c-2.77-1.93-2.88-2.37-3.31-2.54s-.33-.41,0-.81c.49-.58,2.13-2.81,2.41-3.23s.23,0,0,.46-1.22,3.33,1.07,4.88,3.65.52,4.4-.37,1.3-1.93.14-6.4c-1.23-4.71-.38-6.26,1.4-7.65a4.93,4.93,0,0,1,6.27,0,21.27,21.27,0,0,1,2,1.82c.23.22.35.47.47.59S278.2,282.29,278.27,282.38Z" transform="translate(-125.74 -264.19)"/><path class="a" d="M130.47,335.65c.07-.16.25-.08.48,0a15.32,15.32,0,0,0,3,.52c.5,0-.34.38-.6.41-.7.09-2.1.5-2.72,2.83a2.52,2.52,0,0,0,1.83,3.23c2.05.42,3.13-.36,6.14-2.78s5.18-2.79,7.15-2.23a5.13,5.13,0,0,1,3.28,6,10.45,10.45,0,0,1-1.58,3.76c-.13.35-.28.47-.79.33s-3.11-.54-3.56-.59c-.79-.09-.46-.39,0-.45,1.27-.16,4-.5,4.58-3.22a2.63,2.63,0,0,0-2.14-3.27c-1.26-.31-2.62-.27-6.16,2.66-3.81,3.16-5.44,3.15-7.49,2.21s-3.08-2.95-2.61-5.59a11.47,11.47,0,0,1,1.16-3.33C130.47,336,130.43,335.76,130.47,335.65Z" transform="translate(-125.74 -264.19)"/><path class="a" d="M247.33,446.83c-.26,0-.21-.23-.25-.39,0,0-.67-2.24-.74-2.42s.13-.24.27-.08a4,4,0,0,0,3.86,1.23,2.86,2.86,0,0,0,2.13-3.38c-.54-1.63-2.14-2.4-5.65-4-3.17-1.46-4.19-2.93-4.48-4.75a5.76,5.76,0,0,1,4.07-6.08c2.65-.82,3.29-.74,3.8-1s.46.62.52.78c.25.71.94,2.9,1.1,3.31s-.14.52-.34.1-2.16-2.82-4.55-2-2.71,2.45-2.38,3.57.58,2.22,5,4.09,5.17,3.69,5.19,5.78c0,2.33-1.83,4.14-4.29,4.76a10.41,10.41,0,0,1-2.13.32c-.32.05-.57.07-.73.09S247.54,446.83,247.33,446.83Z" transform="translate(-125.74 -264.19)"/><path class="a" d="M280.37,287.28a8.44,8.44,0,0,0,1.78-1c.22-.18.65,0,.92.26s4,4,4.8,4.81c1,1.1,4.46,4.24,4.9,4.67s.85.66.42.95-1.39.83-1.68,1-.19,0-.19-.29-.22-.81-1.18-1.81-2.07-2.15-2.27-2.31-.27-.19-.44,0-4.06,4.09-4.92,5-5.72,5.65-5.86,6.41.1.95.2,1.1.22.79,0,.54-1.82-2-2.2-2.32-1.91-1.65-2.13-1.85-.07-.33.32-.17a1.74,1.74,0,0,0,1.68,0c1.13-.56,5.36-4.94,6-5.54s4.7-4.87,4.82-5,.25-.3,0-.63a40.09,40.09,0,0,0-3.32-3.09,2,2,0,0,0-1.15-.44C280.45,287.45,280,287.44,280.37,287.28Z" transform="translate(-125.74 -264.19)"/><path class="a" d="M139.53,318c-.36-.39-1.21-1.13-1.7-1.55-.22-.18-.1-.43.1-.75s2.84-5.18,3.45-6.12c.82-1.27,3.26-5.35,3.57-5.88s.53-.93.79-.7a13,13,0,0,1,1.24,1.42c.22.3.09.15-.23.15s-.73.64-1.48,1.81a26.34,26.34,0,0,0-1.44,2.62c-.15.33.06.42.25.55s4.79,3,5.85,3.6,6.86,3.92,7.71,3.88.79-.17.94-.28.69-.23.46,0a21.84,21.84,0,0,0-1.6,2.4c-.37.68-1.25,2.29-1.36,2.54s-.12-.17-.1-.51.27-.78-.34-1.29c-1.08-.89-6.23-3.91-7-4.34s-5.76-3.29-6.11-3.41-.48-.4-.68,0-2.11,3.39-2.27,4.41a2.28,2.28,0,0,0,0,1C139.68,318,139.7,318.19,139.53,318Z" transform="translate(-125.74 -264.19)"/><path class="a" d="M162.59,287.76a9.59,9.59,0,0,0-1-1.95c-.17-.33-.17-.32.26-.67.19-.15,4.7-3.49,5.6-4.17,1.22-.94,5.36-3.73,5.86-4.09s1-.57,1.21-.12.68,1.67.76,2-.06.11-.38-.17-.7-.18-1.85.59-2.77,1.84-3,2-.19.2-.09.4c.26.51,3.23,4.88,4.06,6,.69.9,4.8,6.72,5.58,7.06a1.22,1.22,0,0,0,1,0c.24-.05.54,0,.14.27s-1.65,1.07-2.08,1.36-1.6,1.19-2,1.54-.35,0-.13-.32.37-.47.06-1.19a67.88,67.88,0,0,0-4.34-6.75c-.49-.69-4.41-5.93-4.66-6.26s-.19-.25-.53,0-3.39,2.57-3.84,3-.54.41-.57.86C162.66,287.44,162.67,288.09,162.59,287.76Z" transform="translate(-125.74 -264.19)"/><path class="a" d="M300.55,305.43c2.78,2.9,5,9.77-.72,14.54a10.14,10.14,0,0,1-13.67-.48c-2.4-2.65-4.85-8.86.41-14A9.76,9.76,0,0,1,300.55,305.43Zm-11.62,2.39c-4.16,4-3.65,8.61-1.52,10.77s6.69,2.5,10.69-1.35,3.68-9.06,1.12-11.31C297.33,304.27,293.12,303.75,288.92,307.82Z" transform="translate(-125.74 -264.19)"/><path class="a" d="M306.15,399.21a9.78,9.78,0,0,1-13.44,5.64,10.08,10.08,0,0,1-5.42-12.17c1.19-3.38,6.11-8.35,12.5-5.88S307.45,395,306.15,399.21Zm-7.31-9.51c-5.67-2-9.28.66-10.2,3.36s.14,6.46,5.87,8.62c5.55,2.07,9.71,0,10.67-3.73C305.53,396.56,305.61,392.13,298.84,389.71Z" transform="translate(-125.74 -264.19)"/><path class="a" d="M298.94,342.25a19.37,19.37,0,0,1-2.51-.27c-.57-.12-.65-.13-.83-.37a12.29,12.29,0,0,1-2.57-7.5c0-4.84,2.3-8.81,6.91-10.17a10,10,0,0,1,10.58,3.58,12.13,12.13,0,0,1,2.22,6.62c.09,1.4.21,2.24.28,2.69.12.76.11,1,.28,1.17s-.07.39-.36.43-1.39.19-1.95.32l-1.39.37c-.61.14-.58,0-.11-.37a3.66,3.66,0,0,0,1.92-2.64c.19-1.53.44-4.88-2-7.35-1.79-1.83-4.8-3.29-9.11-1.52a8.82,8.82,0,0,0-5.72,8.06,6.56,6.56,0,0,0,4.16,6.52C299.42,342,299.78,342.23,298.94,342.25Z" transform="translate(-125.74 -264.19)"/><path class="a" d="M314.66,344.59c0,.74.34,4.05.48,4.71s-.18.42-.23.14a1.07,1.07,0,0,0-.93-.78,63.89,63.89,0,0,0-8.1.6,72,72,0,0,0,7,5.55,6.16,6.16,0,0,0,1.84,1.06c.17,0,.08.13.16-.09s.43-1.29.37.21c0,.36,0,1.44,0,1.71s.13,1,.15,1.19c.11.81,0,.65-.62-.09a21.51,21.51,0,0,0-3.5-2.94c-.66-.48-4.88-3.67-4.88-3.67s-6,5.75-7.19,7a16.09,16.09,0,0,0-2.36,3c-.2.44-.35.65-.28.24s.24-1.92.28-2.64.11-2.6.11-2.79c0-.39.18-.1.39,0s2-1.52,3.89-3.36c1.42-1.4,3.79-4,4-4.21a56.77,56.77,0,0,0-5.88.7,5.12,5.12,0,0,0-2.1.75,1.3,1.3,0,0,0-.4.77c0,.24-.27.36-.31,0s-.11-2-.15-2.65-.25-2-.29-2.25.16-.36.28-.08a.84.84,0,0,0,.56.56c.68.27,1.58.28,8.26-.51s7.2-1,7.87-1.13,1.14-.45,1.23-1C314.38,344.17,314.68,343.49,314.66,344.59Z" transform="translate(-125.74 -264.19)"/><path class="a" d="M314.79,367.51c-.13.6-.67,3.9-.67,4.56s-.31.67-.39.22a1,1,0,0,0-.63-.89,11.35,11.35,0,0,0-3.32-.81c-2.31-.37-3.82-.63-3.82-.63s-.72,3-1.12,4.9c-.5,2.31-1.06,5.38-1.06,5.38l4.45,1.26c1.19.33,3,1.09,3.61.1.41-.69.67-.54.28.2-.13.26-.95,3.43-1.08,4.06-.24,1.17-.4.43-.35.16s.28-.76-.76-1.17-4.52-1.58-7.59-2.46-6.58-2-8-1.88c-.69.06-.88.22-1,.45s-.65.43-.32-.11a23.25,23.25,0,0,0,1.23-4.22c.2-1.37.42-.41.39-.15a1,1,0,0,0,.64,1,53.39,53.39,0,0,0,7.06,2.3s.71-2.81,1.18-5c.56-2.55.94-5.08.94-5.08l-2.41-.4a34.22,34.22,0,0,0-5.2-.56,1.23,1.23,0,0,0-.79.71c-.08.23-.53.68-.28-.16a27.34,27.34,0,0,0,.61-4.18c.06-1.18.37-.66.38-.33a1.17,1.17,0,0,0,.54.81c1.24.54,3.44.85,7.95,1.52s7.91,1.14,8.52.92.61-.46.73-.74S315,366.66,314.79,367.51Z" transform="translate(-125.74 -264.19)"/><path class="a" d="M296.45,413.89a31.18,31.18,0,0,0-3.09,3.59c-.48.65-.41.13-.29-.13.23-.47.09-.62-.09-1-.3-.68-2.62-2.56-5.6-5.06s-5.62-4.73-6.42-4.77c-.4,0-.75,0-1.58.7a21.5,21.5,0,0,0-3,3.54,3.36,3.36,0,0,0-.38,1.91c0,.45-.13.39-.29,0a19.22,19.22,0,0,1-.62-2.5.73.73,0,0,1,.27-.66c.46-.5,4.37-4.94,4.95-5.57a23.34,23.34,0,0,0,1.82-2.24c.37-.64.49-.18.38.14a1.66,1.66,0,0,0-.18,1.3c.39,1.16,4.08,3.89,6.21,5.6,4.17,3.36,6.21,5.13,6.89,5.13a1.12,1.12,0,0,0,.92-.29C296.5,413.4,297,413.52,296.45,413.89Z" transform="translate(-125.74 -264.19)"/><path class="a" d="M272.48,413.69c.2.51,2.2,3.93,4.28,7.42s4.48,7.36,4.8,7.92c.63,1.1.65,1.37-.44.83-1.58-.79-7.94-4-9-4.48s-6.25-3.14-6.25-3.14,1.12,8.47,1.21,8.95,1,7.54,1.05,7.89.05.92-.59.31-10.66-13.39-11.17-14a2.31,2.31,0,0,0-1.47-.86,1.52,1.52,0,0,0-.79,0c-.25.09-.45-.14-.08-.28s4-2,4.38-2.23.52,0,.19.25-.51.47-.42.88c.22,1,7.48,10,7.48,10s-1.24-8.09-1.44-9.12-.92-5.81-.92-5.81,0-.3.31-.14,7.4,3.79,8.15,4.15,5.3,2.61,5.3,2.61-4-6.46-5.63-9a2.14,2.14,0,0,0-1.08-1c-.56-.11-.74.13-1.06.26-.16.07-.42-.13.07-.43a15.42,15.42,0,0,0,1.66-1.19c.4-.32,1.43-1.3,1.59-1.46s.42,0,.24.21A1.12,1.12,0,0,0,272.48,413.69Z" transform="translate(-125.74 -264.19)"/><path class="a" d="M228.69,438.31c0,.34.06,4.26.11,4.75,0,.23-.18.16-.31-.34a1.22,1.22,0,0,0-.83-.79,21,21,0,0,0-4.39-.08s-.09,4.54.39,5.06.52.43.72.48.69.29.37.27c-.61-.06-4-.06-4.8,0-.56.06-.27-.2.2-.31s.71-.37.89-1a34.86,34.86,0,0,0,.11-4.58,28.73,28.73,0,0,0-4.69.25,1.11,1.11,0,0,0-.56.94c0,.32-.38.61-.34.17a34.07,34.07,0,0,0,0-4.23c-.08-.56,0-.48.24-.15s.15.64.64.84a35,35,0,0,0,4.68.16s0-3.85-.08-4.44a1.14,1.14,0,0,0-1-1c-.28,0-.53-.27-.16-.24a31.21,31.21,0,0,0,4.58,0c.5-.05.2.22-.17.31a1.23,1.23,0,0,0-1,.94c-.16.59-.13,4.38-.13,4.38s3.59,0,4.24-.09a1.17,1.17,0,0,0,1-1C228.48,438.38,228.73,438,228.69,438.31Z" transform="translate(-125.74 -264.19)"/><path class="a" d="M196.16,447.52a25.21,25.21,0,0,0-5.2-1.86c-.57-.09,0-.24.32-.22s.87.11,1.21-.26c.89-1,4.41-9.83,4.87-11.92s.55-5-3.38-6.37c-4.09-1.46-5.72.77-7.94,4.95-1.62,3.05-4.2,8.48-4.2,9.09a.9.9,0,0,0,.41.85c.36.3.57.78.22.5A23.86,23.86,0,0,0,178,440.1c-.35-.11-.07-.31.37-.22s.53,0,.89-.26c.88-.61,5.34-9.55,5.93-10.52a7.82,7.82,0,0,1,5.15-3.91A9.7,9.7,0,0,1,199,429a7.53,7.53,0,0,1,.81,6.4c-.39,1.69-4.07,9.91-4.08,11a.84.84,0,0,0,.43.77C196.39,447.38,196.52,447.74,196.16,447.52Z" transform="translate(-125.74 -264.19)"/><path class="a" d="M170.4,436.56s-.77-8.32-1-11.19c-.27-3.35-1.11-9.82-1.11-9.82s-6.54,7.07-7.38,7.92-1.63,1.7-1.63,2.29a1.34,1.34,0,0,0,.37.91c.08.17.22.73.06.53a23.16,23.16,0,0,0-1.79-1.82,17.65,17.65,0,0,0-1.73-1.4c-.44-.3.11-.25.35-.09a1.11,1.11,0,0,0,.9.2c.62-.08,5.32-5.24,7.06-7.06s5.67-6.14,6.07-6.69.29-.22.32.21.72,9.08.87,10.07.58,6.74.63,7.39.25,2.83.25,2.83,3-4.32,4-5.87,3.09-4.33,3.08-5.07a1.49,1.49,0,0,0-.67-1.26c-.14-.14-.24-.49.07-.22a22.77,22.77,0,0,0,4.14,2.76c.63.29-.31.12-.48,0a2.13,2.13,0,0,0-1.21,0c-.67.24-4.45,6-5.2,7.13s-3,4.32-3.57,5.18-1.75,2.65-2,3.1S170.46,437,170.4,436.56Z" transform="translate(-125.74 -264.19)"/><path class="a" d="M162,401.73a17.32,17.32,0,0,0,1.52,2.22,21.14,21.14,0,0,0,1.88,2c.35.34-.14.21-.47,0s-.71-.36-1.74.21c-1.21.65-11.94,9.68-12.35,10.2s-.46.92-.25,1.39,0,.68-.09.45a26.73,26.73,0,0,0-3.18-4c-.47-.35,0-.26.33-.09s.42.17.78,0c1.2-.51,13.32-10.3,13.51-11a1.27,1.27,0,0,0-.1-1.05C161.79,401.79,161.75,401.3,162,401.73Z" transform="translate(-125.74 -264.19)"/><path class="a" d="M152.69,328.83a32.53,32.53,0,0,0-2.08,5.24c-.11.47-.33,0-.27-.37.12-.59.21-.9-.78-1.56-1.27-.84-13.94-5.68-15.21-5.68a1.08,1.08,0,0,0-1,.56c-.21.26-.64.38-.37,0a40.87,40.87,0,0,0,2.08-5.21c.09-.57.31,0,.25.33a1,1,0,0,0,.24,1.08c1.21,1,14.9,6.29,15.91,6.12.69-.11.62-.35.86-.57S153,328.33,152.69,328.83Z" transform="translate(-125.74 -264.19)"/><path class="a" d="M147.93,398.8l4.06-5.42s-7.11.38-8.63.51-6,.32-6.45,1c-.33.48,0,1,0,1.17.06.33,0,.84-.16.45s-.64-1.69-1.08-2.69-.91-2-1-2.2.15-.25.37,0a1.57,1.57,0,0,0,1,.57c1,.26,7.61-.08,8.89-.12s10.68-.67,11.47-.59c.42,0,.79-.16.29.62-.28.44-5.9,7.79-6.33,8.38s-5.66,7.36-5.75,8.2a2.33,2.33,0,0,0,.06,1.09c.06.29,0,1.07-.09.81a39.63,39.63,0,0,0-3.16-5.1c-.4-.52.13-.17.45,0s.52,0,.87-.2C143.68,404.58,147.37,399.56,147.93,398.8Z" transform="translate(-125.74 -264.19)"/><path class="a" d="M148.52,372.07c.27.77,1.1,4.14,1.51,5.61.15.52,1.08,4,1.36,4.53.13.28-.48-.16-.6-.46a.82.82,0,0,0-.36-.55,1.37,1.37,0,0,0-.63-.18c-.86-.11-5.77,1.52-8.22,2.27s-7.33,2.22-7.83,2.8a1.07,1.07,0,0,0-.3,1.15c0,.26-.16,1.21-.27.62a26.63,26.63,0,0,0-.66-3.15c-.4-1.41-2-7.23-2.12-7.49s-.15-.44.09-.54a21,21,0,0,0,2.17-.85c.51-.31.31.14,0,.43s-.42.44-.37,1.35a42,42,0,0,0,1.36,5.07s2.4-.64,3.18-.91,3.4-1.05,3.4-1.05a37.86,37.86,0,0,0-1.54-4.84c-.38-.5-.63-.4-1-.37s-.77-.19-.41-.26a23.93,23.93,0,0,0,4.11-1.28c.46-.22,0,.35-.21.47a1.09,1.09,0,0,0-.58,1.06,10.58,10.58,0,0,0,.59,2.58c.17.49.66,2.17.66,2.17s4.35-1.25,5.07-1.6,1.29-.35,1.13-1.79a16.5,16.5,0,0,0-1.54-4.94,4,4,0,0,0-1-1.07c-.16-.13-.73-.61-.39-.5a26.49,26.49,0,0,1,2.94,1.12A1.06,1.06,0,0,1,148.52,372.07Z" transform="translate(-125.74 -264.19)"/><path class="a" d="M169.86,303.66c-.52.55-4.34,4.68-5.4,5.89L163,311.22c-.2.23-.28-.22-.12-.5a1,1,0,0,0,.12-1.06c-.27-.88-4.72-4.51-6.65-6.19s-5.43-4.86-6.2-5a1.55,1.55,0,0,0-1.19.2c-.24.12-.83.37-.42,0s1-1.1,2-2.09,5.07-5.31,5.24-5.53.32-.28.5-.1a16.13,16.13,0,0,0,1.63,1.53c.61.37.06.33-.26.25s-.44-.17-1.11.22a25.89,25.89,0,0,0-3.55,3.6l4.87,4.5s3.39-3.16,3.45-3.81a1.57,1.57,0,0,0-.07-.83c-.09-.26-.05-.71.16-.4a16.88,16.88,0,0,0,2.67,2.63c.42.3-.07.31-.3.2s-.5-.41-1.16-.09a32,32,0,0,0-3.38,3.52s3.47,3,4.12,3.46c.85.62,1.46.77,2.31,0a18,18,0,0,0,3.29-3.72,3,3,0,0,0,.23-1.5c0-.3.2-.68.26-.43s.77,2.47.81,2.81S170.18,303.32,169.86,303.66Z" transform="translate(-125.74 -264.19)"/><path class="a" d="M147.17,362.75c0,.41.14,2.36.27,3.23.07.49-.23-.12-.3-.37a.92.92,0,0,0-.51-.7c-.68-.36-5.41,0-8.17.34-2.52.28-8.35.57-9,1.21a1.46,1.46,0,0,0-.43,1.21c0,.27-.47,1.14-.46.48,0-.4,0-2.15-.1-2.76a34.16,34.16,0,0,1-.31-6.32,5.13,5.13,0,0,1,4.75-4.09,5.19,5.19,0,0,1,4.71,3,5,5,0,0,1,1.22-1.14c1-.73,7.27-4.45,7.75-5.58a1.86,1.86,0,0,0,.15-1.25c-.06-.74.1-1.26.46,0a5.69,5.69,0,0,1-.54,4.12c-1.12,1.57-4.69,3.69-5.39,4.17s-2.73,1.61-2.73,2.76a7.92,7.92,0,0,0,.15,1.62l3.56-.37c.76-.09,3.72-.27,4.12-.71a1.06,1.06,0,0,0,.35-.83c0-.21.48-1.15.45.07C147.12,361.24,147.13,362.34,147.17,362.75Zm-11.41-4.58a4.37,4.37,0,0,0-6,1.19c-.82,1.37-.38,3.94-.38,3.94l4-.27,4.14-.29S138,359.47,135.76,358.17Z" transform="translate(-125.74 -264.19)"/><path class="a" d="M217,300.88a16.21,16.21,0,0,1-3.79-10.39c0-2.89,1.31-4.72,2.58-6.5l.94-1.16c1.57-1.84,3.71-4.35,3.71-8.74,0-3.82-.44-5.46-.68-6.09-.14,1.89-1.23,9.71-9.36,16.76-2.33,2-6.22,5.4-6.22,9.61,0,6.18,4,11.29,5.24,12.73a20.76,20.76,0,0,1-1.41-7.55,20.35,20.35,0,0,1,.63-5.21l.07-.24.13.21A14.38,14.38,0,0,0,217,300.88Z" transform="translate(-125.74 -264.19)"/><path class="a" d="M218.26,282.79c2-.78,9.37-4,9.37-9.14,0-4-2.95-7.62-4-8.73a19.15,19.15,0,0,1,.82,5.47C224.5,276.4,219.7,281.43,218.26,282.79Z" transform="translate(-125.74 -264.19)"/><path class="a" d="M245.78,272.93c-2,2.87-9.21,5.72-9.54,5.85l-.12-.18c4.11-4.18,5.23-10.66,5.47-12.42-5.79,9.13-9.34,10.7-13.42,12.5l-1.79.8c-4.9,2.32-10.52,5.64-10.52,10.83,0,6.87,2.34,9.74,3.13,10.52a17.22,17.22,0,0,1-.68-4.61,9.77,9.77,0,0,1,.42-3.12l.15-.4.06.42c.54,3.78,5.1,7.33,6.1,8.07a22.83,22.83,0,0,1-.13-2.48c0-3.83.89-10.62,6.84-13.17C242.48,281,245.15,275,245.78,272.93Z" transform="translate(-125.74 -264.19)"/><path class="a" d="M236.88,294.2c0-7.08,1.36-9.8,2.08-10.75-11.55,5.23-12.79,14.77-12.79,18.55,0,.46,0,.81,0,1.08a22.06,22.06,0,0,1,6.48-9.32l.07-.06.07,0s0,0,0,.14c0,.38-.26,1.91-1.79,8.45C232.15,301.65,236.88,298.34,236.88,294.2Z" transform="translate(-125.74 -264.19)"/><path class="a" d="M247,293.5a12.45,12.45,0,0,0-.83-4.41,9.31,9.31,0,0,1-2.77,4.39h0l-.16-.16s1.2-1.37,1.2-5a21.11,21.11,0,0,0-.35-3.67,9.33,9.33,0,0,1-.14-1.58,12,12,0,0,1,1.87-6.14,16.59,16.59,0,0,0-6,9.06,59.5,59.5,0,0,0-1.51,6.77,16.81,16.81,0,0,1-.52,2.4,43.87,43.87,0,0,1-3.32,8.31,13.2,13.2,0,0,0,4.88-5.57l.15-.3.06.34a15.64,15.64,0,0,1,.13,2.1,14.53,14.53,0,0,1-1.13,5.78C240.11,304.62,247,298.81,247,293.5Z" transform="translate(-125.74 -264.19)"/><path class="a" d="M259.28,282a9.59,9.59,0,0,0-8.15-1.53l-.35.11.23-.29a19,19,0,0,1,5.3-4.46c-1.23-.18-6.08-.62-8.48,2.83-1.55,2.23-1.81,5.6-1.81,7.58,0,.55,0,1,0,1.25,2.37-4.12,2.64-4.11,2.73-4.1l.1,0v.08a8,8,0,0,1,.13,1.58,36.86,36.86,0,0,1-.53,5.35C252.7,282.43,257.88,282,259.28,282Z" transform="translate(-125.74 -264.19)"/><path class="a" d="M224.67,425l.44-19.42a13.25,13.25,0,0,1,.81,1.31,14.48,14.48,0,0,1,.8,2.3,3.21,3.21,0,0,1,.8,1.6c.15.95.6,4.15.75,4.9s.15,1.35.6,1.35c2.6,0,4-4.3,3.5-5.65a13.58,13.58,0,0,0-2-3s-1.4-4.45-1.65-5-1.25-1-1.55-1.25-1.06-1-1.94-1.88l.12-5.44a6,6,0,0,1-.86,0,8.61,8.61,0,0,1-6.22-2.54l1,32.7Zm6.54-10.61c-1.15,1.6-1.3,1.65-1.7,1.65s-.4-1.75-.15-2.65.9-1.85,1.75-1.8C231.81,411.67,232.36,412.83,231.21,414.43Z" transform="translate(-125.74 -264.19)"/><path class="a" d="M267.78,351.18a26.89,26.89,0,0,0,6.49,1.2c4.94-.26,8.64-4,9.74-4.95a36.19,36.19,0,0,1,4.2-2.5s-2.7-.05-6.09-.35a23.9,23.9,0,0,0-9.34,1.1,12.56,12.56,0,0,0-4.55,2.9,4.34,4.34,0,0,1-1.9,1.25l-1.85.45a5,5,0,0,1,1.35-2.3,30.9,30.9,0,0,0,4.85-4.15,43.26,43.26,0,0,0,5.89-9.19c.25-.95,2.3-5.54,2.3-5.54a50.74,50.74,0,0,1-5.24,3.25,19.5,19.5,0,0,0-7.14,6.44,16.22,16.22,0,0,0-1.9,7.5c-.05,2.3-.95,4.25-2.9,6.59a48.16,48.16,0,0,1-5.2,4.85,9.53,9.53,0,0,1-3,1.55,6.39,6.39,0,0,1-2.1.1s1-1.35,1.7-1.55a12,12,0,0,0,4.7-2.95c2.5-2.25,4-7.94,4.2-8.89s1.1-3.85,1.1-3.85a29.55,29.55,0,0,1-4.25,3.35,22.35,22.35,0,0,0-6.65,6.84,7.07,7.07,0,0,0-.85,5.35c0,.4-.15.65-.8,1.3a4.62,4.62,0,0,1-2.2,1,17.63,17.63,0,0,1-5.2,1c-2.35,0-5.45-1.1-6.14-1.15s-1.8.6-2.25.65a10.46,10.46,0,0,1-1.25-.15c-.45,0-1.85,0-1.85,0a7.92,7.92,0,0,0,.45-2.3c.05-.35.15-.85.65-.95a19.23,19.23,0,0,0,2.45-1.3,2.92,2.92,0,0,1,1.45-.3,11.85,11.85,0,0,0,5.5-1.5,22.69,22.69,0,0,0,7-7.3,28.89,28.89,0,0,1,3.9-3.35s-2.55.7-5.45,1.55-7.14,2.85-8.64,4.2a14.75,14.75,0,0,0-2.85,3.55,14.13,14.13,0,0,1-1.5,2.5c-.45.35-1.9,1.1-1.9.9a9.8,9.8,0,0,1,.9-1.85c.35-.6,1.45-2.35,2.15-3.4a12.39,12.39,0,0,0,1.3-2.7,9.63,9.63,0,0,1,1.3-2.6c2.19-2.55,3.7-2.55,4.9-2.65a52.1,52.1,0,0,0,6.19-.3,18.41,18.41,0,0,0,7.49-3c.8-.45,4.35-3,4.35-3s-3.45.6-4.54.75-5.35.2-7.79.8a22.17,22.17,0,0,0-6.65,3.45,49,49,0,0,0-4.25,3.25,11.17,11.17,0,0,1,.15-1.9,2.74,2.74,0,0,1,1.35-2,28.75,28.75,0,0,0,5.69-4.1,28.07,28.07,0,0,0,4.5-6.64c.3-.9,2.1-4.5,2.1-4.5a16.4,16.4,0,0,1-4,2.5,23.44,23.44,0,0,0-7.69,6,9,9,0,0,0-2,5,9.15,9.15,0,0,1-.4,2.4,5.66,5.66,0,0,0-.6,2.55,8.51,8.51,0,0,1-.65,2.85,9.35,9.35,0,0,1-.65,1.8,4.67,4.67,0,0,0-.65,1.15,26.84,26.84,0,0,1-2.35,3.35s-.65-.8.35-2.95a19.67,19.67,0,0,0,2-7.29,22.35,22.35,0,0,0-1.15-6.1c-.45-1.2-1.95-5.44-1.95-5.44a17.61,17.61,0,0,1-.85,3.95c-.7,2-2.3,6-2.3,8.84a14.16,14.16,0,0,0,2.15,6.94,3.44,3.44,0,0,1,.75,2.75,4.62,4.62,0,0,1-1,2.4,6.85,6.85,0,0,0-.7,2.35c-.7,3-2.2,3.9-3.5,4.94-.15.13-.35.26-.57.41l.7-27.41c.31-4.14.72-12.49,4.51-18,.48-.69.73-1,.73-1a13.28,13.28,0,0,1,9.4-5.39V310l-20.57,0h-.06l-18.84,0v2.24a13.28,13.28,0,0,1,9.4,5.39c2.94,4.1,4.76,6.51,5.29,19.49l1,31.33a5.78,5.78,0,0,0-2.59,3.93,2.22,2.22,0,0,1-.25-2,10.61,10.61,0,0,0,.85-6c-.5-2.7-3.5-7.19-4.45-8.29s-2.7-3.8-2.7-3.8,0,2.5-.1,4.5-.85,4.8.35,8.29a11.41,11.41,0,0,0,4.2,5.55,3.17,3.17,0,0,1,1.15,2,3.85,3.85,0,0,1-.1,2,13.72,13.72,0,0,1-.25,2.2c-.21.73-.8,1.15-.9,1.8a21.41,21.41,0,0,1-.75,3c-.15.55-.5.65-1,1.4a1.92,1.92,0,0,0-.35,1.25,16.34,16.34,0,0,1-2.6-2.65,9.13,9.13,0,0,0-6.9-5.85,24,24,0,0,0-6.49-.15,29,29,0,0,1-5.42-.65,8.33,8.33,0,0,1,4,2.74,20,20,0,0,0,6.95,5,9,9,0,0,0,5.25-.05c.75-.2,1.3-.5,1.95-.25a4.48,4.48,0,0,1,1.4,1.25s-1.15.65-2,1c-3,1.42-5.36,2.58-7.14,5.54-.76,1.27-1.8,5.75-1.95,6.79a39.05,39.05,0,0,1-1,3.85s1.7-1.45,3.1-2.4a21.09,21.09,0,0,0,5.7-4.95c2.25-2.85,2.55-7.24,2.65-8.14a1.16,1.16,0,0,1,1-1.15,1.49,1.49,0,0,1,1,1.35,3.53,3.53,0,0,0,.65,2c.3.45,1,1,1.6,1.9a29.27,29.27,0,0,1,1.45,3.55c.4.8.6.7,1.2,1.8s.5,1.7,1,2.55.75.75.75.75l-.3-5.3a1.37,1.37,0,0,1-.4-.35,6.25,6.25,0,0,1-.5-.9s.9-.6,1.5-.9a1.18,1.18,0,0,1,1.35.1c.4.25,3.25,2.55,6.35,2.55s9.44-3.4,10.59-4a32.78,32.78,0,0,1,4.15-1.45s-3-.3-4.6-.65a70.37,70.37,0,0,0-7.34-1.25,9,9,0,0,0-2,.25l.13-1.61s-1.32,1.12-1.77,1.47a15,15,0,0,1-3.3,1.64,16.13,16.13,0,0,1-2.4.7s-.2-.2-.35.55-.25.65-1.1.85a9.34,9.34,0,0,0-1.6.55s.7-1.8.8-2.1.25-.6,1.3-.8a14.86,14.86,0,0,0,7.14-3.65,22.22,22.22,0,0,0,5.15-7.44,18.54,18.54,0,0,1,3.55-4.39s-2.3.9-6.64,2.4l-.61.22.16-5.74h0v-.41l-.3.14c-.65.3-2.55.85-3.3,1.2s-1.35,1.15-1.95,1.45a8.34,8.34,0,0,0-2.82,1.74l.05.94h0l.19,6.11a9.67,9.67,0,0,0-2,5c-.2,1.15-.35,1.7-.5,2.3a20.84,20.84,0,0,1-.75,2,13.79,13.79,0,0,0-1.7-2.55,2.27,2.27,0,0,1-.45-2.35,14.33,14.33,0,0,1,.95-2.6c.45-1.15,1-3.35,1.4-4s.2.65.95-3.45a6.87,6.87,0,0,1,4.65-5.34c.6-.3,1.2-1.1,1.95-1.45s2.65-.9,3.3-1.2a10.2,10.2,0,0,0,3.75-2.5,6.06,6.06,0,0,1,2.2-2,9.29,9.29,0,0,1,3.35-.5c1.65-.1,2,1.2,2.35,1.65a2.51,2.51,0,0,1,.4,1.5,7.82,7.82,0,0,0,2.95,6.6c3.35,2.9,7.44,3.15,8.94,3.55s5.25,1.95,5.25,1.95-.65-.25-3.2-4.2-5-6.3-6.54-7.18a21.61,21.61,0,0,0-5-1.66,3.85,3.85,0,0,1-1.65-.7,13.22,13.22,0,0,1-1.25-1.6,2.5,2.5,0,0,1,.65,0,11.41,11.41,0,0,0,5,.95,12.32,12.32,0,0,0,5.79-1.4,2.1,2.1,0,0,1,1.95.2c.65.4,1.45.95,3,1.95a15.06,15.06,0,0,0,7.44,2.55,31.39,31.39,0,0,0,9.39-2,22.86,22.86,0,0,1,3.9-1.2s-2.5-.45-3.9-.75-5.95-2-9.14-2a10.92,10.92,0,0,0-5.79,1.7,1.82,1.82,0,0,1-2,.4,2,2,0,0,1-1.55-1.35c3.8-.55,4.15-1.15,5.65-2.1s2.75-2.75,3.7-3.65c.64-.61,1.17-1.38,2.55-2.65A3.55,3.55,0,0,1,267.78,351.18Zm7.28-5.19c3.76-.89,10.64-.57,9.81-.37s-5.79,2.35-9.29,3.29a45.1,45.1,0,0,1-7.56,1.2L268,350A18.41,18.41,0,0,1,275.06,346Zm-7.51-7.15c2.5-4.23,8.4-6.58,8.4-6.58s-4.28,5.69-5.64,7.51-4.85,7-4.85,7A13.91,13.91,0,0,1,267.55,338.84Zm-14,12.78c2.45-4,7.25-6.42,7.25-6.42s-3,5-4.65,7.3-4.07,5.11-4.07,5.11S251.11,355.65,253.56,351.63Zm-13.1-2.51c2.2-1.5,8.87-4,8.87-4s-5.11,4.54-7.67,6.37a42.75,42.75,0,0,1-5.64,3.29A11.65,11.65,0,0,1,240.47,349.12Zm8.3-10.17c2.19-.73,9-1,9-1s-5.9,2.09-8.29,2.87a53.13,53.13,0,0,1-6.63,1.41A21.46,21.46,0,0,1,248.76,338.95Zm-7.88-4.38c1.88-2.92,8.71-6.47,8.71-6.47s-3.81,3.81-6.47,6.94-4.44,5.27-4.44,5.27l-.05.11A15.61,15.61,0,0,1,240.88,334.57Zm-9.08,16.07a12.39,12.39,0,0,1-1.93-6.73c-.05-4.17,2.4-8.66,2.4-8.66s-.1,4.91.05,7.67A54.19,54.19,0,0,1,231.81,350.64Zm-32.25,28.91a34.12,34.12,0,0,1-5.9-3.18s6.37-.73,8.71.42c4.06,2,4.64,5,4.64,5S202,380.38,199.56,379.55Zm-1,18.78s.81-6.35,2.59-8.56A10,10,0,0,1,206.5,386Zm28.28-11.2c2.28-.23,8.57,1.18,8.57,1.18a87,87,0,0,1-10,1.81,40.51,40.51,0,0,1-6.33-.08S220.64,387.75,226.81,387.13Zm-6.49-8.31c2.35-2.29,9.55-4.54,9.55-4.54s-5.74,4.91-8,6.94a63.9,63.9,0,0,0-5.22,5.53S216.15,382.89,220.33,378.82ZM214,370.26A29.87,29.87,0,0,1,211.3,364c-.69-2.53-1.72-8.66-1.72-8.66s4,5.83,4.75,7.77C215.53,366.4,214,370.26,214,370.26ZM238.75,364s4.28,1,6.21,2.3c4.1,2.77,6.63,8.09,6.63,8.09a65.26,65.26,0,0,1-7.2-4.54,35.13,35.13,0,0,1-5.63-5.69ZM261,360.5c3.76,0,9.24,1.88,9.24,1.88s-7,.89-9.24.89a52.36,52.36,0,0,1-6-.57S258.05,360.5,261,360.5Z" transform="translate(-125.74 -264.19)"/><path class="a" d="M250.18,332.76a2.66,2.66,0,0,0-1.36,2.6,1.34,1.34,0,0,0,1.81,1.47,2.23,2.23,0,0,0,1.58-2.37A1.66,1.66,0,0,0,250.18,332.76Z" transform="translate(-125.74 -264.19)"/><path class="a" d="M274.92,340.25a2.65,2.65,0,0,0-1.36,2.6,1.34,1.34,0,0,0,1.81,1.47,2.23,2.23,0,0,0,1.59-2.37A1.66,1.66,0,0,0,274.92,340.25Z" transform="translate(-125.74 -264.19)"/><path class="a" d="M233,363.76a2.67,2.67,0,0,0-1.36,2.61,1.33,1.33,0,0,0,1.81,1.46,2.23,2.23,0,0,0,1.59-2.37A1.66,1.66,0,0,0,233,363.76Z" transform="translate(-125.74 -264.19)"/><path class="a" d="M262.32,355.89a1.34,1.34,0,0,0,1.28,2,2.23,2.23,0,0,0,2.23-1.78,1.66,1.66,0,0,0-1.42-2.24A2.66,2.66,0,0,0,262.32,355.89Z" transform="translate(-125.74 -264.19)"/><path class="a" d="M249.73,363.74a2.67,2.67,0,0,0-1.36,2.61,1.33,1.33,0,0,0,1.81,1.47,2.23,2.23,0,0,0,1.59-2.38A1.66,1.66,0,0,0,249.73,363.74Z" transform="translate(-125.74 -264.19)"/><path class="a" d="M229.82,380.82a2.65,2.65,0,0,0-1.36,2.6,1.34,1.34,0,0,0,1.81,1.48,2.24,2.24,0,0,0,1.58-2.38A1.66,1.66,0,0,0,229.82,380.82Z" transform="translate(-125.74 -264.19)"/><path class="a" d="M198.74,388.06a2.24,2.24,0,0,0,1.58-2.38,1.66,1.66,0,0,0-2-1.7,2.66,2.66,0,0,0-1.36,2.6A1.34,1.34,0,0,0,198.74,388.06Z" transform="translate(-125.74 -264.19)"/><path class="a" d="M208.14,264.19a14.64,14.64,0,0,1,2.78,8.06c0,1.1-.13,2.85-.13,2.85a30.35,30.35,0,0,1-.95,5,26,26,0,0,0,3.5-7l.07-.27.13.25a9.82,9.82,0,0,1,1,3.41,12.38,12.38,0,0,0,1-4.68A8.35,8.35,0,0,0,208.14,264.19Z" transform="translate(-125.74 -264.19)"/><path class="a" d="M209,276.61h0a31,31,0,0,0-.44-3.76c-.35,1.09-1.75,3.75-7.32,9-3.18,3-4.9,5.26-4.9,8.64,0,6.57,5.87,11.79,7.31,13a31.72,31.72,0,0,1-2-10.67c0-2.25,1.31-3.56,2.59-4.84l.31-.31a25.32,25.32,0,0,0,3.12-3.53h0a8,8,0,0,0,1.08-2.4,9.47,9.47,0,0,0,.19-1.22h0A26.75,26.75,0,0,0,209,276.61Z" transform="translate(-125.74 -264.19)"/><path class="a" d="M178.24,335.77a1.68,1.68,0,0,0-1.68,1.7,1.58,1.58,0,0,0,.48,1.1,2.09,2.09,0,0,0-.6-.1,2.12,2.12,0,0,0,0,4.24,2.51,2.51,0,0,0,.56-.08,3.63,3.63,0,0,1-3.52,2.56c-3.12,0-4.36-3.36-4.48-4.16a2.09,2.09,0,1,0,2-2.68,2.13,2.13,0,0,0-.62.12,2.09,2.09,0,1,0-3.48-1.58,2.16,2.16,0,0,0,.74,1.6,2,2,0,0,0-.68-.14,2.1,2.1,0,1,0,2,2.68c-.12,1-1.88,4.16-4.5,4.16a3.55,3.55,0,0,1-3.54-2.56,2.53,2.53,0,0,0,.56.08,2.12,2.12,0,1,0,0-4.24,1.89,1.89,0,0,0-.6.1,1.58,1.58,0,0,0,.48-1.1,1.69,1.69,0,0,0-1.7-1.7,1.8,1.8,0,0,0-1.06.2c.44,1.74,1,5.22,1,5.7l1.46,9.52h15.72s0-.16,0-.28l1.42-9.24c.32-2.16.7-4.43,1-5.7A1.8,1.8,0,0,0,178.24,335.77Z" transform="translate(-125.74 -264.19)"/><path class="a" d="M208,335.77a1.68,1.68,0,0,0-1.68,1.7,1.58,1.58,0,0,0,.48,1.1,2.09,2.09,0,0,0-.6-.1,2.12,2.12,0,1,0,0,4.24,2.52,2.52,0,0,0,.56-.08,3.63,3.63,0,0,1-3.52,2.56c-3.12,0-4.36-3.36-4.48-4.16a2.09,2.09,0,1,0,2-2.68,2.13,2.13,0,0,0-.62.12,2.09,2.09,0,1,0-3.48-1.58,2.17,2.17,0,0,0,.74,1.6,2,2,0,0,0-.68-.14,2.1,2.1,0,1,0,2,2.68c-.12,1-1.88,4.16-4.5,4.16a3.55,3.55,0,0,1-3.54-2.56,2.53,2.53,0,0,0,.56.08,2.12,2.12,0,0,0,0-4.24,1.89,1.89,0,0,0-.6.1,1.58,1.58,0,0,0,.48-1.1,1.69,1.69,0,0,0-1.7-1.7,1.8,1.8,0,0,0-1.06.2c.44,1.74,1,5.22,1,5.7l1.46,9.52h15.72s0-.16,0-.28l1.42-9.24c.32-2.16.74-4.57,1-5.7A1.8,1.8,0,0,0,208,335.77Z" transform="translate(-125.74 -264.19)"/><path class="a" d="M194.27,354.78a1.85,1.85,0,0,0-1.85,1.87,1.74,1.74,0,0,0,.53,1.21,2.33,2.33,0,1,0-.66,4.57,2.8,2.8,0,0,0,.62-.09,4,4,0,0,1-3.88,2.82c-3.44,0-4.81-3.71-4.94-4.59a2.31,2.31,0,1,0,2.21-3,2.36,2.36,0,0,0-.68.13,2.31,2.31,0,1,0-3.84-1.74,2.39,2.39,0,0,0,.82,1.76,2.17,2.17,0,0,0-.75-.15,2.32,2.32,0,1,0,2.21,3c-.13,1.06-2.07,4.59-5,4.59a3.92,3.92,0,0,1-3.9-2.82,2.79,2.79,0,0,0,.62.09,2.34,2.34,0,1,0,0-4.68,2.08,2.08,0,0,0-.66.11,1.74,1.74,0,0,0,.53-1.21,1.86,1.86,0,0,0-1.87-1.87,2,2,0,0,0-1.17.22c.49,1.92,1.06,5.76,1.15,6.29l1.61,10.5H192.7s0-.18,0-.31l1.57-10.19c.35-2.38.8-5.05,1.13-6.29A2,2,0,0,0,194.27,354.78Z" transform="translate(-125.74 -264.19)"/></svg>