<svg xmlns="http://www.w3.org/2000/svg" viewBox="0 0 83.05 78.93"><defs><style>.a,.b{fill:#231f20;}.a,.c{fill-rule:evenodd;}.c,.d{fill:#bf2f38;}</style></defs><title>UU_logo</title><path class="a" d="M427.26,635.12a2,2,0,0,1-.94-.73c-.45-.7-2-2.93-2.26-3.37a.17.17,0,0,1,0-.22l.43-.12a1.55,1.55,0,0,0,1.11-1,3.29,3.29,0,0,0,0-1.84,1.92,1.92,0,0,0-.76-1,1.13,1.13,0,0,0-.43-.18,2.54,2.54,0,0,0-.63-.08c-1.3,0-2.44,0-3.73,0a.13.13,0,0,0-.13.13c0,.1.14.08.25.13a.69.69,0,0,1,.34.69v6.81a.62.62,0,0,1-.55.7c-.13,0-.16.22.06.21a13.5,13.5,0,0,1,2.17,0,.14.14,0,0,0,.16-.13c0-.05,0-.08-.12-.11-.38-.11-.53-.15-.57-.64l0-2.66c0-.05,0-.5,0-.56s.66-.11.93-.09.34.22.45.39c.83,1.19,1.32,2,2,3a1.79,1.79,0,0,0,.73.63,3.46,3.46,0,0,0,1.37.31.17.17,0,0,0,.13-.08c0-.06,0-.16,0-.21Zm-4.49-4.71a3.31,3.31,0,0,1-1-.1c-.08,0-.1-.08-.1-.2,0-1.37,0-2.54,0-2.75s.37-.16.58-.16a3.4,3.4,0,0,1,1.74.19,1.38,1.38,0,0,1,.48.65,2.74,2.74,0,0,1,.08,1.12,1.38,1.38,0,0,1-.62,1,3.72,3.72,0,0,1-1.23.27Z" transform="translate(-379 -556.55)"/><path class="a" d="M431.67,619.41a.94.94,0,0,1-.64-.49c-.82-1.64-2.68-6.38-2.68-6.38-.31-.75-.69-1.71-.8-2s-.15,0-.21,0c-.86,2-3.39,7.38-3.74,8a2.31,2.31,0,0,1-.63.71c-.15.12-.36.1-.36.22a.13.13,0,0,0,.11.12,14.91,14.91,0,0,1,2,0c.08,0,.12-.07.12-.14s-.17-.12-.26-.2a.49.49,0,0,1-.15-.55c.28-.8.63-1.52,1-2.26a.24.24,0,0,1,.2-.16h3.1c.07,0,.08,0,.1.08l.71,1.76a2.05,2.05,0,0,1,.15,1.05c-.07.25-.41.15-.41.34s.06.09.14.08a17.17,17.17,0,0,1,2.33,0,.1.1,0,0,0,.1-.1c0-.07-.07-.1-.16-.13Zm-3.66-3.8h-2.13a.06.06,0,0,1,0-.1c.43-1,.89-1.92,1.31-2.9,0,0,.09-.1.11,0l1.11,2.8c.09.24,0,.24-.38.24Z" transform="translate(-379 -556.55)"/><path class="a" d="M448.22,619.41a.94.94,0,0,1-.64-.49c-.82-1.64-2.68-6.38-2.68-6.38-.31-.75-.69-1.71-.8-2s-.15,0-.21,0c-.86,2-3.39,7.38-3.74,8a2.31,2.31,0,0,1-.63.71c-.15.12-.36.1-.36.22a.13.13,0,0,0,.11.12,14.91,14.91,0,0,1,2,0c.08,0,.12-.07.12-.14s-.17-.12-.26-.2a.49.49,0,0,1-.15-.55c.28-.8.63-1.52,1-2.26a.24.24,0,0,1,.2-.16h3.1c.07,0,.08,0,.1.08l.71,1.76a2.05,2.05,0,0,1,.15,1.05c-.07.25-.41.15-.41.34s.06.09.14.08a17.17,17.17,0,0,1,2.33,0,.1.1,0,0,0,.1-.1c0-.07-.07-.1-.16-.13Zm-3.66-3.8h-2.13a.06.06,0,0,1,0-.1c.43-1,.89-1.92,1.31-2.9,0,0,.09-.1.11,0l1.11,2.8c.09.24,0,.24-.38.24Z" transform="translate(-379 -556.55)"/><path class="b" d="M421,610.92c.2,0,.18.18.18.34,0,.41,0,.71,0,1.19,0,.09,0,.23-.08.23s-.22-.47-.37-.65a2,2,0,0,0-1.44-.66,1.25,1.25,0,0,0-1.4,1.15c0,.83.16,1.09,1.23,1.59.67.32,2.2.76,2.74,1.59a2.4,2.4,0,0,1,.34,1.38,3,3,0,0,1-.66,1.77c-.91,1.15-3.19,1-4.36.84-.16,0-.36.08-.38-.12,0-.58,0-1.11,0-1.69,0-.16.09-.21.15-.16a2,2,0,0,1,.13.3c.41.77,1,1.06,2.24,1.06a1.91,1.91,0,0,0,1.83-1.22,1.38,1.38,0,0,0-.29-1.41,6,6,0,0,0-2.58-1.45,2.24,2.24,0,0,1-1.42-2.24,2,2,0,0,1,.82-1.58,4.69,4.69,0,0,1,3.29-.25Z" transform="translate(-379 -556.55)"/><path class="b" d="M435.08,610.93c.07,0,.09.12,0,.19s-.4.13-.5.38a6.19,6.19,0,0,0-.12,1.63v3.27c0,1.27-.16,1.83.59,2.41a5.69,5.69,0,0,0,2.1.12,1.44,1.44,0,0,0,1.25-.8c0-.07.07-.17.15-.17s.11.09.1.21c-.05.41-.11.95-.15,1.26a.27.27,0,0,1-.21.19c-1.64.07-4.14-.05-5.44,0-.06,0-.16,0-.16-.1s.08-.15.17-.19.33-.09.46-.33a1.55,1.55,0,0,0,.16-.72c.06-2.69,0-5.86-.07-6.74,0-.26-.35-.33-.57-.43s0-.2.07-.19a17.24,17.24,0,0,0,2.18,0Z" transform="translate(-379 -556.55)"/><path class="b" d="M396.42,633.32V628a1.36,1.36,0,0,0-.1-.5,1.06,1.06,0,0,0-.53-.65c-.11-.06-.09-.22,0-.21a16.68,16.68,0,0,0,1.83,0c.07,0,.13,0,.13.07s-.18.17-.29.28a.89.89,0,0,0-.32.6c-.08,1.13,0,6.32,0,6.32,0,.51,0,.89,0,1.42,0,.15-.11.22-.16.17-.32-.33-.71-.65-1.09-1.09-1.43-1.32-4.54-4.42-6-5.73,0,0-.1,0-.1,0s0,5,.11,5.88a1.09,1.09,0,0,0,.55.57s.08,0,.08.09,0,.08-.11.07a8.34,8.34,0,0,0-2.08,0c-.07,0-.09-.05-.09-.1s.44-.12.64-.57.12-7.6.12-7.6v-.8c0-.07.09-.08.13,0s6.6,6.59,7.26,7.16Z" transform="translate(-379 -556.55)"/><path class="b" d="M446.15,626.56a.11.11,0,0,1,.09.07v1.43c0,.3-.2.24-.27,0a2,2,0,0,0-.23-.52,1.25,1.25,0,0,0-.89-.49h-1.63c-.21,0-.3.09-.3.27a69,69,0,0,0,0,7,.83.83,0,0,0,.65.64c.12,0,.18.2-.06.2h-2.48c-.2,0-.18-.18,0-.22a.74.74,0,0,0,.52-.31,1.13,1.13,0,0,0,.17-.61c0-.4,0-4.82,0-6.32,0-.49-.07-.62-.17-.65a6.08,6.08,0,0,0-2.27.1.89.89,0,0,0-.58.86.13.13,0,0,1-.13.13c-.06,0-.09,0-.09-.11l0-1.44c0-.07.07-.13.26-.13l7.34,0Z" transform="translate(-379 -556.55)"/><path class="b" d="M417.58,626.74c0,.39,0,.63,0,1a.08.08,0,0,1-.07.07c-.11,0-.23-.36-.47-.49a4.58,4.58,0,0,0-2.24-.23s-.46,0-.47.11,0,2,0,3c0,0,0,.06.09.06H417c.22,0,.27-.23.3-.29s.21-.14.2,0c0,.5-.06,1-.06,1.45,0,0-.07.06-.12,0a1,1,0,0,0-.86-.49,18.27,18.27,0,0,0-2.15,0s-.05,0-.05.11c0,.92,0,1.65,0,2.57a1.05,1.05,0,0,0,.34.83,2.94,2.94,0,0,0,1.74.21c.46,0,1,0,1.26-.36.16-.23.07-.35.28-.61,0,0,.13,0,.13,0,0,.62,0,.78,0,1.47,0,.1-.1.08-.1.08s-5.07,0-5.28,0a.1.1,0,0,1,0-.19c.28-.09.61-.11.61-.69l0-2.65a30.26,30.26,0,0,0,0-4.32.59.59,0,0,0-.37-.56c-.08,0-.25,0-.25-.13s0-.17.22-.16c1.51,0,3,0,4.55,0,.14,0,.27,0,.27.2Z" transform="translate(-379 -556.55)"/><path class="b" d="M411.21,626.56c.13,0,.16.11.07.16s-.48.18-.59.45c-1.13,2.78-2.3,5.46-3.46,8.23,0,0-.09.08-.13,0s-2.2-4.82-3.89-8.25c-.14-.28-.44-.25-.66-.37a.11.11,0,0,1,0-.11s0-.08.11-.08c.54,0,1.59,0,2.21,0a.1.1,0,0,1,.11.12c0,.22-.48.23-.29.67.51,1.2,1.31,3.15,2.67,5.82,0,.09.13-.15.18-.26.74-1.68,1.38-3.43,2.08-5.13.06-.15.24-.73-.14-.93-.08,0-.23-.08-.23-.16s0-.12.1-.12Z" transform="translate(-379 -556.55)"/><path class="b" d="M401.65,626.58c.1,0,.15.21,0,.23-.41,0-.56.26-.57,1,0,.9,0,6,0,6a2,2,0,0,0,.21.95c.22.27.52.24.52.37s0,.13-.08.12a21.52,21.52,0,0,0-2.31,0c-.06,0-.08-.07-.08-.11,0-.19.29-.08.43-.22a.72.72,0,0,0,.2-.48c.06-3.42.07-4.64,0-7.07,0-.49-.6-.58-.77-.67s0-.21.09-.2c.8,0,1.58,0,2.38,0Z" transform="translate(-379 -556.55)"/><path class="b" d="M400.21,610.91c.1,0,.11.05.11.09s0,.09-.1.1c-.51.16-.62.69-.64,1.15,0,1.38,0,2.93,0,4.35a3.27,3.27,0,0,1-.64,2,3,3,0,0,1-1.91,1,6,6,0,0,1-2,.06,2.78,2.78,0,0,1-1.88-.93,2.82,2.82,0,0,1-.7-2.07v-4.81c0-.43-.08-.7-.53-.86a.12.12,0,0,1,0-.11c0-.07.24,0,.36,0h2a.07.07,0,0,1,.07.07c0,.09-.16.09-.25.14-.56.29-.43.85-.45,1.44v3c0,1.16-.16,2.74,1.15,3.28a3.68,3.68,0,0,0,1.41.17,2.22,2.22,0,0,0,2.52-2c.05-1.3,0-4.79,0-5.08a1.44,1.44,0,0,0-.76-.86.11.11,0,0,1,.11-.17c.41,0,1.82,0,2.16,0Z" transform="translate(-379 -556.55)"/><path class="a" d="M406.14,610.94c-1.32-.15-2.75,0-4.09,0-.11,0-.27,0-.27.1s.2.13.33.17.48.36.5,1,0,4.67,0,5.48c0,.55.07,1.6-.58,1.81-.07,0-.19.08-.19.13s0,.09.07.09a21.84,21.84,0,0,1,2.36,0c.08,0,.1,0,.09-.11s-.2-.11-.32-.17c-.31-.17-.35-.67-.35-1,0-1,0-1.83,0-2.69,0-.18.09-.2.18-.19,3.35.29,3.81-1.29,3.79-2.49,0-1-.41-1.92-1.52-2Zm-.68,3.88c-.31,0-1.1,0-1.53,0-.14,0-.17-.16-.17-.23a27,27,0,0,1,0-3c0-.15.19-.12.3-.13a7.84,7.84,0,0,1,1.73,0,.9.9,0,0,1,.61.43,2.88,2.88,0,0,1,.25,1.17,1.48,1.48,0,0,1-1.17,1.7Z" transform="translate(-379 -556.55)"/><path class="a" d="M413.59,610.94c-1.32-.15-2.75,0-4.09,0-.11,0-.27,0-.27.1s.2.13.33.17.48.36.5,1,0,4.67,0,5.48c0,.55.07,1.6-.58,1.81-.07,0-.19.08-.19.13s0,.09.07.09a21.84,21.84,0,0,1,2.36,0c.08,0,.1,0,.09-.11s-.2-.11-.32-.17c-.31-.17-.35-.67-.35-1,0-1,0-1.83,0-2.69,0-.18.09-.2.18-.19,3.35.29,3.81-1.29,3.79-2.49,0-1-.41-1.92-1.52-2Zm-.68,3.88c-.31,0-1.1,0-1.53,0-.14,0-.17-.16-.17-.23a27,27,0,0,1,0-3c0-.15.19-.12.3-.13a7.84,7.84,0,0,1,1.73,0,.9.9,0,0,1,.61.43,2.88,2.88,0,0,1,.25,1.17,1.48,1.48,0,0,1-1.17,1.7Z" transform="translate(-379 -556.55)"/><path class="b" d="M387.28,626.64c.1,0,.11.05.11.09s0,.09-.1.1c-.51.16-.62.69-.64,1.15,0,1.38,0,2.93,0,4.35a3.27,3.27,0,0,1-.64,2,3,3,0,0,1-1.91,1,6,6,0,0,1-2,.06,2.78,2.78,0,0,1-1.88-.93,2.82,2.82,0,0,1-.7-2.07v-4.81c0-.43-.08-.7-.53-.86a.12.12,0,0,1,0-.11c0-.07.24,0,.36,0h2a.07.07,0,0,1,.07.07c0,.09-.16.09-.25.14-.56.29-.43.85-.45,1.44v3c0,1.16-.16,2.74,1.15,3.28a3.68,3.68,0,0,0,1.41.17,2.22,2.22,0,0,0,2.52-2c.05-1.3,0-4.79,0-5.08a1.44,1.44,0,0,0-.76-.86.11.11,0,0,1,.11-.17c.41,0,1.82,0,2.16,0Z" transform="translate(-379 -556.55)"/><path class="b" d="M432.28,626.51c.2,0,.18.18.18.34,0,.41,0,.71,0,1.19,0,.09,0,.23-.08.23s-.22-.47-.37-.65a2,2,0,0,0-1.44-.66,1.25,1.25,0,0,0-1.4,1.15c0,.83.16,1.09,1.23,1.59.67.32,2.2.76,2.74,1.59a2.4,2.4,0,0,1,.34,1.38,3,3,0,0,1-.66,1.77c-.91,1.15-3.19,1-4.36.84-.16,0-.36.08-.38-.12,0-.58,0-1.11,0-1.69,0-.16.09-.21.15-.16a2,2,0,0,1,.13.3c.41.77,1,1.06,2.24,1.06a1.91,1.91,0,0,0,1.83-1.22,1.38,1.38,0,0,0-.29-1.41,6,6,0,0,0-2.58-1.45,2.24,2.24,0,0,1-1.42-2.24,2,2,0,0,1,.82-1.58,4.69,4.69,0,0,1,3.29-.25Z" transform="translate(-379 -556.55)"/><path class="b" d="M437.09,626.54c.1,0,.15.21,0,.23-.41,0-.56.26-.57,1,0,.9,0,6,0,6a2,2,0,0,0,.21.95c.22.27.52.24.52.37s0,.13-.08.12a21.53,21.53,0,0,0-2.31,0c-.06,0-.08-.07-.08-.11,0-.19.29-.08.43-.22a.72.72,0,0,0,.2-.48c.06-3.42.07-4.64,0-7.07,0-.49-.6-.58-.77-.67s0-.21.09-.2c.8,0,1.58,0,2.38,0Z" transform="translate(-379 -556.55)"/><path class="b" d="M452.81,626.74c0,.39,0,.63,0,1a.08.08,0,0,1-.07.07c-.11,0-.23-.36-.47-.49a4.58,4.58,0,0,0-2.24-.23s-.46,0-.47.11,0,2,0,3c0,0,0,.06.09.06h2.62c.22,0,.27-.23.3-.29s.21-.14.2,0c0,.5-.06,1-.06,1.45,0,0-.07.06-.12,0a1,1,0,0,0-.86-.49,18.27,18.27,0,0,0-2.15,0s-.05,0-.05.11c0,.92,0,1.65,0,2.57a1.05,1.05,0,0,0,.34.83,2.94,2.94,0,0,0,1.74.21c.46,0,1,0,1.26-.36.16-.23.07-.35.28-.61,0,0,.13,0,.13,0,0,.62,0,.78,0,1.47,0,.1-.1.08-.1.08s-5.07,0-5.28,0a.1.1,0,0,1,0-.19c.28-.09.61-.11.61-.69l0-2.65a30.27,30.27,0,0,0,0-4.32.59.59,0,0,0-.37-.56c-.08,0-.25,0-.25-.13s0-.17.22-.16c1.51,0,3,0,4.55,0,.14,0,.27,0,.27.2Z" transform="translate(-379 -556.55)"/><path class="b" d="M462,626.54a.1.1,0,0,1,.09.07V628c0,.3-.2.24-.27,0a2,2,0,0,0-.23-.52,1.25,1.25,0,0,0-.89-.49H459c-.21,0-.3.09-.3.27a69,69,0,0,0,0,7,.83.83,0,0,0,.65.64c.12,0,.18.2-.06.2h-2.48c-.2,0-.18-.18,0-.22a.74.74,0,0,0,.52-.31,1.13,1.13,0,0,0,.17-.61c0-.4,0-4.82,0-6.32,0-.49-.07-.62-.17-.65a6.08,6.08,0,0,0-2.27.1.89.89,0,0,0-.58.86.13.13,0,0,1-.13.13c-.06,0-.09,0-.09-.11l0-1.44c0-.07.07-.13.26-.13l7.34,0Z" transform="translate(-379 -556.55)"/><path class="c" d="M411.29,593.7a6.65,6.65,0,0,0-1.15-.7,1.1,1.1,0,0,0-1.15.39,1.05,1.05,0,0,0-.08,1.06c.1.2-.47.34-.52.51-.23.29,0,.77.2.93s.42.31.63.46a4.18,4.18,0,0,0,1.1.56c.05,0,.16,0,.2,0s0-.13-.11-.3.18-.76.29-1c.21-.43.33-.86.77-1.1.19-.08.5.07.59-.16-.17-.31-.54-.38-.79-.63ZM409.63,596c-.23.11-.42-.21-.59-.31a.93.93,0,0,1,.07-.4c.08-.07.29-.29.4-.24a1.24,1.24,0,0,0,.42.33c0,.17-.22.49-.29.62Zm.72-1.43c-.05.08-.15.34-.26.37a1.29,1.29,0,0,1-.48-.36c-.3-.32,0-.6.08-.8a1,1,0,0,1,1,0c.17.27-.29.55-.35.78Z" transform="translate(-379 -556.55)"/><path class="c" d="M418,579.89c-.2.08,0,.39-.36.42a1,1,0,0,1-.8-.49c.12-.15.48-.21.47-.67a.73.73,0,0,0-.6-.82,5,5,0,0,0-1.13-.06c-.14,0-.37,0-.46.1s.13.11.19.21a9.28,9.28,0,0,1,0,1.83c0,.15-.32.22-.18.37s.45,0,.63.06.17.05.25,0,0-.27,0-.43-.16-.53.37-.2c.3.19.53.49.88.57s.6.11.75-.11a.87.87,0,0,0,.18-.67c-.05-.08-.08-.18-.18-.14Zm-1.47-.41c-.08.17-.28.19-.45.17s0-.53-.08-.64a.41.41,0,0,1,0-.32c.16-.06.41-.07.5.13a1.26,1.26,0,0,1,0,.66Z" transform="translate(-379 -556.55)"/><path class="c" d="M416.44,566.38c-.11-.13-.76.08-.89.14-.32.23-.14.64-.08.94l0,.94a4.06,4.06,0,0,1-.25.89c.15.15.39,0,.57-.06s.29-.08.33-.23-.11-.06-.16-.09-.09-.11-.07-.19.18-.31.32-.43.72-.37.89-.25a.33.33,0,0,1,.14.26c0,.15-.37.36-.05.45s.77-.33,1.08-.45l0-.06c-.27-.25-.22-.06-.43-.37a13.35,13.35,0,0,0-1.37-1.49Zm.2,1.37c-.1.05-.65.34-.75.26a1.7,1.7,0,0,1,0-1.06c.3-.14.6.42.76.56a.27.27,0,0,1,0,.24Z" transform="translate(-379 -556.55)"/><path class="c" d="M413.53,569.47a.34.34,0,0,0-.34.11.62.62,0,0,0,0,.37.41.41,0,0,1-.27.32l-.43,0a1.08,1.08,0,0,0-.15-1.07c-.2-.21-.38-.36-.67-.3a.86.86,0,0,0-.81.42c-.26.25-.62.44-.87.68-.05.08,0,.16.07.2.25-.05.43.11.61.24.23.29.51.71.76,1s-.07.46.14.65a.2.2,0,0,0,.21,0l.72-.73c.05-.13,0-.3-.2-.23A.23.23,0,0,1,412,571c.35-.2.84-.08,1.22-.23a1,1,0,0,0,.54-.59.63.63,0,0,0-.25-.68Zm-1.86,1.07c-.23,0-.51-.6-.72-.69a.69.69,0,0,1,.29-.32c.35-.26.66.25.69.52s-.18.4-.26.49Z" transform="translate(-379 -556.55)"/><path class="c" d="M418.6,597.28a2.6,2.6,0,0,1-.43.88,1.58,1.58,0,0,1-.88.51c-.48.14-.64-.21-1,.19a.19.19,0,0,0,.08.23,1.84,1.84,0,0,0,1,.14,6.87,6.87,0,0,0,1,0c.29-.14.61-.16.88-.3s.73-.5,1.06-.46l.91.46a4.82,4.82,0,0,0,1.94.15.93.93,0,0,0,.61-.49c0-.11.06-.26,0-.35s-.27,0-.42,0a2,2,0,0,1-1.34-.6,3.16,3.16,0,0,1-.28-.37H421a7.3,7.3,0,0,0,.7,1c0,.07.2.11.14.21s-.55-.24-.7-.34c-.43-.22-.83-.8-1.5-.44l-.39.24c-.08.05-.45.38-.55.34l.32-.56a4.34,4.34,0,0,1,.16-.47Z" transform="translate(-379 -556.55)"/><path class="c" d="M416.65,595.28h0c.47.06,1,0,1.45.14.22.2.55.22.68.53a.79.79,0,0,1,0,.5c-.09.27-.15.55-.24.83h.61a3.18,3.18,0,0,0,.22-.75,1.16,1.16,0,0,0-.06-.84,1.85,1.85,0,0,0-.32-.4Zm4.33,0a2,2,0,0,0-.29.92,2.92,2.92,0,0,0,.36,1.09h.6a1.62,1.62,0,0,1-.24-1.44c.16-.27.49-.27.79-.29s.79-.18,1.19-.27Z" transform="translate(-379 -556.55)"/><path class="c" d="M408.65,591.28l0,0a15.91,15.91,0,0,0,1.71,1.5,22.44,22.44,0,0,0,2.49,1.37,9.7,9.7,0,0,0,1.54.55,15.08,15.08,0,0,0,2.24.56h2.41c-.33-.33-.76-.65-.94-.83,0-.1.07-.1.16-.14.38,0,1.31.58,1.6.27.09-.08.16-.27.3-.24.2.35.63.23,1,.19.14,0,.42-.17.56-.21s.05.08,0,.11a2.44,2.44,0,0,0-.74.84h2.4a6.9,6.9,0,0,0,1.86-.58,15.06,15.06,0,0,0,2.26-.91c.64-.38,1.28-.75,1.9-1.18a10,10,0,0,0,1.43-1.33H430a12.65,12.65,0,0,1-2.07,1.45,19.35,19.35,0,0,1-3.12,1.48,16.79,16.79,0,0,1-2,.66c-.17,0-.36,0-.45-.12s-.07-.18,0-.26.54-.14.66-.45-.15-.25-.31-.34-.6.07-.91.1a1.6,1.6,0,0,1-1.07.15,1.65,1.65,0,0,1-.35-.3v-.06a5.86,5.86,0,0,0,1,0c.58,0,1.09-.18,1.68-.14a5.88,5.88,0,0,0,2.61-.75,11.09,11.09,0,0,0,2.36-1.36h-1c-.58.35-1.16.68-1.75,1l-1.26.43-.36.08-3.1.31a5.25,5.25,0,0,1-1.14,0c-.52-.09-1.06-.12-1.58-.23a12.79,12.79,0,0,1-5-1.54h-1.06a6.73,6.73,0,0,0,2.22,1.18,24.29,24.29,0,0,0,2.58.7,27.66,27.66,0,0,0,3.5.4l0,0c-.36.14-.37.82-.86.57s-.87-.37-1.37-.57c-.23,0-.66-.13-.78.12a.69.69,0,0,0-.07.48.17.17,0,0,0,.21.08c.08-.13.27,0,.39,0a.14.14,0,0,1,0,.17c-.39.26-.86,0-1.29,0a10.11,10.11,0,0,1-1.73-.51c-.35-.11-.69-.28-1-.36-.78-.42-1.58-.77-2.32-1.26a10.39,10.39,0,0,1-1.47-1.08Z" transform="translate(-379 -556.55)"/><path class="c" d="M404.34,583.28c.2.71.44,1.41.7,2.1s.45,1.19.77,1.74a40.41,40.41,0,0,0,2.84,4.16h1.08a7,7,0,0,1-1.35-1.57,17,17,0,0,1-2.23-3.66c-.14-.45-.43-.85-.58-1.29a12.13,12.13,0,0,1-.52-1.48Zm2,0,.23.85c.2.64.51,1.24.71,1.88a12,12,0,0,0,1.71,2.66,15.32,15.32,0,0,0,1.83,2l.87.64h1.06q-.3-.19-.59-.4a11.31,11.31,0,0,1-2.31-2.06,15.45,15.45,0,0,1-1.32-1.68,6.58,6.58,0,0,1-.85-1.48,12.12,12.12,0,0,1-.63-2.38Zm3.6,0c.24.44.51.86.74,1.31a15.35,15.35,0,0,0,1.64,2c.41.41.87.76,1.27,1.15a12.52,12.52,0,0,0,4.1,1.91,11.94,11.94,0,0,0,2.47.38,11.36,11.36,0,0,0,2.24-.25c.3,0,.52-.13.79-.19a8.42,8.42,0,0,0,1.67-.62c.63-.3,1.24-.69,1.87-1a21.43,21.43,0,0,0,2-2,16,16,0,0,0,1.09-1.64c.15-.38.39-.72.58-1.09h-.67a5.7,5.7,0,0,1-.63.92c-.27.06-.46-.23-.64-.41l-.43-.51h-.85c.33.33.66.66,1,1,.19.28.54.6.28,1a5.63,5.63,0,0,1-1.36,1.5.38.38,0,0,1-.35.08c-.42-.7-.73-1.44-1.1-2.16-.2-.3-.29-.66-.46-1a3.34,3.34,0,0,0-.23-.39h-.66c.09.19.19.39.29.58.33.53.51,1.12.79,1.67s.6,1.06,1,1.56a.22.22,0,0,1,0,.2A4.14,4.14,0,0,1,425,588a3.63,3.63,0,0,1-1.14.26.27.27,0,0,1-.22-.24c-.24-1.25-.26-2.61-.48-3.88,0-.29-.05-.6-.08-.91h-1.51l.17.11c.32.28.79.52.77,1a2.18,2.18,0,0,1-.14,1.81,2.52,2.52,0,0,1-1.25,1.46,2.42,2.42,0,0,1-2.2,0,3,3,0,0,1-.8-3.14,3,3,0,0,1,1.16-1.24h-1.41a3.65,3.65,0,0,0-1.15,2.53l-.14.95c-.29.33-.33.79-.64,1.1-.45.06-.77-.26-1.13-.48a.8.8,0,0,1-.09-.88c.23-.63.76-1.15,1-1.79.29-.46.45-1,.73-1.43h-.57c-.25.55-.5,1.1-.8,1.62-.24.31-.31.7-.54,1s-.21.63-.58.66a3.34,3.34,0,0,1-1.44-1.12c-.11-.51.25-.91.48-1.32s.45-.56.67-.85h-.75a4.24,4.24,0,0,1-.51.51c-.23.11-.36.44-.66.34a3.09,3.09,0,0,1-.57-.85Zm23.32,0,0,.2c-.18.48-.32,1-.53,1.43a10.47,10.47,0,0,1-.73,1.5,13.09,13.09,0,0,1-1.22,1.69l-.61.69c-.57.38-1,1-1.61,1.39a9.64,9.64,0,0,1-1,.73l-.61.37h1c.44-.27.84-.65,1.27-1a24.45,24.45,0,0,0,2.73-3,11.94,11.94,0,0,0,1.66-3.07,5.2,5.2,0,0,0,.39-1Zm1.84,0-.18.54a16,16,0,0,1-1.35,2.87,23,23,0,0,1-1.81,2.84c-.43.56-1,1-1.5,1.48l-.24.27h.81c.31-.33.62-.65.95-1s.61-.79,1-1.17a12.48,12.48,0,0,0,1.35-2.13,14.48,14.48,0,0,0,.7-1.31,9.23,9.23,0,0,0,.92-2.43Zm-17.78,4.09c.26.57.87.75,1.37,1,.42.07.79.27,1.22.33.11,0,.09.15.1.24-.12.34-.57.14-.86.18a10.36,10.36,0,0,1-1.46-.41,2.67,2.67,0,0,1-1.14-.48c-.08,0,0-.14,0-.2a4.72,4.72,0,0,1,.36-.84.82.82,0,0,1,.11-.2l.32.39Zm5.69-.52c.06.56.16,1.1.21,1.66,0,.14-.14.23-.25.29a2.93,2.93,0,0,1-1,.26,2.4,2.4,0,0,1-1.11,0,.43.43,0,0,1,0-.51c.38-.35.9-.33,1.25-.74a3.31,3.31,0,0,0,.72-1c.06-.12.17,0,.17.07Z" transform="translate(-379 -556.55)"/><path class="c" d="M403.91,581.28a16.35,16.35,0,0,0,.43,2H405c-.19-.66-.35-1.34-.53-2Zm2,0a.73.73,0,0,1,0,.24c-.07.26.28,1,.31,1.21l.15.55H407l0-.18a8.75,8.75,0,0,1-.23-1.1c.08-.36.48-.18.74-.21s.44-.12.68-.12c.41.05,1-.17,1.2.34a5.33,5.33,0,0,0,.54,1.28h1.22a2.71,2.71,0,0,1-.23-.84c0-.17,0-.39.23-.44.46-.2,1.13.09,1.64,0l.41,0a.79.79,0,0,1,.46.16c0,.24-.23.4-.34.6s-.29.32-.43.48h.75a10.77,10.77,0,0,1,.73-.89,1.87,1.87,0,0,1,1.87-.36.24.24,0,0,1,.08.2c0,.26-.24.46-.32.72l-.15.33h.57l.12-.17a2.88,2.88,0,0,1,.85-1.15,1.13,1.13,0,0,1,1.35.34c.14.07.2-.1.32-.11a.83.83,0,0,1,.69,0,.37.37,0,0,0,.36.17c.27,0,.47-.2.72-.28a2.05,2.05,0,0,1,1.21.08,1.64,1.64,0,0,1,.23.76.28.28,0,0,1,0,.23c-.2.09-.15-.12-.48-.23l-.75-.32a3.55,3.55,0,0,0-1.27-.05,4.33,4.33,0,0,0-1.72.59l-.15.13h1.41A1.64,1.64,0,0,1,420,583a3.89,3.89,0,0,1,1.49.21l.07,0h1.51c0-.15,0-.3-.05-.44a1,1,0,0,1,0-.57.49.49,0,0,1,.7.08,6.87,6.87,0,0,1,.52.94h.66a1.5,1.5,0,0,1-.31-.76.34.34,0,0,1,.2-.25,5.54,5.54,0,0,1,1.17,0l.28.13.87.88H428a4.66,4.66,0,0,0-.7-.7c-.11-.14-.29-.27-.27-.46l.11-.08a7.59,7.59,0,0,1,2.37,0l.28.11.06.11a1.62,1.62,0,0,1-.16,1.06h.67a2.84,2.84,0,0,0,.2-.48,6.06,6.06,0,0,1,.47-1.07,6.83,6.83,0,0,1,1.59-.17l.94,0c.14.13,0,.34,0,.5-.1.4-.22.79-.31,1.2H434c.15-.49.26-1,.45-1.47a1.06,1.06,0,0,0,.18-.53Zm29.69,0a.4.4,0,0,0,0,.07,8.7,8.7,0,0,1-.45,1.93h.6l.09-.33c.13-.55.22-1.11.31-1.67Z" transform="translate(-379 -556.55)"/><path class="c" d="M403.65,579.28a5.55,5.55,0,0,0,.24,1.86l0,.14h.6l-.08-.27c0-.16-.11-.39,0-.51s.39.37.62.17.5-.47.56-.21.18.6.22.83h28.8c0-.19,0-.37.05-.44a.44.44,0,0,1,.06-.26c.14-.07.28.1.44.12s.33-.1.45,0-.07.44-.12.63h.53c0-.29.1-.58.15-.87a4.52,4.52,0,0,0,.13-1.13h-.75l.07.06.05.21a.39.39,0,0,1-.1.39.51.51,0,0,1-.44.17c-.18,0-.31-.19-.4-.33a1,1,0,0,1,.12-.49h-1a6.41,6.41,0,0,1,.11,1.37.47.47,0,0,1-.32.22,4.55,4.55,0,0,1-.79,0,19.42,19.42,0,0,1-2.47.08c-.38,0-.82,0-1.19.07a8.93,8.93,0,0,1-1.21.11c-.37-.06-.73,0-1.11,0a7.19,7.19,0,0,0-1.84,0c-1-.07-2,0-3,0a14.48,14.48,0,0,0-1.8,0c-.92-.07-1.84.06-2.73,0-1.48,0-3,0-4.49,0a15.26,15.26,0,0,0-1.86-.11,17.2,17.2,0,0,1-3-.29c-.39,0-.83,0-1.22,0-.11,0-.14-.13-.16-.21-.07-.41-.25-.8-.33-1.21h-1c0,.09.06.17,0,.18l-.25.34a.74.74,0,0,1-.55.06c-.12,0-.17-.14-.23-.22a1.32,1.32,0,0,1-.09-.37Z" transform="translate(-379 -556.55)"/><path class="c" d="M403.72,577.28a9.35,9.35,0,0,0-.12,1.32c0,.22,0,.45.05.68h.73a.93.93,0,0,1,0-.21c0-.06.13-.24.2-.25a1.26,1.26,0,0,1,.56,0c.11,0,.26.25.34.42h1a1.75,1.75,0,0,1,0-.93.53.53,0,0,1,.31-.28c1,0,2-.05,3.07,0,.21-.09.45,0,.67,0a20.44,20.44,0,0,1,2.24,0,14.26,14.26,0,0,1,2,.16,6.09,6.09,0,0,1,2-.07,3.77,3.77,0,0,1,1.13,0,3.6,3.6,0,0,0,1.21-.06c.76,0,1.5,0,2.25-.07.21,0,.4.05.61,0,.6-.06,1.16,0,1.75-.08,1,.07,2,0,3,.09a4.68,4.68,0,0,1,.92,0c1.4-.11,2.89-.11,4.31-.11.44-.07.93,0,1.38-.08a.66.66,0,0,1,.35.14A2.47,2.47,0,0,1,434,579c0,.09,0,.17,0,.25h1a.63.63,0,0,1,.69,0h.75c0-.13,0-.25,0-.38,0-.55-.06-1.09-.12-1.62h-.58c.09.68.15,1.46.15,1.46a.73.73,0,0,0-.38-.16c-.16,0-.54.23-.56.2a5.5,5.5,0,0,0-.1-1.17,1,1,0,0,1-.07-.32h-1.5l-.1.05c-.36,0-.73,0-1.07.08a10.65,10.65,0,0,0-1.1,0l0,0v-.09h-.53l0,.09c-.11.17-.34.13-.51.11a1.71,1.71,0,0,1-.33-.11l-.5,0-.11,0h-.74a1.63,1.63,0,0,1,.27.2c0,.1-.08.08-.12.11a8.59,8.59,0,0,0-1.09-.07,2,2,0,0,0-.66-.19l-.1,0h-.66a1.75,1.75,0,0,0,.29.17c0,.06-.13,0-.19.06a4.46,4.46,0,0,1-.91-.1l-.29-.13h-1.14a.1.1,0,0,1,0,.05.76.76,0,0,1-.41.12c-.13,0-.27,0-.36-.08l-.07-.09h-.66c0,.08-.09.17-.2.17a.55.55,0,0,1-.39-.17H421a.93.93,0,0,1,0,.12c0,.11-.16.1-.25.12s-.19-.13-.24-.24H420a.41.41,0,0,1-.16.36c-.11,0-.27,0-.33-.1a.3.3,0,0,1-.07-.26H419a.5.5,0,0,1-.29.36,1.51,1.51,0,0,1-.61-.07.14.14,0,0,1,0-.17l.09-.12h-.58l-.07.11c-.16.25-.48.08-.71.14-.08,0-.05-.11,0-.16l0-.09h-.59l-.15.17a2.34,2.34,0,0,1-1.28.11.13.13,0,0,1-.06-.19l.13-.09h-1.33a2.32,2.32,0,0,1-1.33,0h-3c-.09,0-.23,0-.32,0a5.33,5.33,0,0,1-1.16,0l-.51,0h-1.41l-.2,1c-.13.08-.24-.07-.37-.11s-.26-.3-.46-.21a.55.55,0,0,0-.35.17.09.09,0,0,1-.11-.07,8,8,0,0,1,.08-.83Z" transform="translate(-379 -556.55)"/><path class="c" d="M404.07,575.28a2.92,2.92,0,0,0-.08.75,2.08,2.08,0,0,0-.21,1c0,.08,0,.16-.06.25h.68c.07-.53.19-1,.27-1.58,0-.14.07-.28.1-.42Zm2.1,0a11.22,11.22,0,0,0-.22,1.28c0,.24-.1.48-.14.72h1.41a3.74,3.74,0,0,1-.53-.1.54.54,0,0,1-.16-.46,4.25,4.25,0,0,1,.24-1.43Zm3.71,0c-.24.63-.37,1.3-.61,1.93a.14.14,0,0,1-.07.07h3c-.07,0,0-.14,0-.19a11.48,11.48,0,0,1,2.2-1.05c.46-.11.83-.44,1.28-.59a1.85,1.85,0,0,0,.35-.16h-.9a4.16,4.16,0,0,1-.54.22,20.74,20.74,0,0,0-2,.85c-.51.21-1,.6-1.58.51-.07,0-.13-.12-.07-.2a7.75,7.75,0,0,1,1.83-.86l1.27-.53h-1.31a7.07,7.07,0,0,1-1.62.44c-.08,0-.2-.09-.22-.2a.39.39,0,0,1,.05-.25Zm7,0-.39.26c-.83.67-1.77,1.06-2.64,1.63l-.28.11h1.33c.74-.5,1.4-1.2,2.14-1.71a1,1,0,0,1,.35-.29Zm1,0,0,0a4.51,4.51,0,0,0-.46.69,14.92,14.92,0,0,1-1.12,1.28h.59a4.06,4.06,0,0,1,.67-.75c.17-.26.37-.47.52-.75a.35.35,0,0,0,.16-.32c0-.09,0-.07-.08-.14l-.11,0Zm.91,0a2.37,2.37,0,0,0,.72.26,3.16,3.16,0,0,0,.72,0c.13.1.34,0,.42.12a2.84,2.84,0,0,0,.24.66c-.07.36.11.66.1,1h.53l0-.05a6.18,6.18,0,0,1-.27-1.31,1,1,0,0,1-.14-.43c.11-.08.2.05.26.13.24.55.82,1,.79,1.62v0h.66c-.46-.6-.77-1.26-1.17-1.89a.09.09,0,0,1,.05-.11Zm3,0c.09.06.09.22.24.23a9.67,9.67,0,0,1,.89.88,7.91,7.91,0,0,1,.68.79.42.42,0,0,1,0,.1h1.14a7,7,0,0,1-.84-.54c-.57-.44-1-1-1.59-1.46Zm1,0a13.55,13.55,0,0,1,1.29.88,7.7,7.7,0,0,1,1.37.85l.38.28h.66a8.5,8.5,0,0,1-1.59-1.12,3.76,3.76,0,0,1-1.35-.83l-.08,0Zm1.46,0a1,1,0,0,0,.22.08,3.81,3.81,0,0,1,1.13.48c.26.09.45.33.71.44.45.3,1,.22,1.43.66a1.69,1.69,0,0,0,.45.34h.74c-.19-.11-.33-.32-.54-.42a1,1,0,0,1-.45-.29,3.74,3.74,0,0,1-.82-.39c-.28-.17-.58-.28-.87-.42a4.15,4.15,0,0,0-.84-.49Zm1.77,0,.12,0,.23,0c.17.22.48.12.69.23a3.32,3.32,0,0,1,1.1.42c.49.09.93.3,1.41.4a7.67,7.67,0,0,1,.79.57.49.49,0,0,1,0,.29h.53a2.74,2.74,0,0,0-.35-1.37c-.08-.21-.15-.42-.23-.63h-.85a.84.84,0,0,1,.24.61.17.17,0,0,1-.21.11c-.74-.14-1.37-.52-2.09-.73Zm7.27,0,.12.26a8.82,8.82,0,0,1,.42,1.4c0,.3-.37.26-.6.34h1.5a1.34,1.34,0,0,0-.1-.5c-.13-.5-.26-1-.41-1.5Zm2,0a13.15,13.15,0,0,1,.26,1.32c0,.18.08.42.12.68h.58a13.69,13.69,0,0,0-.27-1.62c0-.13-.06-.26-.09-.38Zm-17.12,2a7.63,7.63,0,0,0,.81-1.2c.11-.19-.09-.3-.12-.46a.27.27,0,0,0-.22-.08,3.45,3.45,0,0,0-.35.69,9.64,9.64,0,0,1-.7,1Zm1.28,0c0-.1.06-.21.07-.3a9.37,9.37,0,0,0,.2-.94.22.22,0,0,0-.15-.2.3.3,0,0,0-.33.14c-.15.2,0,.48-.09.71a3.07,3.07,0,0,0-.16.59Zm1,0,0-.06a2.49,2.49,0,0,1,.08-1.06.35.35,0,0,0-.23-.31.23.23,0,0,0-.26.11c0,.2-.12.46,0,.63a1.76,1.76,0,0,1-.05.46,1,1,0,0,1,0,.22Z" transform="translate(-379 -556.55)"/><path class="c" d="M404.41,574l0,.06c-.08.41-.22.79-.32,1.2h.7c.06-.26.11-.52.16-.78l.18-.47Zm2.06,0c0,.15-.09.3-.14.45s-.1.54-.16.8h.6c.13-.41.28-.82.37-1.25Zm4.06,0c-.18.27-.29.57-.47.83s-.12.27-.17.42H411a1.3,1.3,0,0,1,.12-.17c.26-.07.47-.24.73-.32a21.65,21.65,0,0,0,3.35-.76h-2c-.42.08-.85.14-1.3.18-.12,0-.26,0-.38-.08l0-.09Zm5.92,0a1.81,1.81,0,0,1-.37.09c-.48.1-2.84,1-3.28,1.15h1.26c.88-.37,1.91-.79,2.22-.9.09-.08.56-.24.72-.35Zm1.12,0a1.59,1.59,0,0,0,.64.94l.57.31h2.87l.05,0a.13.13,0,0,1,.09,0h.53l0,0a.29.29,0,0,1-.15-.24.14.14,0,0,1,.11-.11c.2,0,.3.26.47.34l.11,0h.69a8.94,8.94,0,0,0-1-.62c-.07-.05-.14-.14-.08-.23s.13-.27.19-.4h-.42a1.6,1.6,0,0,1-.44.61,1.93,1.93,0,0,1-.9.27,2.28,2.28,0,0,1-2-.48.88.88,0,0,1-.43-.4Zm6.64,0,.37.12c.68.2,1.44.21,2.12.44s1,.29,1.53.38.81.2,1.22.28l0,0h.85a2.77,2.77,0,0,0-.32-.64,2.51,2.51,0,0,0-.28-.61h-.67a1.74,1.74,0,0,1,.28.67.17.17,0,0,1-.17.11c-.35-.05-.66-.2-1-.28a9.08,9.08,0,0,0-1.44-.3A3.93,3.93,0,0,1,426,574Zm8.63,0c.15.42.29.84.46,1.25h.93a9.27,9.27,0,0,0-.48-1.25Zm2.13,0c.13.41.25.83.36,1.25h.58a11.92,11.92,0,0,0-.44-1.25ZM416,575.28c.3-.17.56-.4.86-.54s0-.33-.14-.28c-.57.21-1.08.56-1.62.82Zm1.35,0a.15.15,0,0,0,.06-.16c-.1-.1-.22-.14-.26-.06a2.47,2.47,0,0,1-.29.22Zm.61,0a.12.12,0,0,0-.13,0Zm7.43,0-.06,0a3.56,3.56,0,0,1-1.07-.39c-.31,0-.57-.18-.88-.23-.1,0-.23,0-.24.1,0,.32.36.25.58.36a1.53,1.53,0,0,1,.51.21Zm2,0h0c-.57-.2-1.15-.36-1.72-.54a6.21,6.21,0,0,1-1.45-.4.53.53,0,0,0-.39,0,.11.11,0,0,0,0,.17c.26.23.66.16.94.35s.85.27,1.27.42Z" transform="translate(-379 -556.55)"/><path class="c" d="M404.89,572.77a10.64,10.64,0,0,0-.49,1.25h.7l.25-.65c.12-.2.22-.4.32-.6Zm2,0c-.16.41-.28.83-.41,1.26h.67a5.18,5.18,0,0,1,.44-1.24Zm4.59,0-.23.28a2,2,0,0,0-.54.74,2,2,0,0,0-.17.23h.93c.07-.18.21-.26.36-.43s4.21-.18,4.29-.51-3.95.09-3.58-.3l0,0Zm6,0a.41.41,0,0,0,0,.17,3.21,3.21,0,0,0,.06,1.08h.86a4,4,0,0,1-.25-.66,1.53,1.53,0,0,1,.08-.6Zm1.34,0a.43.43,0,0,0-.09.15c-.08.11-.09.37-.29.32s-.06-.32,0-.48Zm.62,0a.22.22,0,0,1-.22,0l0,0Zm1.07,0c0,.15-.12.29-.15.44a.25.25,0,0,1-.17,0,2.94,2.94,0,0,1-.11-.48Zm1,0h0a.47.47,0,0,1-.2.37c-.18,0,0-.3-.24-.35s-.17.23-.32.05a.19.19,0,0,1-.05-.08Zm.34,0a.94.94,0,0,0,.11.34c.1,0,.27,0,.28.15a2,2,0,0,1-.13.76h.42a1.17,1.17,0,0,0,.09-.29c.12-.16.27,0,.39,0,.37.12.78.17,1.16.26H426a2.35,2.35,0,0,0-.57-.11,4.19,4.19,0,0,0-1.13-.21c-.55-.14-1.2-.11-1.58-.61a.2.2,0,0,1,.14-.26l1.49-.06Zm3.73,0,.55,0,.58,0h-1.13Zm2.16,0a1.92,1.92,0,0,1,.5.1c.05.06.17.13.15.23a5.46,5.46,0,0,1-1.86,0c-.38,0-.75,0-1.15,0s-.64-.21-.84.11a.16.16,0,0,0,.11.2,13.67,13.67,0,0,0,1.59.11,3.8,3.8,0,0,1,.83,0c.66,0,1.45-.23,1.9.38l0,.09h.67c-.13-.21-.27-.42-.39-.63s-.39-.41-.57-.63Zm4.54,0a3.6,3.6,0,0,1,.12.36,6.9,6.9,0,0,1,.39.9h.91l-.06-.12a7.21,7.21,0,0,0-.55-1.14Zm2.12,0c.17.39.33.78.5,1.17l0,.09h.51c-.17-.42-.35-.83-.51-1.25ZM415.15,574l.22-.06c.11-.17,1.58-.16,1.5-.5a22.62,22.62,0,0,0-3.13.42l-.64.13Zm1.85,0,0,0c0-.12-.33,0-.59,0Z" transform="translate(-379 -556.55)"/><path class="c" d="M405.72,571.28a12.68,12.68,0,0,0-.82,1.5h.79a8.24,8.24,0,0,1,.83-1.5Zm2.08,0-.31.45a3.92,3.92,0,0,0-.6,1h.7l.07-.15a11.54,11.54,0,0,1,.83-1.34Zm5.25,0-.32.26a15,15,0,0,0-1.25,1.23h1.08c.31-.3.91-.18,1.36-.18l2,.07a4.15,4.15,0,0,0,1,0c.07-.08.2,0,.2-.14s-.47-.06-.7-.18a15.78,15.78,0,0,0-1.68-.1,11,11,0,0,1-1.41-.11c-.05,0-.15-.09-.08-.16.43-.44,2.43-.06,2.82-.07,0,0,.08-.09.1-.14s-1.25-.27-1.67-.48Zm2.93,0c.21.1.42.2.6.26l.31.13c.25.16.56.18.82.34s-.16.49-.2.77h.76a4.12,4.12,0,0,1,.3-.65,2.8,2.8,0,0,1,.8-.84h-1.06c-.16.18-.31.41-.57.31s-.38-.22-.58-.32Zm5.37,0,.27.18a3,3,0,0,1,.54.45c.07.05,0,.16,0,.23s-.41.14-.35.37a1.21,1.21,0,0,1,.07.27h2.45c.42,0,.85,0,1.28,0H427a7.64,7.64,0,0,1,.83,0h1a7.92,7.92,0,0,1-.49-.63c-.32-.25-.56-.59-.85-.87h-.82a9.73,9.73,0,0,0-1.1.27l-.77,0a3.76,3.76,0,0,0-1,.08,6.1,6.1,0,0,0-1.11.33c-.23-.08-.1-.39-.26-.54a.25.25,0,0,1,0-.19Zm1.74,0-.15.06a.09.09,0,0,0,0,.13c.07.08.17.07.27.08s.4-.19.6-.27Zm8.48,0,.36.53c.12.33.28.64.41,1h.81l0-.06a7.14,7.14,0,0,0-.67-1.44Zm2.14,0c.1.21.2.42.3.64a6.82,6.82,0,0,1,.45.86H435l-.07-.19a8.7,8.7,0,0,1-.63-1.3Zm-15.22,1.49a.59.59,0,0,0,.07-.18c.09,0,.31-.13.35,0a.26.26,0,0,1-.07.14Zm.73,0c-.12-.11-.12-.31-.3-.38a.35.35,0,0,1-.26,0,.13.13,0,0,1,0-.17,1,1,0,0,1,.64-.11l.09.11a.52.52,0,0,1,.12.54l0,0Zm.9,0,0-.11c-.06-.16-.23-.32-.16-.5a.18.18,0,0,1,.11-.09c.25,0,.39.24.48.42a.45.45,0,0,1,0,.28Zm.65,0a.45.45,0,0,1,.31-.54.43.43,0,0,1,.35.11.54.54,0,0,1,.14.43Zm4.56-.87,1-.23c.3,0,.63-.15.88,0s.45.26.42.53a1.06,1.06,0,0,1-.82.15c-1.22,0-2.39.07-3.6.09l-.54,0a.14.14,0,0,1-.07-.18c.25,0,.4-.19.63-.21s.39,0,.57-.09l.91-.11.58,0Z" transform="translate(-379 -556.55)"/><path class="c" d="M407.1,569.28v0c-.24.45-.63.82-.88,1.25q-.26.36-.49.72h.79l.13-.16c.35-.62.88-1.13,1.26-1.73l.09-.11Zm2.22,0a20.4,20.4,0,0,0-1.53,2h.69a8.11,8.11,0,0,1,.67-.8,6.38,6.38,0,0,1,.91-1.1l.13-.09Zm6.88,0a13.7,13.7,0,0,0-2.11,1.13,10.39,10.39,0,0,0-1.05.87h1.42c-.12-.06-.17-.13-.1-.2.37-.37,1-.08,1.61.2h1.17a1.2,1.2,0,0,0-.44-.12,5,5,0,0,0-1.29-.56c-.07,0,0-.1,0-.14.12-.19.3,0,.45,0a2.34,2.34,0,0,0,.7.2,8.78,8.78,0,0,0,1,.44.16.16,0,0,0,.14-.11.2.2,0,0,0-.12-.2c-.19,0-.3-.17-.48-.19a6.47,6.47,0,0,0-.65-.45.15.15,0,0,1,0-.2.47.47,0,0,1,.33-.22c.36-.1.48.34.76.43s.53.68.88,1v.08l-.1.1h1.06l.08,0a2.75,2.75,0,0,1,1.64-.09,1.53,1.53,0,0,1,.28.13h1.07a.48.48,0,0,1,.09-.12c.61-.6,1.36-1.36,2.27-.91l.12.12c0,.24-.31.17-.45.3-.46.17-.91.4-1.36.6h.7c.36-.15.73-.3,1.08-.49a1.89,1.89,0,0,1,1.77.38s0,.07,0,.1h.79a1.84,1.84,0,0,0-.36-.27,9,9,0,0,0-1.43-.92c-.44-.25-.94-.33-1.36-.6a1.94,1.94,0,0,0-.54-.21h-2.18v0a4.28,4.28,0,0,1-.34,1.1s-.05.08-.11.07c-.17-.43.14-.76.11-1.17v0h-.49a2.72,2.72,0,0,1-.13.81c-.11.14,0,.38-.17.47a1.51,1.51,0,0,1-.8,0l-.08-.08a9.3,9.3,0,0,1-.05-1.13l0-.08Zm3.76,0,0,.07c0,.22-.15.57.11.69a.23.23,0,0,0,.2-.17l0-.43.08-.16Zm9.84,0c.6.51,1.05,1.16,1.63,1.75l0,.13.08.12h.87l-.12-.19a4.59,4.59,0,0,1-.52-.79c-.31-.33-.53-.69-.82-1Zm2.7,0c.29.39.55.79.81,1.19s.26.54.39.81h.57l-.09-.18c-.17-.27-.16-.63-.4-.88a2.67,2.67,0,0,0-.54-.82l-.15-.13Zm-13.73.66c0-.17-.18-.39,0-.56l.12-.07c.08,0,.18,0,.22.09a2.35,2.35,0,0,0,.08,1.13c0,.14-.21.19-.33.25s-.32-.28-.53-.37a5,5,0,0,0-.67-.71.26.26,0,0,1,0-.19.33.33,0,0,1,.35-.1l.11.07c.2.29.32.65.63.85a.14.14,0,0,0,.19-.08c0-.14-.12-.2-.15-.31Zm3.47.42s.11,0,.15,0c.28-.29.46-.94,1-.78.07.05.16.08.19.17s-.14.14-.23.2c-.39.42-.85.72-1.25,1.13-.11.05-.19-.05-.27-.1-.33-.37,0-.85.07-1.22.15-.17.2-.48.49-.45a.66.66,0,0,1,.34.07v.09a4.52,4.52,0,0,0-.54.69.2.2,0,0,0,.07.21Z" transform="translate(-379 -556.55)"/><path class="c" d="M408.91,567.28l-.15.17a7.56,7.56,0,0,1-1,1c-.18.28-.52.49-.68.79h.9c.51-.59,1.15-1.08,1.62-1.68a4.61,4.61,0,0,0,.42-.32Zm3.22,0a13.65,13.65,0,0,1-1.47.79,7.92,7.92,0,0,0-1.34,1.21h.87a10.64,10.64,0,0,1,1.74-1.15c.33-.23.68-.44,1-.65l.41-.2Zm15.2,0,.17.11a14.08,14.08,0,0,1,2,1.68l.27.21H431l-.16-.17c-.35-.22-.58-.63-1-.81s-.86-.7-1.3-1Zm3.21,0c.29.28.56.58.87.83a6.07,6.07,0,0,1,1.09,1.17h.59a8.5,8.5,0,0,0-.71-.82,8.9,8.9,0,0,0-1.1-1.18Zm-11,2a.18.18,0,0,1,0-.1c.05-.07.15-.06.22-.06a.85.85,0,0,1,.24.17h.44l.11-.22a.16.16,0,0,1,.24.09s0,.08,0,.13h.49c0-.05.06-.12.13-.13a.19.19,0,0,1,.18.13h2.18A3.52,3.52,0,0,1,423,569a15.76,15.76,0,0,0-1.92-.34h-1.87a12.44,12.44,0,0,0-1.86.33l-.72.1-.44.14Z" transform="translate(-379 -556.55)"/><path class="c" d="M416.16,563.28a7.4,7.4,0,0,0-.86.18,7.65,7.65,0,0,0-1.28.48,17.11,17.11,0,0,0-2.39,1.19c-.51.33-1,.79-1.49,1.13a13.87,13.87,0,0,0-1.24,1H410l.34-.29,1.44-1.13c.48-.33,1-.57,1.49-.89s.83-.28,1.23-.47a.58.58,0,0,1,.48,0,1.47,1.47,0,0,0,1.44.75,2.23,2.23,0,0,0,1-.48,2.15,2.15,0,0,1,.54-.4c.17,0,.42.17.57.21a2.57,2.57,0,0,0,1.1-.15,2.9,2.9,0,0,0,.73-.43c.14,0,.4.24.52.3a5.91,5.91,0,0,0,1.57.34s0,0,0,.05-.77-.07-.9,0a9.66,9.66,0,0,0-3.39.26c-1,.29-2,.42-2.89.8a17.6,17.6,0,0,0-2,1,6.91,6.91,0,0,0-1.18.57h1.24c.54-.26,1.09-.5,1.63-.74.31-.2.69-.26,1-.48a19.28,19.28,0,0,1,3.88-.82c.31.05.54-.08.84-.07a11.23,11.23,0,0,1,2.93.36l1.06.41c.51.29,1.06.51,1.59.79a4.78,4.78,0,0,1,1,.55h1.22a2.72,2.72,0,0,0-.59-.34c-.74-.39-1.5-.73-2.22-1.17a9.41,9.41,0,0,0-1.36-.49c-.05,0-.09-.11,0-.16s.39-.14.57-.26.41-.32.53-.55c.65.27,1.27.6,1.9.94a8.82,8.82,0,0,1,2.25,1.25,4.75,4.75,0,0,1,1,.78h.74l-.85-.76c-.35-.17-.63-.51-1-.7a11.25,11.25,0,0,1-1.15-.63,16.82,16.82,0,0,0-1.73-.89c-.18-.11-.39-.15-.57-.28a7.35,7.35,0,0,0-1.29-.57c-.24-.08-.51.08-.72-.05a.59.59,0,0,1,0-.12h-.52a3.89,3.89,0,0,0,.32,1.16c.1.08.21.17.34.11s.11,0,.15-.09a2.56,2.56,0,0,0-.22-.61c0-.06.07-.08.11-.08.23,0,.38.17.6.19a.77.77,0,0,1,0,.39c0,.14-.23.16-.3.26a.34.34,0,0,1-.29.13,1.43,1.43,0,0,1-1-.75l-.2-.71h-1.23a2.43,2.43,0,0,0,.25.34c.17.2.49.61.15.52a3.07,3.07,0,0,1-1.27-.86h-.49a4,4,0,0,1-1.23.86c-.33.11,0-.39.22-.59a2.14,2.14,0,0,0,.2-.27h-.88l-.07,0a.53.53,0,0,1-.34,0h-.19a.27.27,0,0,0-.11.15,1.52,1.52,0,0,1-.93,1.18c-.26,0-.6.16-.85,0a.72.72,0,0,1-.2-.67c0-.28.34-.32.55-.37s.24,0,.29.08c.08.34-.65.36-.26.69a1,1,0,0,0,.79-.45,1.53,1.53,0,0,0,.23-.6Z" transform="translate(-379 -556.55)"/><path class="c" d="M417.57,563.28a1.86,1.86,0,0,0-.15-1.15,1.13,1.13,0,0,1,.84.33c0,.22,0,.48.18.59s.29-.14.35.05-.06.15-.13.18h.88a2.67,2.67,0,0,0,.33-1.49c0-1.13-.76-1.39-1.08-1.41s-.54,0-.42-.16a1.52,1.52,0,0,1,1-.07,4.76,4.76,0,0,1,1.21.81,4.76,4.76,0,0,1,1.21-.81c.38-.08,1.1-.13,1.22,0s-.09.12-.4.14a1.47,1.47,0,0,0-1.28,1.49,2.74,2.74,0,0,0,.35,1.49h1.23l0-.06c-.15-.14-.37,0-.55-.1s-.34-.07-.4-.25-.06-.28.07-.32l.11-.09c0-.07.17-.07.26-.06s.26.32.49.26.33-.41.53-.51c.43-.34.52-.23.79-.36l0,0v0c-.38.26-.78.48-.82.95a3,3,0,0,0,0,.49H424c0-.29.17-.55.22-.83.24-.41.77-.14,1.1-.38a.44.44,0,0,0,.09-.39,1,1,0,0,0-.88-.48,3,3,0,0,0-1.5.77c-.26.21-.49-.09-.74-.14a.6.6,0,0,1-.38-.52c0-.24.26-.39.43-.53a1.34,1.34,0,0,1,1.29,0,.43.43,0,0,0,.3-.33.73.73,0,0,0-.11-.53,1.5,1.5,0,0,0-.54-.21,2.85,2.85,0,0,0-1.89.23c-.26.13-.45.48-.78.45-.32-.25-.69-.32-1-.53l-.52-.22a1.24,1.24,0,0,0-1.28.63c-.07.25-.23.61,0,.85a.31.31,0,0,0,.34.11c.19,0,.23-.23.34-.35a.32.32,0,0,1,.29,0,.69.69,0,0,1,.44.39c.08.25-.11.45-.27.61a.7.7,0,0,1-.57.08c-.63-.38-1.31-1-2.12-.6-.34.17-.77.51-.77.91.17.29.45,0,.67,0a1.07,1.07,0,0,1,1,.3.53.53,0,0,1-.19.57,3,3,0,0,1-.72.21Zm.67,0a.25.25,0,0,0-.19,0Zm2.11,0a.86.86,0,0,0,.26-.37.85.85,0,0,0,.23.37Zm-1.73-.82a.59.59,0,0,1,.6-.31l.07.08a.41.41,0,0,1-.65.48c-.06-.06,0-.17,0-.24Z" transform="translate(-379 -556.55)"/><path class="c" d="M441.15,577.78c-.09-.49-.08-1-.14-1.53a19,19,0,0,0-1.25-5,3.17,3.17,0,0,0-.48-1,4.8,4.8,0,0,0-.51-1l0-.12a29.09,29.09,0,0,0-2.38-3.43,22.54,22.54,0,0,0-3.43-3.2,15.81,15.81,0,0,0-2.61-1.83c-.5-.23-1-.52-1.44-.78s-1-.41-1.52-.6c-.85-.37-1.87-.37-2.74-.69-.59-.07-1.19-.08-1.77-.17-.92-.06-1.85-.1-2.75-.08a4.41,4.41,0,0,0-2.06.13c-.42,0-.81.13-1.22.15a12.17,12.17,0,0,0-1.93.35c-.24.05-.42.23-.67.23a10.14,10.14,0,0,1-1.66.48,12.24,12.24,0,0,0-1.23.48c-.28.33-.73.28-1,.58-1.17.51-2.18,1.41-3.35,1.94a14,14,0,0,0-2.79,2.46c-.37.35-.6.78-.94,1.14s-.41.78-.69,1.14c-.2.55-.67,1-.85,1.54-.17.18-.16.44-.35.61-.17.43-.42.82-.6,1.24s-.31.63-.38,1a4.9,4.9,0,0,0-.51,1.43,2.71,2.71,0,0,0-.35,1,20.83,20.83,0,0,0-.61,3,12.65,12.65,0,0,0-.08,2.46c-.15.26.05.51,0,.79a7.06,7.06,0,0,1,.18,1.45l.07.11c.11.43.16.88.24,1.32a16.27,16.27,0,0,0,.61,2.25c.38.84.57,1.75.94,2.6a12.82,12.82,0,0,0,.76,1.46c.43.88,1,1.7,1.54,2.57a25.37,25.37,0,0,0,2.16,2.28,15.11,15.11,0,0,0,3.34,2.5,22.51,22.51,0,0,0,3.12,1.59c.65.23,1.28.48,1.94.69s1,.45,1.65.48c.45,0,.79.26,1.22.26a22.76,22.76,0,0,0,4.81.08c.78-.08,1.58-.13,2.33-.26a14.85,14.85,0,0,0,4-1,11.72,11.72,0,0,1,2.13-.94,17.56,17.56,0,0,0,3.39-2.05c.59-.37,1.1-.88,1.68-1.32.59-.78,1.35-1.47,2-2.25a1.8,1.8,0,0,1,.26-.51c.52-.6.91-1.27,1.37-1.9a5.25,5.25,0,0,0,.68-1.37c.19-.39.95-2.5,1.19-3.13a25.82,25.82,0,0,0,.59-2.77,23.41,23.41,0,0,0,.21-2.75c0-.68,0-1.36,0-2Zm-.84,4.34c-.08.18,0,.38-.06.57a7.3,7.3,0,0,1-.39,1.62,26.24,26.24,0,0,1-1.3,3.85,18.35,18.35,0,0,1-1,1.74c-.48.78-1,1.53-1.59,2.27a6.53,6.53,0,0,1-.72.72c-.32.67-1,1.09-1.57,1.58a14.66,14.66,0,0,1-2.08,1.59A22.26,22.26,0,0,1,429,597.5c-.41.25-.87.36-1.25.64-.34.09-.63.29-1,.36a19.07,19.07,0,0,1-3,.58,6.18,6.18,0,0,1-1.74.35c-.48.05-1,.09-1.47.11a3,3,0,0,1-1.16,0,3.71,3.71,0,0,0-1.29,0,6.69,6.69,0,0,1-2.5-.32c-.66-.15-1.26-.42-1.95-.51-.78-.35-1.63-.53-2.4-.91a10.77,10.77,0,0,1-2.92-1.61c-.53-.44-1.16-.7-1.67-1.21a7.1,7.1,0,0,1-1.9-1.84,2.88,2.88,0,0,1-.74-.92c-.08-.17-.29-.12-.33-.3-.37-.67-.84-1.3-1.22-2-.2-.14-.2-.39-.35-.57a12.12,12.12,0,0,1-1.13-2.39c-.26-.48-.36-1-.6-1.5a9.15,9.15,0,0,1-.3-1.44c0-.22-.2-.37-.27-.57-.21-.92-.24-1.88-.38-2.83a6.93,6.93,0,0,1-.15-1.27,5.63,5.63,0,0,1,.07-1.74,17.62,17.62,0,0,1,.46-2.36,11.1,11.1,0,0,1,.78-2.47c0-.3.23-.51.25-.8.39-.78.58-1.64,1-2.39.27-.72.85-1.31,1.1-2.05a12.51,12.51,0,0,1,1-1.53,5.66,5.66,0,0,1,1.11-1.07,5.48,5.48,0,0,0,.68-.64c.76-.46,1.39-1.2,2.17-1.63.36-.14.63-.53,1-.64a13.31,13.31,0,0,1,1.63-.89,13.5,13.5,0,0,1,2.4-1c.65-.16,1.29-.31,2-.42.4-.12.85-.17,1.24-.31.6-.07,1.19-.17,1.79-.24a19.67,19.67,0,0,1,2.61-.2c.63.05,1.25,0,1.86.12l1.11.19a3.55,3.55,0,0,1,1,.08,9.34,9.34,0,0,1,3,.87c.54.3,1.12.52,1.68.8a10.41,10.41,0,0,1,3.17,2,13,13,0,0,0,1.28,1.14c.87.85,1.7,1.69,2.51,2.56.29.41.59.81.84,1.23a12.09,12.09,0,0,1,1.25,2,16,16,0,0,1,1.42,3.89,16.75,16.75,0,0,1,.7,5.67,19.47,19.47,0,0,0-.22,2.61Z" transform="translate(-379 -556.55)"/><path class="d" d="M424.35,578.3c.07.14-.06.13,0,.28s.06.28-.08.33-.18-.36-.45-.25l-.38.07c0,.47,0,1.1-.08,1.55,0,.19.25.1.27.29s0,.22-.11.23-.2,0-.29,0a1.14,1.14,0,0,1-.78,0,.22.22,0,0,1-.05-.25c.1-.14.31-.1.32-.29a7.45,7.45,0,0,0,0-1.53c-.08-.12-.32-.11-.4-.08s-.1.42-.28.38l-.1-.13,0-.55.06-.05a18,18,0,0,0,2.13,0c.1,0,.23,0,.3.05Z" transform="translate(-379 -556.55)"/><path class="d" d="M431,578.4a1.72,1.72,0,0,1,0,.6c-.08.06-.2,0-.3,0s0-.22,0-.26a.41.41,0,0,0-.35-.23c-.08,0-.38.18-.4.26,0,.54.89.43,1.12.85a.72.72,0,0,1-.12.92,1.19,1.19,0,0,1-1.23.11c-.21,0-.43.23-.6,0l.2-.32c.13-.2.09-.3.27-.45h.07c.1.36.18.53.57.54s.43,0,.47-.17,0-.19,0-.27c-.26-.36-1.06-.31-1.24-.73a.85.85,0,0,1,.15-.89,1.57,1.57,0,0,1,1.36-.11l.06.11Z" transform="translate(-379 -556.55)"/><path class="d" d="M413.61,578.33a1.11,1.11,0,0,1,0,.63c0,.11-.17.1-.26.08s-.07-.26-.24-.28a.46.46,0,0,0-.42.06.65.65,0,0,0-.07.4c.07.12.34.06.44.1s.1.15.06.36-.27,0-.45,0a1,1,0,0,0,0,.71,1,1,0,0,0,.76-.15c.13-.11.16-.28.3-.32s.18,0,.19.13,0,.54-.25.68c-.57.23-1.31,0-1.95,0-.11,0-.1-.14-.08-.23.46-.42.28-1.28.29-1.85,0-.15-.26-.28-.18-.42l.08,0c.4,0,.95.06,1.35,0a.81.81,0,0,1,.41.06Z" transform="translate(-379 -556.55)"/><path class="d" d="M420.54,578.43a.31.31,0,0,1,0,.23.62.62,0,0,0-.32.21,10.41,10.41,0,0,1,0,1.36c.08.11.28.08.31.25a.24.24,0,0,1-.08.33c-.21.1-.63,0-.88,0a.6.6,0,0,1-.48,0c-.1-.08-.1-.15,0-.27s.33-.08.4-.28a6.47,6.47,0,0,0,.09-1.44c-.05-.17-.27,0-.38-.17s-.17-.3-.08-.3a11.66,11.66,0,0,1,1.36,0c.06,0,.1.08.12.14Z" transform="translate(-379 -556.55)"/><path class="d" d="M409.18,578.37c0,.1,0,.1-.14.13a.17.17,0,0,0-.14.08,1.82,1.82,0,0,0,.32.93c.11,0,.19-.09.23-.17l.6-.87c-.23-.12-.11-.26-.11-.26a2.45,2.45,0,0,1,.85,0c.06,0,.29-.06.23.12s-.24.12-.34.27c-.46.65-.9,1.47-1.27,2.08-.12,0-.28,0-.32-.1v-.25l-.78-1.68c-.06-.07-.17,0-.24-.08s-.08-.11-.06-.23.31-.1.46-.15.6-.09.71.18Z" transform="translate(-379 -556.55)"/><path class="c" d="M427.95,580.3a15,15,0,0,1-1-1.93c0-.09-.13-.2-.23-.2s-.35.06-.38.17a6,6,0,0,1-.93,2,2.51,2.51,0,0,1-.37.28c-.05.05,0,.11,0,.15.29,0,.77,0,1.08,0,0,0,.1,0,.09-.1s-.07-.09-.12-.13,0-.09,0-.13c.16-.38.43-.27.69-.24s.46-.07.5.26c0,.1-.14,0-.2.05a.19.19,0,0,0-.11.21c0,.1.09.1.18.1a9.92,9.92,0,0,1,1-.05c.16,0-.15-.31-.22-.43Zm-1-.49a1.49,1.49,0,0,1-.67.07c-.19,0,.19-.51.13-.64s0-.32.16-.35.11.21.15.35.26.44.23.57Z" transform="translate(-379 -556.55)"/><path class="c" d="M428.19,568.29c-.05-.16-.12-.15-.35-.15a1.47,1.47,0,0,0-.82.55,5.31,5.31,0,0,1-1.12.73c-.14.1-.29,0-.43.11a.14.14,0,0,0,0,.12,2.36,2.36,0,0,0,.43.21c.17.07.25.37.48.2,0-.11-.11-.23,0-.32.39-.12.56.08.84.3a.16.16,0,0,1,0,.22c-.13,0-.27.09-.38,0a.07.07,0,0,0-.06.07c0,.21.38.44.5.56a1,1,0,0,0,.61.41.16.16,0,0,0,.11-.16c-.14-.38-.25-.07-.08-.44.06-.11.21-1.78.27-1.88a2.67,2.67,0,0,1,0-.53Zm-.77,1.27c0,.13-.5-.16-.59-.27s.32-.3.34-.35c.17-.12.2-.21.39-.3l0,0c0,.2-.12.6-.16.89Z" transform="translate(-379 -556.55)"/><path class="d" d="M421.9,565.89c0,.25-.05.51-.09.76a.11.11,0,0,1-.12.08c-.12,0-.29,0-.26-.55-.24-.27-.57-.13-.58.15a7.25,7.25,0,0,0-.07,1.48c.12.14.12.35.3.45a.13.13,0,0,1-.1.17c-.21,0-.38-.09-.58-.1a3.16,3.16,0,0,1-.76,0c-.08,0,0-.13,0-.18.53-.35.41-1,.46-1.61a.26.26,0,0,0-.14-.22c-.44-.19-.36.14-.56.19a.15.15,0,0,1-.19,0c-.15-.11-.05-.29-.05-.44s0-.29.17-.3c.57-.07,1.19.05,1.75,0,.29,0,.66-.08.83.17Z" transform="translate(-379 -556.55)"/><path class="d" d="M424.9,566.57a.79.79,0,0,1,.36.23c0,.29-.42.12-.53.35-.17.55-.81,1.18-.35,1.79a.11.11,0,0,1-.08.14c-.23,0-.59-.3-.78-.41s-.45,0-.57-.23c0-.23.32-.17.46-.29.34-.14.37-.59.49-.88s.2-.41.15-.63-.34-.18-.23-.38.29,0,.44,0c.12.16.5.26.65.35Z" transform="translate(-379 -556.55)"/><path class="d" d="M431.27,571.4a3.65,3.65,0,0,1,.59.93c0,.13.14.26,0,.4a.47.47,0,0,1-.42.16c-.08,0-.06-.14,0-.2.12-.41-.05-.65-.39-.67-.06.22-.42.12-.32.38.08.11.21.24.18.39s-.14.23-.26.29h-.1c-.12-.17-.29-.3-.32-.49a.1.1,0,0,0-.14,0c-.07.14-.32.22-.24.42s.17.44.39.58.19,0,.3,0,.41,0,.51.12-.17.15-.27.2a1.08,1.08,0,0,1-.81.1c-.28-.25-.29-.6-.55-.85l0-.09a2,2,0,0,0-.6-.51c-.07,0-.05-.14,0-.19.12-.27.33,0,.52-.05a6.41,6.41,0,0,0,1.16-.63c.15,0,.26-.17.34-.28a.85.85,0,0,1,0-.41c.06,0,.14-.09.2,0s.18.35.29.51Z" transform="translate(-379 -556.55)"/><path class="d" d="M408.91,572.19c0,.23-.23.38-.38.54a1,1,0,0,0,0,.86c.13.2.3.47.55.49l.51-.05c.05-.13.19-.21.17-.37,0-.41-.42.05-.51-.15a1,1,0,0,1,.28-.72.94.94,0,0,1,.68.27c.09,0,.24,0,.26.16v.14a3.94,3.94,0,0,1-.26,1,1.59,1.59,0,0,1-.77.49.92.92,0,0,1-.64.06c-.28-.26-.75-.4-.83-.83a2,2,0,0,1,.32-1.93c.18-.1.54-.24.65.07Z" transform="translate(-379 -556.55)"/><path class="c" d="M413.45,588.19c0-.08-.13-.19-.23-.17a12,12,0,0,1-1.41.67,2.15,2.15,0,0,1-.64.28c-.2.07-.38,0-.57,0a.16.16,0,0,0-.08.13,8.12,8.12,0,0,1,.88.89c.13-.11,0-.32.17-.44s.29,0,.44.07a.93.93,0,0,1,.55.73c0,.07-.2,0-.26.05s-.13.07,0,.16l.48.28c.2.13.32.4.55.46s.07-.14.06-.21c-.51-1,.27-1.85.12-2.84Zm-.87,1.39c-.15,0-.37-.25-.47-.37a.17.17,0,0,1,0-.18c.18-.11.55-.46.76-.48l0,0a9.62,9.62,0,0,1-.28,1Z" transform="translate(-379 -556.55)"/><path class="c" d="M429.47,588.85c-.39-.1-.17.08-.56,0s-1.17-.44-1.45-.53-.39-.24-.57-.08.09.53.06.84c.12.43.33,1.2.18,1.35s-.29.35-.15.53.19-.08.29-.14a2.78,2.78,0,0,0,.66-.52c0-.14-.22,0-.29-.16s.24-.29.35-.44.27-.32.48-.32,0,.25,0,.39,0,.07.08.06a7.64,7.64,0,0,0,1-.78.18.18,0,0,0,0-.18Zm-2,.77a1.57,1.57,0,0,1-.21-.87c0-.06.19.08.24.11l.47.21s.12,0,.13.08c-.15.18-.4.55-.63.48Z" transform="translate(-379 -556.55)"/><path class="d" d="M410.59,585l0,.14a8.05,8.05,0,0,0-.4,1.72c0,.07.28-.19.33-.22.26-.11.44-.4.71-.47s.19.13.29.26.3.33.23.54-.25-.17-.44-.11a3.3,3.3,0,0,0-1,.52c-.18.24-.45.32-.66.51-.1,0-.29,0-.29-.14a12.69,12.69,0,0,0,.3-1.77c-.06-.08-.63.42-.7.46-.29.2-.15.19-.24.53-.08,0-.17-.06-.23-.11s-.11-.34-.2-.49-.2-.16-.16-.29a1.16,1.16,0,0,0,.75-.1,8.84,8.84,0,0,0,1.22-1c0-.09-.12-.16-.07-.25a.22.22,0,0,1,.28,0,.51.51,0,0,1,.26.26Z" transform="translate(-379 -556.55)"/><path class="d" d="M430.43,585.28c.07.06.14.14.08.23a2.8,2.8,0,0,0-.84.29c-.1.09-.26.18-.27.32s.32.37.49.36-.08-.45.25-.45a.42.42,0,0,1,.44.23s.05.1,0,.14-.29,0-.33.17,0,.27.1.33a.35.35,0,0,0,.37.12c.17,0,.24-.23.34-.35s-.16-.41-.29-.58a.23.23,0,0,1,.14-.23c.33.07.53.31.83.44a.37.37,0,0,1-.08.26,13.18,13.18,0,0,1-1.31,1.54c-.06,0-.12.12-.18.09s.18-.37.09-.5a3.4,3.4,0,0,0-1.14-1c-.24-.07-.28,0-.43.21a.27.27,0,0,1-.27.06c-.1,0-.09-.14-.06-.22.09-.24.39-.4.52-.62a11.9,11.9,0,0,1,.82-1.08c.28-.18.47.15.72.22Z" transform="translate(-379 -556.55)"/><path class="d" d="M415.5,589.36c.63.21,1.24.45,1.88.63a.55.55,0,0,1,.23.18c0,.23-.14.39-.2.59a.16.16,0,0,1-.2,0c-.17-.17-.14-.6-.49-.51s-.27.43-.38.61-.3.56-.29.88a1.16,1.16,0,0,0,.33.39c0,.06,0,.13-.08.15s-.31-.14-.48-.17a4.18,4.18,0,0,1-1-.29s0-.08,0-.12.27-.08.4-.14a5.93,5.93,0,0,0,.51-1.16c0-.14.19-.26.14-.41a.7.7,0,0,0-.36-.15c-.19.12-.29.33-.47.45s-.14,0-.17-.1a1.58,1.58,0,0,1,.26-.87.59.59,0,0,1,.33,0Z" transform="translate(-379 -556.55)"/><path class="d" d="M420.62,590.41a.19.19,0,0,0,.1.21c.07,0,.2.06.19.17a2.08,2.08,0,0,1-.27,1.45.49.49,0,0,1-.55.12c-.49-.29-.15-.8-.26-1.27,0-.17-.08-.4.09-.53s.13,0,.15-.12,0-.1-.08-.12a7.62,7.62,0,0,1-.93,0,.14.14,0,0,0-.17.1c-.05.08,0,.15.09.17s.17.1.22.19c.18.64-.16,1.3.19,1.89a1.86,1.86,0,0,0,1.36.19c.81-.39.39-1.36.68-2.06.1-.07.27-.05.32-.12a.24.24,0,0,0,0-.26,3,3,0,0,0-.89,0c-.09,0-.19,0-.24.05Z" transform="translate(-379 -556.55)"/><path class="c" d="M426.19,590.94a.29.29,0,0,0-.28-.08c-.14,0-.17.19-.2.3s-.23.12-.38.14-.52-.28-.44-.4a.78.78,0,0,0,.06-.94c-.25-.53-.94-.4-1.35-.23s-.68.28-1,.48a.23.23,0,0,0,.07.23c.11.11.28,0,.4,0a2,2,0,0,1,.33.54,7.38,7.38,0,0,1,.33,1c0,.2-.16.41,0,.54a3.51,3.51,0,0,1,.61-.2c.22-.13-.16-.62-.12-.79a.14.14,0,0,1,.16-.08,4.15,4.15,0,0,0,.81.39c.51,0,.81,0,1-.5,0-.12.07-.26-.05-.35Zm-1.77-.13a.37.37,0,0,1-.33.11c-.11-.09-.48-.76-.28-.86a.59.59,0,0,1,.68.26.71.71,0,0,1-.07.49Z" transform="translate(-379 -556.55)"/><path class="d" d="M413.17,560.52c0,.35.24.53.13.84-.08.09-.06.12-.18.12s-.14,0-.16-.06a.55.55,0,0,0-.32-.36,1.33,1.33,0,0,0-.78.4.34.34,0,0,0,.06.36c.44.45,1,0,1.48,0a1.12,1.12,0,0,1,.54.26,1.21,1.21,0,0,1,.31,1.19c-.23.45-.65,1-1.22.91-.2.06-.36-.2-.52,0,0,.12,0,.26-.1.31a.31.31,0,0,1-.29-.06c-.12-.17,0-.36,0-.55s-.2-.33.06-.48.61.4.87.31a.6.6,0,0,0,.47-.41.35.35,0,0,0-.33-.53c-.32,0-.51.35-.88.29a1.19,1.19,0,0,1-1.08-1.42,1.25,1.25,0,0,1,.66-.69,1.52,1.52,0,0,1,.71-.12c.25-.05.15-.47.49-.31l.07.08Z" transform="translate(-379 -556.55)"/><path class="d" d="M429.83,561.75c.12.12.13.37.35.39s.28,0,.31.11-.38.32-.56.51l-.26.21c-.06,0-.11,0-.13-.08-.14-.31.15-.35,0-.63-.09-.13-.19-.3-.36-.33a.31.31,0,0,0-.26.17c-.2.39.1.67.19,1a1.57,1.57,0,0,1,.27.62.79.79,0,0,1-.27.82,1.18,1.18,0,0,1-1.15.2,2.18,2.18,0,0,1-.63-.39l-.24-.39c-.14,0-.33,0-.44-.14s0-.17.06-.24l.64-.71a.19.19,0,0,1,.2,0c.08,0,.08.13.11.2s-.25.33-.21.57.26.44.45.57a.61.61,0,0,0,.46,0,.38.38,0,0,0,.18-.47c0-.35-.45-.54-.51-.87s-.17-.69.05-.94a1.3,1.3,0,0,1,1.31-.47.87.87,0,0,1,.47.3Z" transform="translate(-379 -556.55)"/><path class="d" d="M409,562.76c0,.28-.24.41,0,.66.24.43.77.78,1,1.22.13.17.22.37.42.46s.47-.22.56.09c-.09.23-.43.34-.59.5a2.17,2.17,0,0,0-.64.64c-.06.05-.16.1-.23,0-.18-.26.18-.58,0-.87s-.28-.35-.39-.54a3.34,3.34,0,0,0-1.18-1.19c-.17-.08-.4.16-.5,0s.15-.26.26-.33a8.23,8.23,0,0,0,1-.73c.09,0,.26,0,.29.08Z" transform="translate(-379 -556.55)"/><path class="d" d="M431.6,564a.73.73,0,0,1,.18.71.67.67,0,0,1-.55.49c-.26,0-.59,0-.71-.29a.72.72,0,0,1,.12-.68,1.22,1.22,0,0,1,.4-.34.92.92,0,0,1,.56.11Z" transform="translate(-379 -556.55)"/><path class="d" d="M406.35,565.15a.33.33,0,0,1,0,.28c-.08.09-.17.2-.3.14s-.24-.22-.33-.12-.27.47-.22.54a.87.87,0,0,0,.44.18c.4-.05.95-.53,1.41-.38a1,1,0,0,1,1,.93,1.5,1.5,0,0,1-.1.71,1.44,1.44,0,0,1-.85.8.47.47,0,0,0-.25,0c-.11.11,0,.32-.2.39s-.34-.27-.47-.43a2,2,0,0,1-.19-.55c0-.05.06-.06.11-.08.49-.2.43.52,1.19,0a.49.49,0,0,0,.15-.42c-.11-.18,0-.52-.52-.42s-.85.32-1.31.41a1.07,1.07,0,0,1-.86-.4,1.14,1.14,0,0,1,0-1c.15-.2.52-1,.69-.85a1.58,1.58,0,0,1,.65.31Z" transform="translate(-379 -556.55)"/><path class="d" d="M403.87,567.58c.09.17-.1.3-.06.49a1,1,0,0,0,.74.77,18.23,18.23,0,0,0,1.68,1.1.15.15,0,0,1,0,.17c-.27.3-.62.21-1,.22a5.47,5.47,0,0,0-1.77.23c.18.15.32.37.57.41a.84.84,0,0,0,.82.32c.14,0,.18-.26.34-.19a.21.21,0,0,1,.1.26c-.29.45-.44,1-.71,1.42,0,.08-.14.14-.2.06s0-.31,0-.48c0-.37-.36-.55-.61-.75a2.45,2.45,0,0,0-1.48-.51c-.19,0-.27.26-.48.19s0-.27,0-.38c.18-.32.33-.59.73-.67a8.86,8.86,0,0,1,1.93-.34.33.33,0,0,0,.25-.15,4.48,4.48,0,0,0-.81-.59,1.29,1.29,0,0,0-.51-.24c-.11.06-.21.2-.36.11s-.17-.1-.18-.19.11-.15.13-.24c.2-.37.25-.81.61-1.08a.3.3,0,0,1,.23.08Z" transform="translate(-379 -556.55)"/><path class="d" d="M401.48,573.49c.12.17.49.05.43.34s-.49,0-.64.07a.69.69,0,0,0-.3.66c0,.11.06.3.16.35s.54.21.66,0,0-.6,0-.64.17,0,.31,0,.41,0,.37.07c-.18.32-.18.51-.36.68,0,0,0,.06.07.07a5.57,5.57,0,0,1,1.07.24c.07-.23.07-.65.13-.9s-.62-.54-.48-.92a.25.25,0,0,1,.3-.08c.26.11.47.12.65.35s.06,1-.09,1.34a13.76,13.76,0,0,0-.3,1.69.21.21,0,0,1-.23,0c-.29-.22,0-.79-.71-.83a11.07,11.07,0,0,1-1.68-.39c-.34,0-.26.54-.61.39-.23-.31.31-2.1.45-2.58a.18.18,0,0,1,.13-.09c.23,0,.4.11.61.13Z" transform="translate(-379 -556.55)"/><path class="d" d="M400.32,578.69a12.75,12.75,0,0,0,1.62.11c.32,0,.71.07.9-.21,0-.08.06-.22.16-.24s.2,0,.27,0l0,.08a4.72,4.72,0,0,0,0,1.38c0,.13,0,.26-.11.32-.3.06-.43-.44-.71-.5a7.25,7.25,0,0,0-1.68-.09c-.35,0-.55.23-.77.49a.21.21,0,0,1-.29-.17,3.77,3.77,0,0,1,0-1.18c0-.15,0-.37.19-.42s.19.31.38.39Z" transform="translate(-379 -556.55)"/><path class="d" d="M403.22,581.65c.11,0,.29,0,.33.11s.07.39.1.62c.1.46.53,1.72.53,1.9a.36.36,0,0,1-.19.2c-.41,0-.18-.36-.6-.27a10.81,10.81,0,0,1-1.92.42c-.08,0-.18,0-.19.12s0,.29-.11.32-.25-.16-.33-.26c-.17-.42-.56-.8-.42-1.3,0-.1.14-.1.23-.11.24,0,.2.4.46.35a7.84,7.84,0,0,1,1-.13c.33-.21,1.26,0,1.2-.42-.19-1.33-.6-1-1-1.49-.13-.14.14-.12.21-.18a2.52,2.52,0,0,1,.76.11Z" transform="translate(-379 -556.55)"/><path class="d" d="M437,582.28a4.2,4.2,0,0,0,1.74.44c.23,0,.48.26.68.07s.11-.26.23-.33a.23.23,0,0,1,.25.17c0,.3-.22.54-.27.83a3.25,3.25,0,0,0-.36,1.31c0,.09-.09.21-.2.24a2.78,2.78,0,0,1-.85-.09c-.1,0-.22-.26-.11-.26.7,0,1-.92,1-1s-.67-.13-.91-.21.11.52-.2.63-.11,0-.36,0a.34.34,0,0,1-.19-.2.29.29,0,0,1,.08-.3s.1-.06.11-.12-.11-.16-.22-.19c-.29,0-.74-.41-.91-.14a1.21,1.21,0,0,0,.24,1.35s0,.11-.08.14l-.16,0-.61-.42c-.11-.14,0-.34,0-.48.11-.43.25-.83.39-1.25a1.05,1.05,0,0,1,.29-.49c.3,0,.19.29.42.38Z" transform="translate(-379 -556.55)"/><path class="d" d="M435.56,585.84l0,.23a3.47,3.47,0,0,0,1.31.88,5.77,5.77,0,0,0,1.13.68.26.26,0,0,1,.14.32c-.37.42-1.07.26-1.59.26a1.39,1.39,0,0,0-.38-.07c-.08.09.13.37.16.45.2.39.42.66.6,1.06,0,.09-.05.14-.09.2-.38,0-.66-.26-1-.39s-.31-.23-.5-.3c-.38-.13-.88-.63-1.22-.36-.13.1-.24,0-.37-.08a2.18,2.18,0,0,1,.34-.82c.14-.08.08-.4.32-.3s0,.44.23.48a6.93,6.93,0,0,1,1.44.81c.1,0-.82-1.19-.83-1.48,0-.11,1.68.11,1.7,0s-1-.53-1.07-.58c-.26,0-.53-.41-.87.15,0,.08-.22,0-.26-.09s.12-.2.15-.31c.17-.29.09-.72.45-.91a.24.24,0,0,1,.21.13Z" transform="translate(-379 -556.55)"/><path class="d" d="M433.14,590.19c.11.32.54.4.79.66.42.27.66.92,1.2.92.2,0,.44-.12.54,0s-.24.29-.38.42-.45.47-.64.7a.17.17,0,0,1-.19,0c-.09-.13.12-.31,0-.45a2.75,2.75,0,0,0-.82-.68c-.36-.27-.5-.6-.93-.77-.25-.07-.48.29-.67,0,0-.36.38-.52.52-.82.16-.13.23-.33.4-.44s.09.29.15.42Z" transform="translate(-379 -556.55)"/><path class="d" d="M408.24,591.15a.92.92,0,0,0,.66.76.15.15,0,0,1-.11.19,1.91,1.91,0,0,1-.56.08c-.17.16-.19.1-.41.15a.16.16,0,0,1-.21-.08v-.09a.63.63,0,0,0,.29-.37c0-.33-.28-.6-.55-.77a.48.48,0,0,0-.39,0c-.17.14-.07.31,0,.52a2.9,2.9,0,0,1,.16.86,1.32,1.32,0,0,1-.37,1,1,1,0,0,1-.8.2c-.27,0-.43-.24-.62-.4a5.16,5.16,0,0,1-.48-.83c0-.19.22-.24.34-.33l.47-.12c.23.17-.12.29-.14.45a.5.5,0,0,0,.79.53c.14-.1.06-.26.07-.41-.07-.55-.45-1-.29-1.62a.89.89,0,0,1,.37-.54,1.55,1.55,0,0,1,1.52.38,1,1,0,0,1,.28.39Z" transform="translate(-379 -556.55)"/><path class="d" d="M427.61,594.51c0,.16-.33.2-.2.39s.1.62.32.87.24.92.54,1.13.36,0,.59,0a.3.3,0,0,1,.12.26c-.07.24-.35.16-.53.26-.51.19-1.14.44-1.64.66-.14.05-.16.31-.36.21s-.21-.55-.4-.79c0-.07,0-.17.05-.21s.19.09.29.11.16.23.33.16a1.89,1.89,0,0,1,.58-.29l-.23-.71a.26.26,0,0,0-.25-.07c-.15.11-.08.32-.23.42s-.14-.09-.17-.15a.83.83,0,0,1-.13-.63c.16-.18.34.07.53,0s0-.17,0-.25c-.25-.19-.17-.89-.64-.7-.19.08-.51.16-.57.39s-.05.36-.24.4a.15.15,0,0,1-.18-.08c0-.15.06-.25.07-.39s-.14-.36,0-.43c.48-.2,1-.28,1.51-.48.17-.1.53-.35.73-.26l.06.14Z" transform="translate(-379 -556.55)"/><path class="c" d="M439.49,574c-.06-.08-.14-.18-.24-.18-.32.12-.6-.06-.93-.05a9.12,9.12,0,0,1-1.78-.3.93.93,0,0,1-.51-.52c0-.14-.28-.21-.33-.08a1,1,0,0,0,.07.62c.14.29.17.49.28.76a.14.14,0,0,0,.19.1c.09,0,.06-.34,0-.43s.21.05.29,0,.19,0,.31.13a5.81,5.81,0,0,1,.19.76,3.47,3.47,0,0,1,.05.49c0,.08-.26.24-.36.22s-.18-.3-.36-.3-.08.15-.09.24.05,1,.14,1.25.11.21.23.16c.36-.23,0-.26.35-.54s1.69-1.46,1.95-1.61a2.78,2.78,0,0,0,.46-.44.34.34,0,0,0,.05-.3Zm-2,1c-.08,0-.1-.09-.13-.14l-.11-.81c.21-.15,1,.1,1.3.09s-.86.71-1.05.86Z" transform="translate(-379 -556.55)"/><path class="c" d="M434.9,565.79c0-.13-.18-.14-.29-.14-.82.23-1.54.67-2.35.93a1.44,1.44,0,0,1-.72-.08c-.1,0-.24-.1-.33,0a.35.35,0,0,0,.06.29c.32.2.52.73.88.73.15,0-.05-.24.22-.37s.69.32.89.6a.47.47,0,0,1-.05.36c0,.09-.16,0-.27,0s-.18-.11-.24,0a.4.4,0,0,0,0,.19,1.86,1.86,0,0,1,.62.64c.11.1.2.35.32.27s.07-.27.1-.43c.06-.35.38-.82.53-1.33s.56-1.11.65-1.66Zm-1.39,1.5c-.22,0-.43-.28-.53-.44a4.36,4.36,0,0,1,.88-.53c.17-.05-.22.88-.35,1Z" transform="translate(-379 -556.55)"/><path class="c" d="M432,595c-.17-.63-.36-1.26-.46-1.92a3.06,3.06,0,0,1-.05-.82c.09-.17.26-.32.28-.52a.19.19,0,0,0-.21-.11,2,2,0,0,1-.69.45c-.11.2-.24.09-.31.32s.2.11.32.12.07.16.08.24a1.88,1.88,0,0,1-.83.69.23.23,0,0,1-.22-.14c-.16-.18-.05-.21-.07-.4a.13.13,0,0,0-.14-.06c-.29.26-.66.38-.93.67-.07.07-.2.09-.18.21a.54.54,0,0,0,.17.28.31.31,0,0,0,.26,0c.59-.31,1,.55,1.48.82.38.1.88.73,1.13.7a.75.75,0,0,0,.47-.23c.06-.12-.05-.21-.09-.31Zm-.64-.39c-.15,0-.68-.68-.8-.75s-.09,0-.11-.07v-.08c.14-.13.62-.63.74-.25.05.14.24.88.27,1a.14.14,0,0,1-.1.11Z" transform="translate(-379 -556.55)"/><path class="c" d="M406.17,588.65c-.17-.34-.38-1-.57-1s0,.47-.25.61a.46.46,0,0,1-.39.05c-.28-.14-.27-.25-.45-.63-.08-.16-.28-.35-.12-.54s.17-.33.37-.33.08.11.11.17.09.24.23.19.13-.06.13-.13c0-.36-.32-.6-.43-.94-.15-.18-.1-.54-.41-.57s-.06.34-.11.51a8.47,8.47,0,0,1-.7.91,9.25,9.25,0,0,1-.79.93l-.3.5c0,.11-.17.35,0,.36a18.37,18.37,0,0,0,2.49,0c.33,0,.76-.09,1,.19.1.07.12.2.23.24a.2.2,0,0,0,.24,0c0-.21-.17-.37-.26-.54Zm-2-.31c-.23,0-.6,0-.83,0-.05,0,.57-.61.59-.66.17-.17.27.19.27.19s.08.31.19.37-.16.08-.21.07Z" transform="translate(-379 -556.55)"/><path class="d" d="M434.67,571.33a1.66,1.66,0,0,1-.25-.79c0-.2.18-.42.2-.6a1.81,1.81,0,0,1,.54-.61,2,2,0,0,1,.73-.38c.26,0,.52-.13.73-.12a1.47,1.47,0,0,1,.59.16,2.93,2.93,0,0,1,.46.39c.51.66.59,1.38.31,1.53l-.08.05-.3.14a1.36,1.36,0,0,1-.26.11l-.11.05h-.09a.06.06,0,0,1,0,0s0-.1.1-.2l.09-.12c.1-.15.21-.18.25-.3a1.24,1.24,0,0,0,0-.47.69.69,0,0,0-.45-.53,1.44,1.44,0,0,0-.87.08,1.49,1.49,0,0,0-.8.45.86.86,0,0,0-.18.81.34.34,0,0,0,.1.22c0,.18.51.72.6.7s-.09.23-.09.23a2,2,0,0,1-1.15-.74Z" transform="translate(-379 -556.55)"/><path class="d" d="M414,598.29a.35.35,0,0,1-.16-.1.15.15,0,0,1,0-.13c0-.08.29-.1.3-.1s.16-.16.28-.44c0-.05.19-.59.25-.8,0,0,.07-.36.08-.4a.66.66,0,0,0,0-.54.56.56,0,0,0-.38-.32.53.53,0,0,0-.47,0,.52.52,0,0,0-.34.33c0,.05-.17.27-.18.31l-.41.77c-.1.34-.19.56-.15.62l.07.09c.07.07.16.2.14.25a.14.14,0,0,1-.08.09.18.18,0,0,1-.13,0l-.89-.39a.21.21,0,0,1-.12-.09.14.14,0,0,1,0-.13q0-.09.18-.1a1.22,1.22,0,0,0,.28,0s.57-1.06.57-1.06.27-.56.3-.64a.82.82,0,0,1,.54-.55,1.39,1.39,0,0,1,.92.08,1.67,1.67,0,0,1,.88.55,2.1,2.1,0,0,1,.11,1.23c0,.09-.09.31-.12.36l-.13.65s0,.21-.05.23a.85.85,0,0,0-.05.2.63.63,0,0,0,.1.14q.11.1.08.19a.15.15,0,0,1-.08.09.18.18,0,0,1-.13,0l-1.15-.43Z" transform="translate(-379 -556.55)"/><path class="c" d="M442.65,577.19a14.33,14.33,0,0,0-.48-2.63,24,24,0,0,0-1.19-3.94,7.15,7.15,0,0,0-.73-1.4c-.17-.34-.39-.66-.54-1-.35-.47-.51-1-.86-1.48s-.75-1-1.16-1.5-.91-1-1.29-1.53c-.37-.17-.48-.62-.85-.82-.14-.28-.49-.34-.64-.63-.46-.39-.87-.88-1.36-1.23-.73-.62-1.64-.78-2.35-1.43l-.6-.3a13.57,13.57,0,0,0-1.72-.86c-.48-.24-1-.43-1.46-.66a10.34,10.34,0,0,0-1.19-.38c-.11,0-.19-.11-.3-.09a18.35,18.35,0,0,1-2.7-.48,23.84,23.84,0,0,1-2.44-.27c-.36,0-.73,0-1.07.05-.66,0-1.32.06-2,.15a10.57,10.57,0,0,0-2.79.65c-.94.32-1.89.64-2.82,1a1.93,1.93,0,0,1-.64.23c-.57.15-1,.55-1.59.69a8.74,8.74,0,0,0-1.8,1,7,7,0,0,0-1.69,1,7.67,7.67,0,0,0-1.72,1.23c-.55.64-1.23,1.13-1.78,1.74-.19.29-.44.56-.61.85s-.54.66-.79,1a5.43,5.43,0,0,0-.81,1.12c-.27.55-.65,1.05-.93,1.59-.12.4-.33.76-.48,1.16a9.3,9.3,0,0,0-.64,1.47c-.16.55-.4,1.06-.51,1.63-.06.2-.22.35-.17.58a7.36,7.36,0,0,0-.28,1.36c0,.74-.29,1.39-.29,2.13s0,1.26-.05,1.87c0,1,0,2.11.13,3.13a8.22,8.22,0,0,0,.21,1.32,29,29,0,0,0,1,3.45c.22.82.62,1.56.91,2.34a7.36,7.36,0,0,1,.75,1.25,8.94,8.94,0,0,0,1,1.5c.06.16.28.26.29.44a8.7,8.7,0,0,1,.6.85c.3.29.51.63.81.91.07.26.37.39.48.62s.57.4.74.71c.46.18.73.64,1.13.93a17.87,17.87,0,0,0,3.19,2.19c.51.2,1,.52,1.46.74.66.33,1.35.58,2,.88a13.69,13.69,0,0,0,1.74.36c.23,0,.42.15.66.15.82.18,1.63.39,2.46.55a20.09,20.09,0,0,0,4,.05,18.32,18.32,0,0,0,5.08-.69c.75-.28,1.53-.46,2.29-.73.89-.49,1.87-.77,2.75-1.28a6.3,6.3,0,0,1,.67-.34c.65-.32,1.21-.87,1.83-1.25A22,22,0,0,0,436,595.3a18,18,0,0,0,2-2.48,13.33,13.33,0,0,0,1.71-2.59c.09-.07.11-.19.17-.28a2,2,0,0,1,.26-.63c.22-.68.64-1.28.88-2a5.77,5.77,0,0,0,.35-1.19A18,18,0,0,0,442,584c.23-1.36.52-2.7.66-4.1a12.46,12.46,0,0,0-.05-2.7Zm-.59,3.62a27.67,27.67,0,0,1-.61,3.61c-.09.89-.63,1.51-.78,2.37a9.3,9.3,0,0,1-.6,1.62c-.37.71-.71,1.3-1,2-.46.88-2.35,3.92-4.16,5.09a25.51,25.51,0,0,0-2.05,1.53l-.89.54c-.43.07-.72.5-1.1.69a6.89,6.89,0,0,1-.92.42,13.85,13.85,0,0,1-2.84,1.24c-.75.32-1.6.43-2.36.75-1,.15-2,.3-3,.41a17.76,17.76,0,0,1-3,0,9.55,9.55,0,0,0-1.88-.14c-.27,0-.47-.13-.73-.16a19.5,19.5,0,0,0-2-.42,24.46,24.46,0,0,1-2.39-.71,3.39,3.39,0,0,0-.55-.18c-.79-.48-1.68-.76-2.45-1.28l-.15-.07a17.88,17.88,0,0,0-1.89-1.27c-.71-.57-1.49-1-2.17-1.68a13.11,13.11,0,0,1-1.2-1.32,10.93,10.93,0,0,1-.87-.9c-.56-.62-.86-1.37-1.41-2a15.93,15.93,0,0,1-1-1.92c-.2-.5-.48-1-.66-1.46-.31-.79-.46-1.65-.81-2.42a13.27,13.27,0,0,1-.38-1.66,10.17,10.17,0,0,1-.23-2.61,5.94,5.94,0,0,1,0-1.6,1.24,1.24,0,0,1,0-.6c-.08-.42.11-.83,0-1.24,0-.73.25-1.33.23-2.08a14.23,14.23,0,0,0,.23-1.43c.14-.27.18-.57.32-.84a11,11,0,0,1,1.16-3,13.79,13.79,0,0,0,.8-1.78,16.11,16.11,0,0,1,1.3-1.85A9.28,9.28,0,0,1,403,565c.17-.47.65-.72,1-1.1a10,10,0,0,1,2.25-1.69c.5-.3,1-.69,1.47-1,.08-.14.25-.13.37-.22a17.71,17.71,0,0,1,2.58-1.46,20,20,0,0,1,3.61-1.36,8.36,8.36,0,0,0,1.3-.35,7.24,7.24,0,0,0,1.1-.26c.38-.1.8-.1,1.17-.23a18.41,18.41,0,0,1,2.51.06c.34,0,.65-.07,1,0a2.31,2.31,0,0,0,.61,0,9.45,9.45,0,0,1,1.88.22c.3.09.6.16.91.23a9.65,9.65,0,0,1,1.12.31c.4.14.84.18,1.24.31,1,.41,2,.76,3,1.24.71.52,1.53.75,2.22,1.34A20.21,20.21,0,0,1,434,562.2c.28.18.49.5.75.72s.73.69,1.08,1,.56.62.89.87.52.69.81,1a21.51,21.51,0,0,1,1.65,2.48,7.37,7.37,0,0,1,1,1.76,24.8,24.8,0,0,1,1,2.75c.21.81.55,1.56.71,2.39a16.8,16.8,0,0,1,.24,2.08,6.29,6.29,0,0,1,0,1.81,5.61,5.61,0,0,1-.12,1.69Z" transform="translate(-379 -556.55)"/><path class="c" d="M440.13,577.57c-.25-.37-.28.19-.38.32a2.2,2.2,0,0,1-.86.16c-.56-.13-1,.13-1.54,0-.1-.06-.29.06-.33-.07s-.17-.26-.31-.24a.1.1,0,0,0-.08.1,11.35,11.35,0,0,1,.11,1.57,2.91,2.91,0,0,0,.77,1.23,1.79,1.79,0,0,0,1.1.23,1.66,1.66,0,0,0,1-.54l.31-.42c.07-.12,0-.26.13-.37a6.31,6.31,0,0,0,.13-1,4,4,0,0,0,0-1Zm-.62,2c-.41.57-1.18.46-1.78.39a.84.84,0,0,1-.48-.46,1.1,1.1,0,0,1,0-.55,1.55,1.55,0,0,1,1-.05c.27,0,1.23-.14,1.34,0a5.06,5.06,0,0,1,0,.69Z" transform="translate(-379 -556.55)"/></svg>